{"glyphs":{"0":{"ha":847,"x_min":103,"x_max":844,"o":"m 386 -14 q 178 67 253 -14 q 103 315 103 149 q 119 486 103 390 q 281 863 164 740 q 563 986 399 986 q 770 905 696 986 q 844 657 844 824 q 828 486 844 582 q 667 108 783 231 q 386 -14 550 -14 m 408 111 q 538 196 479 111 q 633 486 597 281 q 653 675 653 593 q 540 861 653 861 q 409 776 469 861 q 314 486 349 692 q 294 299 294 367 q 408 111 294 111 z "},"1":{"ha":569,"x_min":35,"x_max":539,"o":"m 35 0 l 56 125 l 194 125 l 310 778 l 186 701 l 128 806 l 358 972 l 539 972 l 389 125 l 528 125 l 507 0 l 35 0 z "},"2":{"ha":715,"x_min":-7,"x_max":761,"o":"m 10 97 q 71 244 24 178 q 177 358 118 310 q 328 469 236 406 q 458 565 411 528 q 535 650 504 603 q 567 753 567 697 q 532 833 567 804 q 429 861 497 861 q 276 829 349 861 q 224 799 246 815 l 210 799 l 167 910 q 246 947 200 931 q 465 986 342 986 q 687 928 613 986 q 761 767 761 869 q 756 708 761 736 q 696 572 743 635 q 590 464 649 510 q 438 356 532 418 q 273 233 328 283 q 208 125 218 183 l 653 125 l 632 0 l -7 0 l 10 97 z "},"3":{"ha":722,"x_min":-18,"x_max":768,"o":"m 254 -14 q 47 24 128 -14 q -18 63 8 40 l 65 174 l 79 174 q 121 142 93 158 q 263 111 179 111 q 422 154 365 111 q 493 278 479 197 q 497 325 497 303 q 324 458 497 458 l 164 458 l 186 583 l 524 847 l 142 847 l 164 972 l 768 972 l 746 847 l 394 583 q 617 516 540 583 q 693 338 693 449 q 688 278 693 319 q 555 65 665 143 q 254 -14 444 -14 z "},"4":{"ha":778,"x_min":18,"x_max":789,"o":"m 424 0 l 463 222 l 18 222 l 40 347 l 608 972 l 789 972 l 679 347 l 776 347 l 754 222 l 657 222 l 618 0 l 424 0 m 485 347 l 536 639 q 553 696 542 664 l 564 722 l 558 722 l 542 694 q 501 639 522 663 l 235 347 l 485 347 z "},"5":{"ha":750,"x_min":24,"x_max":788,"o":"m 296 -14 q 89 24 169 -14 q 24 63 50 40 l 107 174 l 121 174 q 163 142 135 158 q 304 111 221 111 q 524 299 493 111 q 529 351 529 338 q 369 486 529 486 l 194 486 l 150 543 l 226 972 l 788 972 l 768 861 l 401 861 l 357 611 l 413 611 q 647 549 568 611 q 725 371 725 486 q 718 299 725 340 q 586 68 693 150 q 296 -14 479 -14 z "},"6":{"ha":778,"x_min":75,"x_max":814,"o":"m 367 -14 q 149 49 224 -14 q 75 235 75 113 q 83 319 75 274 l 132 597 q 278 884 165 782 q 556 986 392 986 q 750 947 669 986 q 814 910 786 932 l 732 799 l 718 799 q 676 829 703 814 q 547 861 618 861 q 326 597 372 861 q 374 618 350 608 q 494 639 436 639 q 689 575 621 639 q 757 396 757 511 q 750 319 757 365 q 622 72 722 158 q 367 -14 522 -14 m 388 111 q 490 163 444 111 q 556 319 536 215 q 561 379 561 349 q 528 480 561 446 q 438 514 496 514 q 344 493 401 514 q 304 472 329 486 l 278 319 q 271 250 271 275 q 303 146 271 181 q 388 111 335 111 z "},"7":{"ha":667,"x_min":128,"x_max":789,"o":"m 194 125 q 338 531 233 344 q 572 847 442 717 l 128 847 l 150 972 l 789 972 l 767 847 q 532 531 636 717 q 389 125 428 344 l 368 0 l 174 0 l 194 125 z "},"8":{"ha":778,"x_min":39,"x_max":807,"o":"m 351 -14 q 119 47 200 -14 q 39 206 39 107 q 43 250 39 228 q 97 376 57 324 q 192 463 138 429 q 313 514 246 497 q 226 558 263 528 q 161 697 161 608 q 165 743 161 718 q 225 863 176 807 q 352 952 274 918 q 528 986 431 986 q 678 958 615 986 q 774 883 742 931 q 807 778 807 835 q 804 743 807 768 q 678 558 783 624 q 576 514 629 528 q 678 463 635 497 q 756 300 756 396 q 751 250 756 278 q 688 115 738 175 q 552 21 638 56 q 351 -14 467 -14 m 457 590 q 562 646 525 613 q 610 743 599 679 q 611 763 611 750 q 582 833 611 804 q 506 861 553 861 q 410 826 453 861 q 360 743 368 790 q 356 707 356 725 q 382 635 356 663 q 457 590 408 607 m 374 111 q 511 159 463 111 q 560 288 560 207 q 527 379 560 346 q 431 438 494 413 q 299 367 347 408 q 238 250 250 326 q 235 219 235 228 q 271 140 235 169 q 374 111 307 111 z "},"9":{"ha":778,"x_min":64,"x_max":803,"o":"m 324 -14 q 129 24 207 -14 q 64 63 89 42 l 147 174 l 161 174 q 203 142 175 158 q 332 111 258 111 q 551 375 506 111 q 504 354 528 363 q 385 333 450 333 q 190 397 258 333 q 121 576 121 460 q 128 653 121 607 q 257 900 157 814 q 513 986 357 986 q 729 924 656 986 q 803 740 803 861 q 794 653 803 699 l 746 375 q 600 88 713 189 q 324 -14 488 -14 m 442 458 q 533 479 483 458 q 574 500 556 489 l 600 653 q 607 724 607 697 q 576 827 607 793 q 492 861 544 861 q 388 808 435 861 q 322 653 340 756 q 317 596 317 625 q 349 492 317 526 q 442 458 382 458 z "},"\u0000":{"ha":0,"x_min":0,"x_max":0,"o":""},"\r":{"ha":417,"x_min":0,"x_max":0,"o":""}," ":{"ha":417,"x_min":0,"x_max":0,"o":""},"A":{"ha":833,"x_min":-14,"x_max":778,"o":"m -14 0 l 442 972 l 664 972 l 778 0 l 583 0 l 560 222 l 282 222 l 181 0 l -14 0 m 547 347 l 515 639 q 513 707 510 668 q 515 743 513 718 l 510 743 l 499 707 q 474 639 489 676 l 339 347 l 547 347 z "},"Á":{"ha":833,"x_min":-14,"x_max":778,"o":"m -14 0 l 442 972 l 664 972 l 778 0 l 583 0 l 560 222 l 282 222 l 181 0 l -14 0 m 547 347 l 515 639 q 513 707 510 668 q 515 743 513 718 l 510 743 l 499 707 q 474 639 489 676 l 339 347 l 547 347 m 476 1042 l 576 1250 l 764 1250 l 588 1042 l 476 1042 z "},"Ă":{"ha":833,"x_min":-14,"x_max":824,"o":"m -14 0 l 442 972 l 664 972 l 778 0 l 583 0 l 560 222 l 282 222 l 181 0 l -14 0 m 547 347 l 515 639 q 513 707 510 668 q 515 743 513 718 l 510 743 l 499 707 q 474 639 489 676 l 339 347 l 547 347 m 567 1056 q 375 1200 375 1056 q 379 1250 375 1224 l 532 1250 q 529 1215 529 1236 q 585 1153 529 1153 q 671 1250 654 1153 l 824 1250 q 567 1056 789 1056 z "},"Â":{"ha":833,"x_min":-14,"x_max":786,"o":"m -14 0 l 442 972 l 664 972 l 778 0 l 583 0 l 560 222 l 282 222 l 181 0 l -14 0 m 547 347 l 515 639 q 513 707 510 668 q 515 743 513 718 l 510 743 l 499 707 q 474 639 489 676 l 339 347 l 547 347 m 342 1042 l 528 1228 l 667 1228 l 786 1042 l 654 1042 l 582 1139 l 474 1042 l 342 1042 z "},"Ä":{"ha":833,"x_min":-14,"x_max":814,"o":"m -14 0 l 442 972 l 664 972 l 778 0 l 583 0 l 560 222 l 282 222 l 181 0 l -14 0 m 547 347 l 515 639 q 513 707 510 668 q 515 743 513 718 l 510 743 l 499 707 q 474 639 489 676 l 339 347 l 547 347 m 428 1056 q 369 1079 393 1056 q 346 1138 346 1103 q 383 1215 346 1181 q 463 1250 419 1250 q 520 1226 497 1250 q 543 1169 543 1203 q 542 1153 543 1158 q 501 1085 536 1115 q 428 1056 465 1056 m 699 1056 q 640 1079 664 1056 q 617 1138 617 1103 q 653 1215 617 1181 q 733 1250 690 1250 q 791 1226 768 1250 q 814 1169 814 1203 q 813 1153 814 1158 q 772 1085 807 1115 q 699 1056 736 1056 z "},"À":{"ha":833,"x_min":-14,"x_max":778,"o":"m -14 0 l 442 972 l 664 972 l 778 0 l 583 0 l 560 222 l 282 222 l 181 0 l -14 0 m 547 347 l 515 639 q 513 707 510 668 q 515 743 513 718 l 510 743 l 499 707 q 474 639 489 676 l 339 347 l 547 347 m 525 1042 l 424 1250 l 611 1250 l 636 1042 l 525 1042 z "},"Ā":{"ha":833,"x_min":-14,"x_max":790,"o":"m -14 0 l 442 972 l 664 972 l 778 0 l 583 0 l 560 222 l 282 222 l 181 0 l -14 0 m 547 347 l 515 639 q 513 707 510 668 q 515 743 513 718 l 510 743 l 499 707 q 474 639 489 676 l 339 347 l 547 347 m 365 1056 l 388 1181 l 790 1181 l 768 1056 l 365 1056 z "},"Ą":{"ha":833,"x_min":-14,"x_max":803,"o":"m -14 0 l 442 972 l 664 972 l 778 0 l 583 0 l 560 222 l 282 222 l 181 0 l -14 0 m 547 347 l 515 639 q 513 707 510 668 q 515 743 513 718 l 510 743 l 499 707 q 474 639 489 676 l 339 347 l 547 347 m 669 -257 q 538 -162 538 -257 q 540 -132 538 -143 q 594 -37 547 -85 q 640 0 615 -17 l 785 0 q 729 -32 760 -12 q 667 -119 667 -78 q 679 -149 667 -137 q 714 -160 692 -160 q 751 -153 733 -160 q 778 -139 768 -146 q 790 -129 789 -132 l 803 -129 l 786 -222 q 754 -240 767 -236 q 669 -257 718 -257 z "},"Å":{"ha":833,"x_min":-14,"x_max":778,"o":"m -14 0 l 442 972 l 664 972 l 778 0 l 583 0 l 560 222 l 282 222 l 181 0 l -14 0 m 547 347 l 515 639 q 513 707 510 668 q 515 743 513 718 l 510 743 l 499 707 q 474 639 489 676 l 339 347 l 547 347 m 564 1035 q 469 1067 504 1035 q 433 1153 433 1100 q 487 1276 433 1225 q 615 1326 540 1326 q 709 1294 674 1326 q 744 1208 744 1261 q 720 1122 744 1161 q 654 1058 696 1082 q 564 1035 613 1035 m 579 1125 q 617 1140 600 1125 q 638 1181 633 1156 q 639 1194 639 1186 q 628 1225 639 1214 q 599 1236 617 1236 q 562 1221 578 1236 q 540 1181 546 1206 q 539 1168 539 1176 q 550 1136 539 1147 q 579 1125 561 1125 z "},"Ã":{"ha":833,"x_min":-14,"x_max":797,"o":"m -14 0 l 442 972 l 664 972 l 778 0 l 583 0 l 560 222 l 282 222 l 181 0 l -14 0 m 547 347 l 515 639 q 513 707 510 668 q 515 743 513 718 l 510 743 l 499 707 q 474 639 489 676 l 339 347 l 547 347 m 797 1188 q 738 1091 783 1133 q 642 1049 692 1049 q 593 1058 613 1049 q 553 1085 574 1068 q 525 1105 536 1099 q 500 1111 514 1111 q 470 1099 485 1111 q 447 1073 456 1086 q 435 1056 438 1060 l 422 1056 l 351 1097 q 410 1194 365 1153 q 507 1236 456 1236 q 553 1227 535 1236 q 596 1200 572 1218 q 624 1180 613 1186 q 650 1174 635 1174 q 681 1185 665 1174 q 706 1213 696 1197 q 715 1229 717 1228 l 728 1229 l 797 1188 z "},"Æ":{"ha":1174,"x_min":-69,"x_max":1275,"o":"m -69 0 l 511 972 l 1275 972 l 1253 847 l 864 847 l 815 569 l 1121 569 l 1099 444 l 793 444 l 736 125 l 1125 125 l 1104 0 l 521 0 l 567 264 l 282 264 l 125 0 l -69 0 m 360 389 l 589 389 l 669 847 l 628 847 l 360 389 z "},"B":{"ha":847,"x_min":83,"x_max":839,"o":"m 254 972 l 546 972 q 766 918 693 972 q 839 771 839 864 q 835 722 839 747 q 718 550 814 607 q 625 514 672 524 q 722 474 682 503 q 794 319 794 419 q 790 271 794 299 q 375 0 743 0 l 83 0 l 254 972 m 475 569 q 582 608 538 569 q 638 708 626 646 q 640 739 640 731 q 609 818 640 789 q 524 847 578 847 l 426 847 l 378 569 l 475 569 m 396 125 q 599 285 569 125 q 603 325 603 306 q 453 444 603 444 l 356 444 l 299 125 l 396 125 z "},"C":{"ha":743,"x_min":103,"x_max":826,"o":"m 421 -14 q 103 318 103 -14 q 119 486 103 393 q 285 865 165 743 q 583 986 404 986 q 765 947 690 986 q 826 910 803 929 l 744 799 l 731 799 q 692 829 719 811 q 575 861 636 861 q 417 776 483 861 q 314 486 350 692 q 297 318 297 386 q 338 158 297 206 q 457 111 379 111 q 585 142 521 111 q 635 174 617 158 l 649 174 l 690 63 q 615 24 660 42 q 421 -14 528 -14 z "},"Ć":{"ha":743,"x_min":103,"x_max":826,"o":"m 421 -14 q 103 318 103 -14 q 119 486 103 393 q 285 865 165 743 q 583 986 404 986 q 765 947 690 986 q 826 910 803 929 l 744 799 l 731 799 q 692 829 719 811 q 575 861 636 861 q 417 776 483 861 q 314 486 350 692 q 297 318 297 386 q 338 158 297 206 q 457 111 379 111 q 585 142 521 111 q 635 174 617 158 l 649 174 l 690 63 q 615 24 660 42 q 421 -14 528 -14 m 522 1042 l 622 1250 l 810 1250 l 633 1042 l 522 1042 z "},"Č":{"ha":743,"x_min":103,"x_max":826,"o":"m 421 -14 q 103 318 103 -14 q 119 486 103 393 q 285 865 165 743 q 583 986 404 986 q 765 947 690 986 q 826 910 803 929 l 744 799 l 731 799 q 692 829 719 811 q 575 861 636 861 q 417 776 483 861 q 314 486 350 692 q 297 318 297 386 q 338 158 297 206 q 457 111 379 111 q 585 142 521 111 q 635 174 617 158 l 649 174 l 690 63 q 615 24 660 42 q 421 -14 528 -14 m 501 1064 l 382 1250 l 514 1250 l 588 1153 l 694 1250 l 826 1250 l 640 1064 l 501 1064 z "},"Ç":{"ha":743,"x_min":103,"x_max":826,"o":"m 765 947 q 826 910 803 929 l 744 799 l 731 799 q 692 829 719 811 q 575 861 636 861 q 417 776 483 861 q 314 486 350 692 q 297 318 297 386 q 338 158 297 206 q 457 111 379 111 q 585 142 521 111 q 635 174 617 158 l 649 174 l 690 63 q 615 24 660 42 q 428 -14 535 -12 l 424 -35 q 506 -63 475 -35 q 536 -133 536 -92 q 488 -230 536 -189 q 361 -271 439 -271 q 279 -257 321 -271 q 250 -243 260 -250 l 289 -174 l 301 -174 q 310 -180 303 -175 q 332 -190 318 -185 q 361 -194 346 -194 q 399 -183 383 -194 q 417 -153 414 -172 q 409 -122 421 -133 q 375 -111 397 -111 l 306 -111 l 325 -6 q 103 317 103 40 q 119 486 103 393 q 285 865 165 743 q 583 986 404 986 q 765 947 690 986 z "},"D":{"ha":854,"x_min":83,"x_max":849,"o":"m 254 972 l 490 972 q 849 635 849 972 q 835 486 849 564 q 319 0 747 0 l 83 0 l 254 972 m 340 125 q 533 206 460 125 q 640 486 606 286 q 656 639 656 568 q 609 800 656 753 q 468 847 563 847 l 426 847 l 299 125 l 340 125 z "},"Ð":{"ha":861,"x_min":89,"x_max":856,"o":"m 165 431 l 89 431 l 114 569 l 190 569 l 261 972 l 497 972 q 856 635 856 972 q 842 486 856 564 q 326 0 754 0 l 90 0 l 165 431 m 347 125 q 540 206 467 125 q 647 486 613 286 q 663 639 663 568 q 616 800 663 753 q 475 847 569 847 l 433 847 l 385 569 l 517 569 l 492 431 l 360 431 l 306 125 l 347 125 z "},"Ď":{"ha":854,"x_min":83,"x_max":849,"o":"m 254 972 l 490 972 q 849 635 849 972 q 835 486 849 564 q 319 0 747 0 l 83 0 l 254 972 m 340 125 q 533 206 460 125 q 640 486 606 286 q 656 639 656 568 q 609 800 656 753 q 468 847 563 847 l 426 847 l 299 125 l 340 125 m 474 1064 l 354 1250 l 486 1250 l 560 1153 l 667 1250 l 799 1250 l 613 1064 l 474 1064 z "},"Đ":{"ha":861,"x_min":89,"x_max":856,"o":"m 165 431 l 89 431 l 114 569 l 190 569 l 261 972 l 497 972 q 856 635 856 972 q 842 486 856 564 q 326 0 754 0 l 90 0 l 165 431 m 347 125 q 540 206 467 125 q 647 486 613 286 q 663 639 663 568 q 616 800 663 753 q 475 847 569 847 l 433 847 l 385 569 l 517 569 l 492 431 l 360 431 l 306 125 l 347 125 z "},"E":{"ha":736,"x_min":83,"x_max":838,"o":"m 83 0 l 254 972 l 838 972 l 815 847 l 426 847 l 378 569 l 683 569 l 661 444 l 356 444 l 299 125 l 688 125 l 667 0 l 83 0 z "},"É":{"ha":736,"x_min":83,"x_max":838,"o":"m 83 0 l 254 972 l 838 972 l 815 847 l 426 847 l 378 569 l 683 569 l 661 444 l 356 444 l 299 125 l 688 125 l 667 0 l 83 0 m 467 1042 l 567 1250 l 754 1250 l 578 1042 l 467 1042 z "},"Ě":{"ha":736,"x_min":83,"x_max":840,"o":"m 83 0 l 254 972 l 838 972 l 815 847 l 426 847 l 378 569 l 683 569 l 661 444 l 356 444 l 299 125 l 688 125 l 667 0 l 83 0 m 515 1064 l 396 1250 l 528 1250 l 601 1153 l 708 1250 l 840 1250 l 654 1064 l 515 1064 z "},"Ê":{"ha":736,"x_min":83,"x_max":838,"o":"m 83 0 l 254 972 l 838 972 l 815 847 l 426 847 l 378 569 l 683 569 l 661 444 l 356 444 l 299 125 l 688 125 l 667 0 l 83 0 m 347 1056 l 533 1242 l 672 1242 l 792 1056 l 660 1056 l 588 1153 l 479 1056 l 347 1056 z "},"Ë":{"ha":736,"x_min":83,"x_max":838,"o":"m 83 0 l 254 972 l 838 972 l 815 847 l 426 847 l 378 569 l 683 569 l 661 444 l 356 444 l 299 125 l 688 125 l 667 0 l 83 0 m 433 1069 q 375 1093 399 1069 q 351 1151 351 1117 q 388 1229 351 1194 q 468 1264 425 1264 q 526 1240 503 1264 q 549 1183 549 1217 q 547 1167 549 1172 q 506 1099 542 1129 q 433 1069 471 1069 m 704 1069 q 646 1093 669 1069 q 622 1151 622 1117 q 659 1229 622 1194 q 739 1264 696 1264 q 797 1240 774 1264 q 819 1183 819 1217 q 818 1167 819 1172 q 777 1099 813 1129 q 704 1069 742 1069 z "},"Ė":{"ha":722,"x_min":83,"x_max":838,"o":"m 83 0 l 254 972 l 838 972 l 815 847 l 426 847 l 378 569 l 683 569 l 661 444 l 356 444 l 299 125 l 688 125 l 667 0 l 83 0 m 569 1056 q 507 1081 532 1056 q 482 1143 482 1107 q 522 1226 482 1189 q 607 1264 561 1264 q 668 1239 643 1264 q 693 1178 693 1214 q 654 1093 693 1131 q 569 1056 615 1056 z "},"È":{"ha":736,"x_min":83,"x_max":838,"o":"m 83 0 l 254 972 l 838 972 l 815 847 l 426 847 l 378 569 l 683 569 l 661 444 l 356 444 l 299 125 l 688 125 l 667 0 l 83 0 m 543 1042 l 442 1250 l 629 1250 l 654 1042 l 543 1042 z "},"Ē":{"ha":722,"x_min":83,"x_max":838,"o":"m 83 0 l 254 972 l 838 972 l 815 847 l 426 847 l 378 569 l 683 569 l 661 444 l 356 444 l 299 125 l 688 125 l 667 0 l 83 0 m 357 1069 l 379 1194 l 782 1194 l 760 1069 l 357 1069 z "},"Ę":{"ha":736,"x_min":83,"x_max":838,"o":"m 83 0 l 254 972 l 838 972 l 815 847 l 426 847 l 378 569 l 683 569 l 661 444 l 356 444 l 299 125 l 688 125 l 667 0 l 83 0 m 371 -257 q 239 -162 239 -257 q 242 -132 239 -143 q 296 -37 249 -85 q 342 0 317 -17 l 486 0 q 431 -32 461 -12 q 368 -119 368 -78 q 381 -149 368 -137 q 415 -160 393 -160 q 452 -153 435 -160 q 480 -139 469 -146 q 492 -129 490 -132 l 504 -129 l 488 -222 q 456 -240 468 -236 q 371 -257 419 -257 z "},"F":{"ha":729,"x_min":83,"x_max":838,"o":"m 83 0 l 254 972 l 838 972 l 815 847 l 426 847 l 375 556 l 681 556 l 658 431 l 353 431 l 278 0 l 83 0 z "},"G":{"ha":819,"x_min":103,"x_max":826,"o":"m 421 -14 q 103 318 103 -14 q 119 486 103 393 q 285 865 165 743 q 583 986 404 986 q 765 947 690 986 q 826 910 803 929 l 744 799 l 731 799 q 692 829 719 811 q 575 861 636 861 q 417 776 483 861 q 314 486 350 692 q 297 318 297 386 q 338 158 297 206 q 457 111 379 111 q 506 118 481 111 q 528 125 514 119 l 579 417 l 433 417 l 456 542 l 740 542 l 786 486 l 711 63 q 633 24 681 42 q 421 -14 543 -14 z "},"Ğ":{"ha":819,"x_min":103,"x_max":838,"o":"m 421 -14 q 103 318 103 -14 q 119 486 103 393 q 285 865 165 743 q 583 986 404 986 q 765 947 690 986 q 826 910 803 929 l 744 799 l 731 799 q 692 829 719 811 q 575 861 636 861 q 417 776 483 861 q 314 486 350 692 q 297 318 297 386 q 338 158 297 206 q 457 111 379 111 q 506 118 481 111 q 528 125 514 119 l 579 417 l 433 417 l 456 542 l 740 542 l 786 486 l 711 63 q 633 24 681 42 q 421 -14 543 -14 m 581 1042 q 389 1186 389 1042 q 393 1236 389 1210 l 546 1236 q 543 1201 543 1222 q 599 1139 543 1139 q 685 1236 668 1139 l 838 1236 q 581 1042 803 1042 z "},"Ģ":{"ha":819,"x_min":103,"x_max":826,"o":"m 421 -14 q 103 318 103 -14 q 119 486 103 393 q 285 865 165 743 q 583 986 404 986 q 765 947 690 986 q 826 910 803 929 l 744 799 l 731 799 q 692 829 719 811 q 575 861 636 861 q 417 776 483 861 q 314 486 350 692 q 297 318 297 386 q 338 158 297 206 q 457 111 379 111 q 506 118 481 111 q 528 125 514 119 l 579 417 l 433 417 l 456 542 l 740 542 l 786 486 l 711 63 q 633 24 681 42 q 421 -14 543 -14 m 293 -354 q 336 -321 319 -337 q 389 -242 383 -278 q 328 -222 350 -242 q 306 -171 306 -201 l 307 -158 q 343 -94 314 -121 q 406 -68 372 -68 q 466 -89 444 -68 q 488 -147 488 -110 q 485 -172 488 -156 q 394 -347 465 -276 q 325 -401 364 -379 l 293 -354 z "},"H":{"ha":917,"x_min":83,"x_max":935,"o":"m 83 0 l 254 972 l 449 972 l 375 556 l 667 556 l 740 972 l 935 972 l 764 0 l 569 0 l 644 431 l 353 431 l 278 0 l 83 0 z "},"I":{"ha":431,"x_min":83,"x_max":449,"o":"m 83 0 l 254 972 l 449 972 l 278 0 l 83 0 z "},"Í":{"ha":399,"x_min":83,"x_max":563,"o":"m 83 0 l 254 972 l 449 972 l 278 0 l 83 0 m 275 1042 l 375 1250 l 563 1250 l 386 1042 l 275 1042 z "},"Î":{"ha":403,"x_min":83,"x_max":574,"o":"m 83 0 l 254 972 l 449 972 l 278 0 l 83 0 m 129 1056 l 315 1242 l 454 1242 l 574 1056 l 442 1056 l 369 1153 l 261 1056 l 129 1056 z "},"Ï":{"ha":431,"x_min":83,"x_max":615,"o":"m 83 0 l 254 972 l 449 972 l 278 0 l 83 0 m 229 1069 q 171 1093 194 1069 q 147 1151 147 1117 q 184 1229 147 1194 q 264 1264 221 1264 q 322 1240 299 1264 q 344 1183 344 1217 q 343 1167 344 1172 q 302 1099 338 1129 q 229 1069 267 1069 m 500 1069 q 442 1093 465 1069 q 418 1151 418 1117 q 455 1229 418 1194 q 535 1264 492 1264 q 592 1240 569 1264 q 615 1183 615 1217 q 614 1167 615 1172 q 573 1099 608 1129 q 500 1069 538 1069 z "},"İ":{"ha":417,"x_min":83,"x_max":482,"o":"m 83 0 l 254 972 l 449 972 l 278 0 l 83 0 m 358 1056 q 296 1081 321 1056 q 271 1143 271 1107 q 310 1226 271 1189 q 396 1264 350 1264 q 457 1239 432 1264 q 482 1178 482 1214 q 443 1093 482 1131 q 358 1056 404 1056 z "},"Ì":{"ha":400,"x_min":83,"x_max":449,"o":"m 83 0 l 254 972 l 449 972 l 278 0 l 83 0 m 307 1042 l 206 1250 l 393 1250 l 418 1042 l 307 1042 z "},"Ī":{"ha":417,"x_min":83,"x_max":582,"o":"m 83 0 l 254 972 l 449 972 l 278 0 l 83 0 m 157 1056 l 179 1181 l 582 1181 l 560 1056 l 157 1056 z "},"Į":{"ha":438,"x_min":38,"x_max":449,"o":"m 83 0 l 254 972 l 449 972 l 278 0 l 83 0 m 169 -257 q 38 -162 38 -257 q 40 -132 38 -143 q 94 -37 47 -85 q 140 0 115 -17 l 285 0 q 229 -32 260 -12 q 167 -119 167 -78 q 179 -149 167 -137 q 214 -160 192 -160 q 251 -153 233 -160 q 278 -139 268 -146 q 290 -129 289 -132 l 303 -129 l 286 -222 q 254 -240 267 -236 q 169 -257 218 -257 z "},"Ĩ":{"ha":424,"x_min":83,"x_max":604,"o":"m 83 0 l 254 972 l 449 972 l 278 0 l 83 0 m 604 1229 q 544 1133 590 1175 q 449 1090 499 1090 q 400 1100 419 1090 q 360 1126 381 1110 q 332 1147 343 1140 q 307 1153 321 1153 q 277 1140 292 1153 q 253 1115 263 1128 q 242 1097 244 1101 l 229 1097 l 158 1139 q 217 1236 172 1194 q 314 1278 263 1278 q 360 1269 342 1278 q 403 1242 379 1260 q 431 1222 419 1228 q 457 1215 442 1215 q 488 1227 472 1215 q 513 1254 503 1239 q 522 1271 524 1269 l 535 1271 l 604 1229 z "},"J":{"ha":625,"x_min":-26,"x_max":657,"o":"m 171 -14 q 31 17 100 -14 q -26 49 -7 35 l 50 167 l 64 167 q 99 139 86 147 q 179 111 136 111 q 338 264 311 111 l 463 972 l 657 972 l 532 264 q 415 61 510 136 q 171 -14 319 -14 z "},"Ĵ":{"ha":625,"x_min":-26,"x_max":783,"o":"m 171 -14 q 31 17 100 -14 q -26 49 -7 35 l 50 167 l 64 167 q 99 139 86 147 q 179 111 136 111 q 338 264 311 111 l 463 972 l 657 972 l 532 264 q 415 61 510 136 q 171 -14 319 -14 m 339 1028 l 525 1214 l 664 1214 l 783 1028 l 651 1028 l 579 1125 l 471 1028 l 339 1028 z "},"K":{"ha":813,"x_min":83,"x_max":921,"o":"m 83 0 l 254 972 l 449 972 l 372 542 l 706 972 l 921 972 l 547 507 l 771 0 l 549 0 l 358 458 l 278 0 l 83 0 z "},"Ķ":{"ha":813,"x_min":83,"x_max":921,"o":"m 83 0 l 254 972 l 449 972 l 372 542 l 706 972 l 921 972 l 547 507 l 771 0 l 549 0 l 358 458 l 278 0 l 83 0 m 285 -286 q 328 -253 311 -269 q 381 -174 375 -210 q 319 -153 342 -174 q 297 -103 297 -133 l 299 -90 q 335 -26 306 -53 q 397 0 364 0 q 458 -21 436 0 q 479 -79 479 -42 q 476 -104 479 -87 q 386 -279 457 -208 q 317 -333 356 -311 l 285 -286 z "},"L":{"ha":701,"x_min":83,"x_max":674,"o":"m 83 0 l 254 972 l 449 972 l 299 125 l 674 125 l 653 0 l 83 0 z "},"Ĺ":{"ha":701,"x_min":83,"x_max":674,"o":"m 83 0 l 254 972 l 449 972 l 299 125 l 674 125 l 653 0 l 83 0 m 314 1042 l 414 1250 l 601 1250 l 425 1042 l 314 1042 z "},"Ľ":{"ha":701,"x_min":83,"x_max":690,"o":"m 83 0 l 254 972 l 449 972 l 299 125 l 674 125 l 653 0 l 83 0 m 496 686 q 539 719 522 703 q 592 799 586 763 q 530 819 553 799 q 507 869 507 839 l 508 882 q 545 946 515 919 q 608 972 575 972 q 669 951 647 972 q 690 893 690 931 q 688 868 690 885 q 597 693 668 764 q 529 639 568 661 l 496 686 z "},"Ļ":{"ha":701,"x_min":83,"x_max":674,"o":"m 83 0 l 254 972 l 449 972 l 299 125 l 674 125 l 653 0 l 83 0 m 251 -354 q 294 -321 278 -337 q 347 -242 342 -278 q 286 -222 308 -242 q 264 -171 264 -201 l 265 -158 q 301 -94 272 -121 q 364 -68 331 -68 q 424 -89 403 -68 q 446 -147 446 -110 q 443 -172 446 -156 q 353 -347 424 -276 q 283 -401 322 -379 l 251 -354 z "},"Ł":{"ha":708,"x_min":65,"x_max":681,"o":"m 90 0 l 151 347 l 65 292 l 96 472 l 183 528 l 261 972 l 456 972 l 403 671 l 543 764 l 513 583 l 371 490 l 306 125 l 681 125 l 660 0 l 90 0 z "},"M":{"ha":1208,"x_min":83,"x_max":1226,"o":"m 254 972 l 442 972 l 615 424 q 625 378 624 393 l 628 354 l 633 354 l 646 378 q 671 424 656 400 l 1039 972 l 1226 972 l 1056 0 l 861 0 l 950 507 l 964 568 l 972 599 l 967 599 l 951 568 q 915 507 928 524 l 681 160 l 514 160 l 401 507 q 386 568 390 544 q 381 599 383 576 l 375 599 q 374 568 375 578 q 367 507 371 525 l 278 0 l 83 0 l 254 972 z "},"N":{"ha":917,"x_min":83,"x_max":935,"o":"m 254 972 l 463 972 l 610 431 l 625 369 q 631 340 628 360 l 636 340 q 638 369 636 360 q 644 431 642 415 l 740 972 l 935 972 l 764 0 l 556 0 l 407 542 q 393 603 408 536 q 388 632 390 613 l 382 632 q 381 603 382 613 q 372 542 378 571 l 278 0 l 83 0 l 254 972 z "},"Ń":{"ha":917,"x_min":83,"x_max":935,"o":"m 254 972 l 463 972 l 610 431 l 625 369 q 631 340 628 360 l 636 340 q 638 369 636 360 q 644 431 642 415 l 740 972 l 935 972 l 764 0 l 556 0 l 407 542 q 393 603 408 536 q 388 632 390 613 l 382 632 q 381 603 382 613 q 372 542 378 571 l 278 0 l 83 0 l 254 972 m 515 1028 l 615 1236 l 803 1236 l 626 1028 l 515 1028 z "},"Ň":{"ha":917,"x_min":83,"x_max":935,"o":"m 254 972 l 463 972 l 610 431 l 625 369 q 631 340 628 360 l 636 340 q 638 369 636 360 q 644 431 642 415 l 740 972 l 935 972 l 764 0 l 556 0 l 407 542 q 393 603 408 536 q 388 632 390 613 l 382 632 q 381 603 382 613 q 372 542 378 571 l 278 0 l 83 0 l 254 972 m 538 1050 l 418 1236 l 550 1236 l 624 1139 l 731 1236 l 863 1236 l 676 1050 l 538 1050 z "},"Ņ":{"ha":917,"x_min":83,"x_max":935,"o":"m 254 972 l 463 972 l 610 431 l 625 369 q 631 340 628 360 l 636 340 q 638 369 636 360 q 644 431 642 415 l 740 972 l 935 972 l 764 0 l 556 0 l 407 542 q 393 603 408 536 q 388 632 390 613 l 382 632 q 381 603 382 613 q 372 542 378 571 l 278 0 l 83 0 l 254 972 m 303 -286 q 346 -253 329 -269 q 399 -174 393 -210 q 338 -153 360 -174 q 315 -103 315 -133 l 317 -90 q 353 -26 324 -53 q 415 0 382 0 q 476 -21 454 0 q 497 -79 497 -42 q 494 -104 497 -87 q 404 -279 475 -208 q 335 -333 374 -311 l 303 -286 z "},"Ñ":{"ha":889,"x_min":83,"x_max":935,"o":"m 254 972 l 463 972 l 610 431 l 625 369 q 631 340 628 360 l 636 340 q 638 369 636 360 q 644 431 642 415 l 740 972 l 935 972 l 764 0 l 556 0 l 407 542 q 393 603 408 536 q 388 632 390 613 l 382 632 q 381 603 382 613 q 372 542 378 571 l 278 0 l 83 0 l 254 972 m 825 1188 q 765 1091 811 1133 q 669 1049 719 1049 q 621 1058 640 1049 q 581 1085 601 1068 q 553 1105 564 1099 q 528 1111 542 1111 q 498 1099 513 1111 q 474 1073 483 1086 q 463 1056 465 1060 l 450 1056 l 379 1097 q 438 1194 393 1153 q 535 1236 483 1236 q 581 1227 563 1236 q 624 1200 600 1218 q 651 1180 640 1186 q 678 1174 663 1174 q 708 1185 693 1174 q 734 1213 724 1197 q 743 1229 744 1228 l 756 1229 l 825 1188 z "},"O":{"ha":875,"x_min":103,"x_max":872,"o":"m 400 -14 q 181 67 258 -14 q 103 317 103 147 q 119 486 103 393 q 284 864 165 742 q 576 986 403 986 q 795 906 718 986 q 872 656 872 825 q 856 486 872 581 q 692 108 810 229 q 400 -14 574 -14 m 422 111 q 562 197 499 111 q 661 486 625 283 q 679 661 679 586 q 554 861 679 861 q 413 775 476 861 q 314 486 350 689 q 297 314 297 396 q 331 158 297 206 q 422 111 365 111 z "},"Ó":{"ha":875,"x_min":103,"x_max":872,"o":"m 400 -14 q 181 67 258 -14 q 103 317 103 147 q 119 486 103 393 q 284 864 165 742 q 576 986 403 986 q 795 906 718 986 q 872 656 872 825 q 856 486 872 581 q 692 108 810 229 q 400 -14 574 -14 m 422 111 q 562 197 499 111 q 661 486 625 283 q 679 661 679 586 q 554 861 679 861 q 413 775 476 861 q 314 486 350 689 q 297 314 297 396 q 331 158 297 206 q 422 111 365 111 m 497 1042 l 597 1250 l 785 1250 l 608 1042 l 497 1042 z "},"Ô":{"ha":875,"x_min":103,"x_max":872,"o":"m 400 -14 q 181 67 258 -14 q 103 317 103 147 q 119 486 103 393 q 284 864 165 742 q 576 986 403 986 q 795 906 718 986 q 872 656 872 825 q 856 486 872 581 q 692 108 810 229 q 400 -14 574 -14 m 422 111 q 562 197 499 111 q 661 486 625 283 q 679 661 679 586 q 554 861 679 861 q 413 775 476 861 q 314 486 350 689 q 297 314 297 396 q 331 158 297 206 q 422 111 365 111 m 365 1056 l 551 1242 l 690 1242 l 810 1056 l 678 1056 l 606 1153 l 497 1056 l 365 1056 z "},"Ö":{"ha":875,"x_min":103,"x_max":872,"o":"m 400 -14 q 181 67 258 -14 q 103 317 103 147 q 119 486 103 393 q 284 864 165 742 q 576 986 403 986 q 795 906 718 986 q 872 656 872 825 q 856 486 872 581 q 692 108 810 229 q 400 -14 574 -14 m 422 111 q 562 197 499 111 q 661 486 625 283 q 679 661 679 586 q 554 861 679 861 q 413 775 476 861 q 314 486 350 689 q 297 314 297 396 q 331 158 297 206 q 422 111 365 111 m 451 1069 q 393 1093 417 1069 q 369 1151 369 1117 q 406 1229 369 1194 q 486 1264 443 1264 q 544 1240 521 1264 q 567 1183 567 1217 q 565 1167 567 1172 q 524 1099 560 1129 q 451 1069 489 1069 m 722 1069 q 664 1093 688 1069 q 640 1151 640 1117 q 677 1229 640 1194 q 757 1264 714 1264 q 815 1240 792 1264 q 838 1183 838 1217 q 836 1167 838 1172 q 795 1099 831 1129 q 722 1069 760 1069 z "},"Ò":{"ha":875,"x_min":103,"x_max":872,"o":"m 400 -14 q 181 67 258 -14 q 103 317 103 147 q 119 486 103 393 q 284 864 165 742 q 576 986 403 986 q 795 906 718 986 q 872 656 872 825 q 856 486 872 581 q 692 108 810 229 q 400 -14 574 -14 m 422 111 q 562 197 499 111 q 661 486 625 283 q 679 661 679 586 q 554 861 679 861 q 413 775 476 861 q 314 486 350 689 q 297 314 297 396 q 331 158 297 206 q 422 111 365 111 m 560 1042 l 458 1250 l 646 1250 l 671 1042 l 560 1042 z "},"Ő":{"ha":875,"x_min":103,"x_max":896,"o":"m 400 -14 q 181 67 258 -14 q 103 317 103 147 q 119 486 103 393 q 284 864 165 742 q 576 986 403 986 q 795 906 718 986 q 872 656 872 825 q 856 486 872 581 q 692 108 810 229 q 400 -14 574 -14 m 422 111 q 562 197 499 111 q 661 486 625 283 q 679 661 679 586 q 554 861 679 861 q 413 775 476 861 q 314 486 350 689 q 297 314 297 396 q 331 158 297 206 q 422 111 365 111 m 428 1042 l 528 1250 l 681 1250 l 518 1042 l 428 1042 m 643 1042 l 743 1250 l 896 1250 l 733 1042 l 643 1042 z "},"Ō":{"ha":875,"x_min":103,"x_max":872,"o":"m 400 -14 q 181 67 258 -14 q 103 317 103 147 q 119 486 103 393 q 284 864 165 742 q 576 986 403 986 q 795 906 718 986 q 872 656 872 825 q 856 486 872 581 q 692 108 810 229 q 400 -14 574 -14 m 422 111 q 562 197 499 111 q 661 486 625 283 q 679 661 679 586 q 554 861 679 861 q 413 775 476 861 q 314 486 350 689 q 297 314 297 396 q 331 158 297 206 q 422 111 365 111 m 389 1069 l 411 1194 l 814 1194 l 792 1069 l 389 1069 z "},"Ø":{"ha":875,"x_min":35,"x_max":942,"o":"m 400 -14 q 219 33 292 -14 l 194 0 l 35 0 l 136 133 q 103 314 103 207 q 119 486 103 390 q 284 864 165 742 q 576 986 403 986 q 756 939 688 986 l 782 972 l 942 972 l 839 839 q 872 658 872 767 q 856 486 872 582 q 692 108 810 229 q 400 -14 574 -14 m 650 803 q 554 861 619 861 q 413 775 476 861 q 314 486 350 689 q 297 342 300 403 l 650 803 m 422 111 q 562 197 499 111 q 661 486 625 283 q 678 629 676 568 l 324 169 q 422 111 356 111 z "},"Õ":{"ha":875,"x_min":103,"x_max":872,"o":"m 400 -14 q 181 67 258 -14 q 103 317 103 147 q 119 486 103 393 q 284 864 165 742 q 576 986 403 986 q 795 906 718 986 q 872 656 872 825 q 856 486 872 581 q 692 108 810 229 q 400 -14 574 -14 m 422 111 q 562 197 499 111 q 661 486 625 283 q 679 661 679 586 q 554 861 679 861 q 413 775 476 861 q 314 486 350 689 q 297 314 297 396 q 331 158 297 206 q 422 111 365 111 m 821 1201 q 761 1105 807 1147 q 665 1063 715 1063 q 617 1072 636 1063 q 576 1099 597 1082 q 549 1119 560 1113 q 524 1125 538 1125 q 494 1113 508 1125 q 470 1087 479 1100 q 458 1069 461 1074 l 446 1069 l 375 1111 q 434 1208 389 1167 q 531 1250 479 1250 q 577 1241 558 1250 q 619 1214 596 1232 q 647 1194 636 1200 q 674 1188 658 1188 q 704 1199 689 1188 q 730 1226 719 1211 q 739 1243 740 1242 l 751 1243 l 821 1201 z "},"Œ":{"ha":1160,"x_min":106,"x_max":1261,"o":"m 479 0 q 199 83 293 0 q 106 339 106 167 q 119 486 106 408 q 296 853 164 733 q 650 972 428 972 l 1261 972 l 1239 847 l 864 847 l 815 569 l 1107 569 l 1085 444 l 793 444 l 736 125 l 1111 125 l 1090 0 l 479 0 m 542 125 l 669 847 l 628 847 q 481 814 542 847 q 379 701 421 781 q 314 486 338 622 q 299 335 299 394 q 348 172 299 219 q 500 125 397 125 l 542 125 z "},"P":{"ha":826,"x_min":83,"x_max":857,"o":"m 254 972 l 532 972 q 778 913 700 972 q 857 735 857 854 q 849 646 857 694 q 716 400 819 481 q 417 319 613 319 l 333 319 l 278 0 l 83 0 l 254 972 m 439 444 q 585 491 535 444 q 654 646 635 538 q 661 717 661 690 q 624 817 661 786 q 510 847 588 847 l 426 847 l 356 444 l 439 444 z "},"Þ":{"ha":896,"x_min":78,"x_max":899,"o":"m 258 1000 l 453 1000 l 436 903 l 533 903 q 804 817 710 903 q 899 581 899 732 q 890 486 899 536 q 800 265 868 358 q 626 120 732 171 q 386 69 519 69 l 289 69 l 272 -28 l 78 -28 l 258 1000 m 408 194 q 594 269 517 194 q 696 486 672 344 q 703 568 703 522 q 652 724 703 671 q 511 778 601 778 l 414 778 l 311 194 l 408 194 z "},"Q":{"ha":875,"x_min":104,"x_max":872,"o":"m 514 -229 q 358 -178 414 -229 q 301 -43 301 -128 q 306 0 301 -24 q 104 319 104 51 q 119 486 104 403 q 284 864 165 742 q 576 986 403 986 q 795 906 718 986 q 872 656 872 825 q 856 486 872 581 q 500 0 779 65 q 497 -32 497 -12 q 512 -85 497 -67 q 550 -104 526 -104 q 588 -97 571 -104 q 600 -90 592 -96 l 614 -90 l 631 -201 q 599 -215 617 -210 q 514 -229 557 -229 m 422 111 q 562 197 499 111 q 661 486 625 283 q 679 661 679 586 q 554 861 679 861 q 413 775 476 861 q 314 486 350 689 q 297 314 297 396 q 331 158 297 206 q 422 111 365 111 z "},"R":{"ha":833,"x_min":83,"x_max":846,"o":"m 254 972 l 518 972 q 846 739 846 972 q 838 660 846 701 q 708 435 811 515 q 608 382 661 399 l 778 0 l 556 0 l 415 347 l 339 347 l 278 0 l 83 0 l 254 972 m 429 472 q 576 516 525 472 q 643 660 626 560 q 649 721 649 689 q 612 817 649 788 q 496 847 575 847 l 426 847 l 360 472 l 429 472 z "},"Ŕ":{"ha":833,"x_min":83,"x_max":846,"o":"m 254 972 l 518 972 q 846 739 846 972 q 838 660 846 701 q 708 435 811 515 q 608 382 661 399 l 778 0 l 556 0 l 415 347 l 339 347 l 278 0 l 83 0 l 254 972 m 429 472 q 576 516 525 472 q 643 660 626 560 q 649 721 649 689 q 612 817 649 788 q 496 847 575 847 l 426 847 l 360 472 l 429 472 m 474 1042 l 574 1250 l 761 1250 l 585 1042 l 474 1042 z "},"Ř":{"ha":833,"x_min":83,"x_max":846,"o":"m 254 972 l 518 972 q 846 739 846 972 q 838 660 846 701 q 708 435 811 515 q 608 382 661 399 l 778 0 l 556 0 l 415 347 l 339 347 l 278 0 l 83 0 l 254 972 m 429 472 q 576 516 525 472 q 643 660 626 560 q 649 721 649 689 q 612 817 649 788 q 496 847 575 847 l 426 847 l 360 472 l 429 472 m 481 1064 l 361 1250 l 493 1250 l 567 1153 l 674 1250 l 806 1250 l 619 1064 l 481 1064 z "},"Ŗ":{"ha":819,"x_min":83,"x_max":846,"o":"m 254 972 l 518 972 q 846 739 846 972 q 838 660 846 701 q 708 435 811 515 q 608 382 661 399 l 778 0 l 556 0 l 415 347 l 339 347 l 278 0 l 83 0 l 254 972 m 429 472 q 576 516 525 472 q 643 660 626 560 q 649 721 649 689 q 612 817 649 788 q 496 847 575 847 l 426 847 l 360 472 l 429 472 m 257 -286 q 300 -253 283 -269 q 353 -174 347 -210 q 292 -153 314 -174 q 269 -103 269 -133 l 271 -90 q 307 -26 278 -53 q 369 0 336 0 q 430 -21 408 0 q 451 -79 451 -42 q 449 -104 451 -87 q 358 -279 429 -208 q 289 -333 328 -311 l 257 -286 z "},"S":{"ha":743,"x_min":24,"x_max":792,"o":"m 310 -14 q 92 24 174 -14 q 24 63 47 42 l 107 174 l 121 174 q 165 142 138 157 q 318 111 229 111 q 447 149 399 111 q 508 250 496 186 q 510 271 510 257 q 472 351 510 319 q 357 422 435 382 q 245 488 288 458 q 173 563 203 517 q 143 672 143 608 q 147 722 143 696 q 210 856 161 796 q 340 951 260 917 q 521 986 419 986 q 726 947 643 986 q 792 910 763 932 l 710 799 l 696 799 q 654 829 681 814 q 513 861 593 861 q 402 823 451 861 q 344 736 353 785 q 343 717 343 729 q 363 657 343 683 q 413 612 383 631 q 497 564 442 593 q 607 500 564 529 q 680 425 650 471 q 710 315 710 379 q 706 264 710 292 q 580 63 683 139 q 310 -14 476 -14 z "},"Ś":{"ha":743,"x_min":24,"x_max":792,"o":"m 310 -14 q 92 24 174 -14 q 24 63 47 42 l 107 174 l 121 174 q 165 142 138 157 q 318 111 229 111 q 447 149 399 111 q 508 250 496 186 q 510 271 510 257 q 472 351 510 319 q 357 422 435 382 q 245 488 288 458 q 173 563 203 517 q 143 672 143 608 q 147 722 143 696 q 210 856 161 796 q 340 951 260 917 q 521 986 419 986 q 726 947 643 986 q 792 910 763 932 l 710 799 l 696 799 q 654 829 681 814 q 513 861 593 861 q 402 823 451 861 q 344 736 353 785 q 343 717 343 729 q 363 657 343 683 q 413 612 383 631 q 497 564 442 593 q 607 500 564 529 q 680 425 650 471 q 710 315 710 379 q 706 264 710 292 q 580 63 683 139 q 310 -14 476 -14 m 446 1042 l 546 1250 l 733 1250 l 557 1042 l 446 1042 z "},"Š":{"ha":743,"x_min":24,"x_max":792,"o":"m 310 -14 q 92 24 174 -14 q 24 63 47 42 l 107 174 l 121 174 q 165 142 138 157 q 318 111 229 111 q 447 149 399 111 q 508 250 496 186 q 510 271 510 257 q 472 351 510 319 q 357 422 435 382 q 245 488 288 458 q 173 563 203 517 q 143 672 143 608 q 147 722 143 696 q 210 856 161 796 q 340 951 260 917 q 521 986 419 986 q 726 947 643 986 q 792 910 763 932 l 710 799 l 696 799 q 654 829 681 814 q 513 861 593 861 q 402 823 451 861 q 344 736 353 785 q 343 717 343 729 q 363 657 343 683 q 413 612 383 631 q 497 564 442 593 q 607 500 564 529 q 680 425 650 471 q 710 315 710 379 q 706 264 710 292 q 580 63 683 139 q 310 -14 476 -14 m 453 1064 l 333 1250 l 465 1250 l 539 1153 l 646 1250 l 778 1250 l 592 1064 l 453 1064 z "},"Ş":{"ha":743,"x_min":24,"x_max":792,"o":"m 344 736 q 343 717 343 729 q 363 657 343 683 q 413 612 383 631 q 497 564 442 593 q 607 500 564 529 q 680 425 650 471 q 710 315 710 379 q 706 264 710 292 q 597 76 685 150 q 365 -11 508 1 l 361 -35 q 443 -63 413 -35 q 474 -133 474 -92 q 425 -230 474 -189 q 299 -271 376 -271 q 217 -257 258 -271 q 188 -243 197 -250 l 226 -174 l 239 -174 q 248 -180 240 -175 q 269 -190 256 -185 q 299 -194 283 -194 q 336 -183 321 -194 q 354 -153 351 -172 q 347 -122 358 -133 q 313 -111 335 -111 l 243 -111 l 261 -12 q 92 24 161 -7 q 24 63 47 42 l 107 174 l 121 174 q 165 142 138 157 q 318 111 229 111 q 447 149 399 111 q 508 250 496 186 q 510 271 510 257 q 472 351 510 319 q 357 422 435 382 q 245 488 288 458 q 173 563 203 517 q 143 672 143 608 q 147 722 143 696 q 210 856 161 796 q 340 951 260 917 q 521 986 419 986 q 726 947 643 986 q 792 910 763 932 l 710 799 l 696 799 q 654 829 681 814 q 513 861 593 861 q 402 823 451 861 q 344 736 353 785 z "},"Ș":{"ha":743,"x_min":24,"x_max":792,"o":"m 310 -14 q 92 24 174 -14 q 24 63 47 42 l 107 174 l 121 174 q 165 142 138 157 q 318 111 229 111 q 447 149 399 111 q 508 250 496 186 q 510 271 510 257 q 472 351 510 319 q 357 422 435 382 q 245 488 288 458 q 173 563 203 517 q 143 672 143 608 q 147 722 143 696 q 210 856 161 796 q 340 951 260 917 q 521 986 419 986 q 726 947 643 986 q 792 910 763 932 l 710 799 l 696 799 q 654 829 681 814 q 513 861 593 861 q 402 823 451 861 q 344 736 353 785 q 343 717 343 729 q 363 657 343 683 q 413 612 383 631 q 497 564 442 593 q 607 500 564 529 q 680 425 650 471 q 710 315 710 379 q 706 264 710 292 q 580 63 683 139 q 310 -14 476 -14 m 229 -347 q 272 -314 256 -331 q 325 -235 319 -271 q 264 -215 286 -235 q 242 -164 242 -194 l 243 -151 q 279 -87 250 -114 q 342 -61 308 -61 q 402 -82 381 -61 q 424 -140 424 -103 q 421 -165 424 -149 q 331 -340 401 -269 q 261 -394 300 -372 l 229 -347 z "},"T":{"ha":708,"x_min":128,"x_max":831,"o":"m 222 0 l 371 847 l 128 847 l 150 972 l 831 972 l 808 847 l 565 847 l 417 0 l 222 0 z "},"Ť":{"ha":708,"x_min":128,"x_max":831,"o":"m 222 0 l 371 847 l 128 847 l 150 972 l 831 972 l 808 847 l 565 847 l 417 0 l 222 0 m 436 1064 l 317 1250 l 449 1250 l 522 1153 l 629 1250 l 761 1250 l 575 1064 l 436 1064 z "},"Ț":{"ha":708,"x_min":128,"x_max":831,"o":"m 222 0 l 371 847 l 128 847 l 150 972 l 831 972 l 808 847 l 565 847 l 417 0 l 222 0 m 186 -354 q 229 -321 213 -337 q 282 -242 276 -278 q 221 -222 243 -242 q 199 -171 199 -201 l 200 -158 q 236 -94 207 -121 q 299 -68 265 -68 q 359 -89 338 -68 q 381 -147 381 -110 q 378 -172 381 -156 q 288 -347 358 -276 q 218 -401 257 -379 l 186 -354 z "},"U":{"ha":889,"x_min":118,"x_max":921,"o":"m 407 -14 q 192 52 267 -14 q 118 239 118 118 q 125 319 118 285 l 240 972 l 435 972 l 319 319 q 313 250 313 275 q 344 146 313 181 q 429 111 376 111 q 543 163 494 111 q 611 319 592 214 l 726 972 l 921 972 l 806 319 q 674 74 778 161 q 407 -14 569 -14 z "},"Ú":{"ha":889,"x_min":118,"x_max":921,"o":"m 407 -14 q 192 52 267 -14 q 118 239 118 118 q 125 319 118 285 l 240 972 l 435 972 l 319 319 q 313 250 313 275 q 344 146 313 181 q 429 111 376 111 q 543 163 494 111 q 611 319 592 214 l 726 972 l 921 972 l 806 319 q 674 74 778 161 q 407 -14 569 -14 m 513 1014 l 613 1222 l 800 1222 l 624 1014 l 513 1014 z "},"Û":{"ha":889,"x_min":118,"x_max":921,"o":"m 407 -14 q 192 52 267 -14 q 118 239 118 118 q 125 319 118 285 l 240 972 l 435 972 l 319 319 q 313 250 313 275 q 344 146 313 181 q 429 111 376 111 q 543 163 494 111 q 611 319 592 214 l 726 972 l 921 972 l 806 319 q 674 74 778 161 q 407 -14 569 -14 m 372 1056 l 558 1242 l 697 1242 l 817 1056 l 685 1056 l 613 1153 l 504 1056 l 372 1056 z "},"Ü":{"ha":889,"x_min":118,"x_max":921,"o":"m 407 -14 q 192 52 267 -14 q 118 239 118 118 q 125 319 118 285 l 240 972 l 435 972 l 319 319 q 313 250 313 275 q 344 146 313 181 q 429 111 376 111 q 543 163 494 111 q 611 319 592 214 l 726 972 l 921 972 l 806 319 q 674 74 778 161 q 407 -14 569 -14 m 458 1069 q 400 1093 424 1069 q 376 1151 376 1117 q 413 1229 376 1194 q 493 1264 450 1264 q 551 1240 528 1264 q 574 1183 574 1217 q 572 1167 574 1172 q 531 1099 567 1129 q 458 1069 496 1069 m 729 1069 q 671 1093 694 1069 q 647 1151 647 1117 q 684 1229 647 1194 q 764 1264 721 1264 q 822 1240 799 1264 q 844 1183 844 1217 q 843 1167 844 1172 q 802 1099 838 1129 q 729 1069 767 1069 z "},"Ù":{"ha":889,"x_min":118,"x_max":921,"o":"m 407 -14 q 192 52 267 -14 q 118 239 118 118 q 125 319 118 285 l 240 972 l 435 972 l 319 319 q 313 250 313 275 q 344 146 313 181 q 429 111 376 111 q 543 163 494 111 q 611 319 592 214 l 726 972 l 921 972 l 806 319 q 674 74 778 161 q 407 -14 569 -14 m 561 1014 l 460 1222 l 647 1222 l 672 1014 l 561 1014 z "},"Ű":{"ha":889,"x_min":118,"x_max":921,"o":"m 407 -14 q 192 52 267 -14 q 118 239 118 118 q 125 319 118 285 l 240 972 l 435 972 l 319 319 q 313 250 313 275 q 344 146 313 181 q 429 111 376 111 q 543 163 494 111 q 611 319 592 214 l 726 972 l 921 972 l 806 319 q 674 74 778 161 q 407 -14 569 -14 m 418 1028 l 518 1236 l 671 1236 l 508 1028 l 418 1028 m 633 1028 l 733 1236 l 886 1236 l 724 1028 l 633 1028 z "},"Ū":{"ha":889,"x_min":118,"x_max":921,"o":"m 407 -14 q 192 52 267 -14 q 118 239 118 118 q 125 319 118 285 l 240 972 l 435 972 l 319 319 q 313 250 313 275 q 344 146 313 181 q 429 111 376 111 q 543 163 494 111 q 611 319 592 214 l 726 972 l 921 972 l 806 319 q 674 74 778 161 q 407 -14 569 -14 m 393 1056 l 415 1181 l 818 1181 l 796 1056 l 393 1056 z "},"Ų":{"ha":889,"x_min":118,"x_max":921,"o":"m 921 972 l 806 319 q 697 96 781 181 q 483 -8 614 11 q 444 -32 469 -15 q 382 -119 382 -78 q 394 -149 382 -137 q 429 -160 407 -160 q 466 -153 449 -160 q 494 -139 483 -146 q 506 -129 504 -132 l 518 -129 l 501 -222 q 469 -240 482 -236 q 385 -257 433 -257 q 253 -162 253 -257 q 256 -132 253 -143 q 310 -37 263 -85 q 342 -10 325 -22 q 176 69 233 4 q 118 239 118 133 q 125 319 118 285 l 240 972 l 435 972 l 319 319 q 313 250 313 275 q 344 146 313 181 q 429 111 376 111 q 543 163 494 111 q 611 319 592 214 l 726 972 l 921 972 z "},"Ů":{"ha":889,"x_min":118,"x_max":921,"o":"m 407 -14 q 192 52 267 -14 q 118 239 118 118 q 125 319 118 285 l 240 972 l 435 972 l 319 319 q 313 250 313 275 q 344 146 313 181 q 429 111 376 111 q 543 163 494 111 q 611 319 592 214 l 726 972 l 921 972 l 806 319 q 674 74 778 161 q 407 -14 569 -14 m 589 1021 q 494 1053 529 1021 q 458 1139 458 1086 q 512 1262 458 1211 q 640 1313 565 1313 q 734 1280 699 1313 q 769 1194 769 1247 q 745 1108 769 1147 q 679 1044 721 1068 q 589 1021 638 1021 m 604 1111 q 642 1126 625 1111 q 663 1167 658 1142 q 664 1181 664 1172 q 653 1211 664 1200 q 624 1222 642 1222 q 587 1207 603 1222 q 565 1167 571 1192 q 564 1154 564 1163 q 575 1122 564 1133 q 604 1111 586 1111 z "},"V":{"ha":819,"x_min":157,"x_max":935,"o":"m 157 972 l 351 972 l 413 333 q 414 265 414 311 q 413 229 414 242 l 418 229 l 428 264 q 454 333 444 314 l 740 972 l 935 972 l 486 0 l 264 0 l 157 972 z "},"W":{"ha":1250,"x_min":157,"x_max":1365,"o":"m 157 972 l 351 972 l 382 361 q 383 335 383 353 q 382 307 383 317 l 379 278 l 385 278 q 392 307 386 288 q 410 361 397 328 l 658 972 l 864 972 l 896 361 q 897 335 897 353 q 896 307 897 317 l 893 278 l 899 278 q 906 307 900 288 q 924 361 911 328 l 1171 972 l 1365 972 l 958 0 l 750 0 l 710 604 q 713 663 708 615 l 715 694 l 710 694 q 701 663 707 676 q 682 604 688 618 l 431 0 l 222 0 l 157 972 z "},"X":{"ha":778,"x_min":-21,"x_max":893,"o":"m 308 493 l 157 972 l 365 972 l 451 674 q 456 650 454 663 q 457 632 457 638 q 458 611 458 625 l 464 611 q 472 632 467 621 q 493 674 485 661 l 685 972 l 893 972 l 572 493 l 729 0 l 521 0 l 429 313 q 425 336 426 324 q 424 354 424 349 q 422 375 422 361 l 417 375 q 408 354 415 365 q 388 313 396 325 l 188 0 l -21 0 l 308 493 z "},"Y":{"ha":792,"x_min":136,"x_max":928,"o":"m 319 319 l 136 972 l 338 972 l 439 563 q 443 539 442 551 q 444 521 444 526 q 446 500 446 514 l 451 500 q 460 521 454 510 q 481 563 472 550 l 726 972 l 928 972 l 514 319 l 458 0 l 264 0 l 319 319 z "},"Ý":{"ha":792,"x_min":136,"x_max":928,"o":"m 319 319 l 136 972 l 338 972 l 439 563 q 443 539 442 551 q 444 521 444 526 q 446 500 446 514 l 451 500 q 460 521 454 510 q 481 563 472 550 l 726 972 l 928 972 l 514 319 l 458 0 l 264 0 l 319 319 m 464 1014 l 564 1222 l 751 1222 l 575 1014 l 464 1014 z "},"Ÿ":{"ha":792,"x_min":136,"x_max":928,"o":"m 319 319 l 136 972 l 338 972 l 439 563 q 443 539 442 551 q 444 521 444 526 q 446 500 446 514 l 451 500 q 460 521 454 510 q 481 563 472 550 l 726 972 l 928 972 l 514 319 l 458 0 l 264 0 l 319 319 m 410 1069 q 351 1093 375 1069 q 328 1151 328 1117 q 365 1229 328 1194 q 444 1264 401 1264 q 502 1240 479 1264 q 525 1183 525 1217 q 524 1167 525 1172 q 483 1099 518 1129 q 410 1069 447 1069 m 681 1069 q 622 1093 646 1069 q 599 1151 599 1117 q 635 1229 599 1194 q 715 1264 672 1264 q 773 1240 750 1264 q 796 1183 796 1217 q 794 1167 796 1172 q 753 1099 789 1129 q 681 1069 718 1069 z "},"Z":{"ha":729,"x_min":14,"x_max":810,"o":"m 14 0 l 36 132 l 565 847 l 163 847 l 185 972 l 810 972 l 786 840 l 257 125 l 667 125 l 646 0 l 14 0 z "},"Ź":{"ha":729,"x_min":14,"x_max":810,"o":"m 14 0 l 36 132 l 565 847 l 163 847 l 185 972 l 810 972 l 786 840 l 257 125 l 667 125 l 646 0 l 14 0 m 425 1042 l 525 1250 l 713 1250 l 536 1042 l 425 1042 z "},"Ž":{"ha":729,"x_min":14,"x_max":810,"o":"m 14 0 l 36 132 l 565 847 l 163 847 l 185 972 l 810 972 l 786 840 l 257 125 l 667 125 l 646 0 l 14 0 m 446 1064 l 326 1250 l 458 1250 l 532 1153 l 639 1250 l 771 1250 l 585 1064 l 446 1064 z "},"Ż":{"ha":729,"x_min":14,"x_max":810,"o":"m 14 0 l 36 132 l 565 847 l 163 847 l 185 972 l 810 972 l 786 840 l 257 125 l 667 125 l 646 0 l 14 0 m 514 1056 q 451 1081 476 1056 q 426 1143 426 1107 q 466 1226 426 1189 q 551 1264 506 1264 q 613 1239 588 1264 q 638 1178 638 1214 q 599 1093 638 1131 q 514 1056 560 1056 z "},"a":{"ha":750,"x_min":51,"x_max":707,"o":"m 275 -14 q 109 33 167 -14 q 51 160 51 79 q 56 201 51 181 q 160 365 74 306 q 407 424 247 424 l 504 424 l 508 444 q 513 489 513 469 q 485 561 513 539 q 401 583 458 583 q 290 556 340 583 q 246 528 265 543 l 232 528 l 189 639 q 260 674 226 661 q 436 708 353 708 q 637 650 567 708 q 707 494 707 592 q 703 444 707 469 l 625 0 l 486 0 l 486 83 l 479 83 q 424 35 451 53 q 275 -14 354 -14 m 332 118 q 425 160 372 118 q 465 201 443 175 l 482 299 l 385 299 q 250 201 267 299 q 249 183 249 196 q 270 136 249 154 q 332 118 292 118 z "},"á":{"ha":750,"x_min":51,"x_max":707,"o":"m 275 -14 q 109 33 167 -14 q 51 160 51 79 q 56 201 51 181 q 160 365 74 306 q 407 424 247 424 l 504 424 l 508 444 q 513 489 513 469 q 485 561 513 539 q 401 583 458 583 q 290 556 340 583 q 246 528 265 543 l 232 528 l 189 639 q 260 674 226 661 q 436 708 353 708 q 637 650 567 708 q 707 494 707 592 q 703 444 707 469 l 625 0 l 486 0 l 486 83 l 479 83 q 424 35 451 53 q 275 -14 354 -14 m 332 118 q 425 160 372 118 q 465 201 443 175 l 482 299 l 385 299 q 250 201 267 299 q 249 183 249 196 q 270 136 249 154 q 332 118 292 118 m 386 764 l 486 972 l 674 972 l 497 764 l 386 764 z "},"ă":{"ha":750,"x_min":51,"x_max":731,"o":"m 275 -14 q 109 33 167 -14 q 51 160 51 79 q 56 201 51 181 q 160 365 74 306 q 407 424 247 424 l 504 424 l 508 444 q 513 489 513 469 q 485 561 513 539 q 401 583 458 583 q 290 556 340 583 q 246 528 265 543 l 232 528 l 189 639 q 260 674 226 661 q 436 708 353 708 q 637 650 567 708 q 707 494 707 592 q 703 444 707 469 l 625 0 l 486 0 l 486 83 l 479 83 q 424 35 451 53 q 275 -14 354 -14 m 332 118 q 425 160 372 118 q 465 201 443 175 l 482 299 l 385 299 q 250 201 267 299 q 249 183 249 196 q 270 136 249 154 q 332 118 292 118 m 474 765 q 282 910 282 765 q 286 960 282 933 l 439 960 q 436 925 436 946 q 492 863 436 863 q 578 960 561 863 l 731 960 q 474 765 696 765 z "},"â":{"ha":750,"x_min":51,"x_max":707,"o":"m 275 -14 q 109 33 167 -14 q 51 160 51 79 q 56 201 51 181 q 160 365 74 306 q 407 424 247 424 l 504 424 l 508 444 q 513 489 513 469 q 485 561 513 539 q 401 583 458 583 q 290 556 340 583 q 246 528 265 543 l 232 528 l 189 639 q 260 674 226 661 q 436 708 353 708 q 637 650 567 708 q 707 494 707 592 q 703 444 707 469 l 625 0 l 486 0 l 486 83 l 479 83 q 424 35 451 53 q 275 -14 354 -14 m 332 118 q 425 160 372 118 q 465 201 443 175 l 482 299 l 385 299 q 250 201 267 299 q 249 183 249 196 q 270 136 249 154 q 332 118 292 118 m 254 778 l 440 964 l 579 964 l 699 778 l 567 778 l 494 875 l 386 778 l 254 778 z "},"ä":{"ha":750,"x_min":51,"x_max":726,"o":"m 275 -14 q 109 33 167 -14 q 51 160 51 79 q 56 201 51 181 q 160 365 74 306 q 407 424 247 424 l 504 424 l 508 444 q 513 489 513 469 q 485 561 513 539 q 401 583 458 583 q 290 556 340 583 q 246 528 265 543 l 232 528 l 189 639 q 260 674 226 661 q 436 708 353 708 q 637 650 567 708 q 707 494 707 592 q 703 444 707 469 l 625 0 l 486 0 l 486 83 l 479 83 q 424 35 451 53 q 275 -14 354 -14 m 332 118 q 425 160 372 118 q 465 201 443 175 l 482 299 l 385 299 q 250 201 267 299 q 249 183 249 196 q 270 136 249 154 q 332 118 292 118 m 340 792 q 282 815 306 792 q 258 874 258 839 q 295 951 258 917 q 375 986 332 986 q 433 963 410 986 q 456 906 456 939 q 454 889 456 894 q 413 822 449 851 q 340 792 378 792 m 611 792 q 553 815 576 792 q 529 874 529 839 q 566 951 529 917 q 646 986 603 986 q 703 963 681 986 q 726 906 726 939 q 725 889 726 894 q 684 822 719 851 q 611 792 649 792 z "},"à":{"ha":750,"x_min":51,"x_max":707,"o":"m 275 -14 q 109 33 167 -14 q 51 160 51 79 q 56 201 51 181 q 160 365 74 306 q 407 424 247 424 l 504 424 l 508 444 q 513 489 513 469 q 485 561 513 539 q 401 583 458 583 q 290 556 340 583 q 246 528 265 543 l 232 528 l 189 639 q 260 674 226 661 q 436 708 353 708 q 637 650 567 708 q 707 494 707 592 q 703 444 707 469 l 625 0 l 486 0 l 486 83 l 479 83 q 424 35 451 53 q 275 -14 354 -14 m 332 118 q 425 160 372 118 q 465 201 443 175 l 482 299 l 385 299 q 250 201 267 299 q 249 183 249 196 q 270 136 249 154 q 332 118 292 118 m 435 764 l 333 972 l 521 972 l 546 764 l 435 764 z "},"ā":{"ha":750,"x_min":51,"x_max":717,"o":"m 275 -14 q 109 33 167 -14 q 51 160 51 79 q 56 201 51 181 q 160 365 74 306 q 407 424 247 424 l 504 424 l 508 444 q 513 489 513 469 q 485 561 513 539 q 401 583 458 583 q 290 556 340 583 q 246 528 265 543 l 232 528 l 189 639 q 260 674 226 661 q 436 708 353 708 q 637 650 567 708 q 707 494 707 592 q 703 444 707 469 l 625 0 l 486 0 l 486 83 l 479 83 q 424 35 451 53 q 275 -14 354 -14 m 332 118 q 425 160 372 118 q 465 201 443 175 l 482 299 l 385 299 q 250 201 267 299 q 249 183 249 196 q 270 136 249 154 q 332 118 292 118 m 292 792 l 314 917 l 717 917 l 694 792 l 292 792 z "},"ą":{"ha":736,"x_min":51,"x_max":707,"o":"m 436 708 q 637 650 567 708 q 707 494 707 592 q 703 444 707 469 l 625 0 l 632 0 q 576 -32 607 -12 q 514 -119 514 -78 q 526 -149 514 -137 q 561 -160 539 -160 q 598 -153 581 -160 q 626 -139 615 -146 q 638 -129 636 -132 l 650 -129 l 633 -222 q 601 -240 614 -236 q 517 -257 565 -257 q 385 -162 385 -257 q 388 -132 385 -143 q 442 -37 394 -85 q 488 0 463 -17 l 486 0 l 486 83 l 479 83 q 424 35 451 53 q 275 -14 354 -14 q 109 33 167 -14 q 51 160 51 79 q 56 201 51 181 q 160 365 74 306 q 407 424 247 424 l 504 424 l 508 444 q 513 489 513 469 q 485 561 513 539 q 401 583 458 583 q 290 556 340 583 q 246 528 265 543 l 232 528 l 189 639 q 260 674 226 661 q 436 708 353 708 m 482 299 l 385 299 q 250 201 267 299 q 249 183 249 196 q 270 136 249 154 q 332 118 292 118 q 425 160 372 118 q 465 201 443 175 l 482 299 z "},"å":{"ha":753,"x_min":51,"x_max":707,"o":"m 275 -14 q 109 33 167 -14 q 51 160 51 79 q 56 201 51 181 q 160 365 74 306 q 407 424 247 424 l 504 424 l 508 444 q 513 489 513 469 q 485 561 513 539 q 401 583 458 583 q 290 556 340 583 q 246 528 265 543 l 232 528 l 189 639 q 260 674 226 661 q 436 708 353 708 q 637 650 567 708 q 707 494 707 592 q 703 444 707 469 l 625 0 l 486 0 l 486 83 l 479 83 q 424 35 451 53 q 275 -14 354 -14 m 332 118 q 425 160 372 118 q 465 201 443 175 l 482 299 l 385 299 q 250 201 267 299 q 249 183 249 196 q 270 136 249 154 q 332 118 292 118 m 475 771 q 380 803 415 771 q 344 889 344 836 q 398 1012 344 961 q 526 1063 451 1063 q 620 1030 585 1063 q 656 944 656 997 q 631 858 656 897 q 565 794 607 818 q 475 771 524 771 m 490 861 q 528 876 511 861 q 549 917 544 892 q 550 931 550 922 q 539 961 550 950 q 510 972 528 972 q 473 957 489 972 q 451 917 457 942 q 450 904 450 913 q 461 872 450 883 q 490 861 472 861 z "},"ã":{"ha":750,"x_min":51,"x_max":710,"o":"m 275 -14 q 109 33 167 -14 q 51 160 51 79 q 56 201 51 181 q 160 365 74 306 q 407 424 247 424 l 504 424 l 508 444 q 513 489 513 469 q 485 561 513 539 q 401 583 458 583 q 290 556 340 583 q 246 528 265 543 l 232 528 l 189 639 q 260 674 226 661 q 436 708 353 708 q 637 650 567 708 q 707 494 707 592 q 703 444 707 469 l 625 0 l 486 0 l 486 83 l 479 83 q 424 35 451 53 q 275 -14 354 -14 m 332 118 q 425 160 372 118 q 465 201 443 175 l 482 299 l 385 299 q 250 201 267 299 q 249 183 249 196 q 270 136 249 154 q 332 118 292 118 m 710 925 q 650 828 696 871 q 554 786 604 786 q 506 796 525 786 q 465 822 486 806 q 438 842 449 836 q 413 849 426 849 q 383 836 397 849 q 359 810 368 824 q 347 793 350 797 l 335 793 l 264 835 q 323 932 278 890 q 419 974 368 974 q 466 965 447 974 q 508 938 485 956 q 536 917 525 924 q 563 911 547 911 q 593 923 578 911 q 619 950 608 935 q 628 967 629 965 l 640 967 l 710 925 z "},"æ":{"ha":1132,"x_min":51,"x_max":1113,"o":"m 275 -14 q 109 33 167 -14 q 51 160 51 79 q 56 201 51 181 q 160 365 74 306 q 407 424 247 424 l 504 424 l 508 444 q 513 489 513 469 q 485 561 513 539 q 401 583 458 583 q 290 556 340 583 q 246 528 265 543 l 232 528 l 189 639 q 260 674 226 661 q 436 708 353 708 q 565 685 517 708 q 644 625 613 663 q 860 708 739 708 q 1047 644 981 708 q 1113 457 1113 581 q 1104 361 1113 414 l 1099 326 l 1050 285 l 675 285 q 669 235 669 249 q 811 111 669 111 q 922 139 872 111 q 967 167 947 151 l 981 167 l 1024 56 q 951 21 982 32 q 775 -14 865 -14 q 626 15 685 -14 q 535 86 567 44 q 275 -14 425 -14 m 919 410 q 925 464 925 436 q 900 552 925 521 q 839 583 875 583 q 753 538 793 583 q 697 410 713 493 l 919 410 m 332 118 q 425 160 372 118 q 465 201 443 175 l 482 299 l 385 299 q 250 201 267 299 q 249 183 249 196 q 270 136 249 154 q 332 118 292 118 z "},"b":{"ha":778,"x_min":63,"x_max":758,"o":"m 407 -14 q 275 35 324 -14 q 236 83 251 54 l 229 83 l 201 0 l 63 0 l 224 917 l 289 972 l 428 972 l 374 667 l 415 688 q 519 708 472 708 q 695 643 632 708 q 758 450 758 578 q 749 347 758 413 q 624 78 717 171 q 407 -14 532 -14 m 394 118 q 490 172 446 118 q 554 347 533 226 q 565 450 565 411 q 464 583 565 583 q 385 563 429 583 q 351 542 367 553 l 292 201 q 314 160 297 181 q 394 118 347 118 z "},"c":{"ha":660,"x_min":72,"x_max":696,"o":"m 358 -14 q 72 242 72 -14 q 82 347 72 294 q 213 618 114 528 q 471 708 311 708 q 635 674 554 708 q 696 639 661 663 l 614 528 l 600 528 q 565 556 586 542 q 464 583 525 583 q 346 530 392 583 q 276 347 300 476 q 267 249 267 294 q 299 143 267 175 q 394 111 331 111 q 506 139 456 111 q 550 167 531 151 l 564 167 l 607 56 q 535 21 565 32 q 358 -14 449 -14 z "},"ć":{"ha":660,"x_min":72,"x_max":696,"o":"m 358 -14 q 72 242 72 -14 q 82 347 72 294 q 213 618 114 528 q 471 708 311 708 q 635 674 554 708 q 696 639 661 663 l 614 528 l 600 528 q 565 556 586 542 q 464 583 525 583 q 346 530 392 583 q 276 347 300 476 q 267 249 267 294 q 299 143 267 175 q 394 111 331 111 q 506 139 456 111 q 550 167 531 151 l 564 167 l 607 56 q 535 21 565 32 q 358 -14 449 -14 m 386 764 l 486 972 l 674 972 l 497 764 l 386 764 z "},"č":{"ha":660,"x_min":72,"x_max":719,"o":"m 358 -14 q 72 242 72 -14 q 82 347 72 294 q 213 618 114 528 q 471 708 311 708 q 635 674 554 708 q 696 639 661 663 l 614 528 l 600 528 q 565 556 586 542 q 464 583 525 583 q 346 530 392 583 q 276 347 300 476 q 267 249 267 294 q 299 143 267 175 q 394 111 331 111 q 506 139 456 111 q 550 167 531 151 l 564 167 l 607 56 q 535 21 565 32 q 358 -14 449 -14 m 394 786 l 275 972 l 407 972 l 481 875 l 588 972 l 719 972 l 533 786 l 394 786 z "},"ç":{"ha":660,"x_min":72,"x_max":696,"o":"m 464 583 q 346 530 392 583 q 276 347 300 476 q 267 249 267 294 q 299 143 267 175 q 394 111 331 111 q 506 139 456 111 q 550 167 531 151 l 564 167 l 607 56 q 535 21 565 32 q 368 -14 450 -12 l 364 -35 q 446 -63 415 -35 q 476 -133 476 -92 q 428 -230 476 -189 q 301 -271 379 -271 q 219 -257 261 -271 q 190 -243 200 -250 l 229 -174 l 242 -174 q 251 -180 243 -175 q 272 -190 258 -185 q 301 -194 286 -194 q 339 -183 324 -194 q 357 -153 354 -172 q 349 -122 361 -133 q 315 -111 338 -111 l 246 -111 l 265 -6 q 72 242 72 32 q 82 347 72 294 q 213 618 114 528 q 471 708 311 708 q 635 674 554 708 q 696 639 661 663 l 614 528 l 600 528 q 565 556 586 542 q 464 583 525 583 z "},"d":{"ha":778,"x_min":71,"x_max":817,"o":"m 296 -14 q 132 51 193 -14 q 71 239 71 115 q 82 347 71 283 q 208 617 114 525 q 436 708 301 708 q 533 688 486 708 q 568 667 558 674 l 613 917 l 678 972 l 817 972 l 646 0 l 507 0 l 507 83 l 500 83 q 444 35 472 53 q 296 -14 375 -14 m 353 118 q 449 160 401 118 q 486 201 469 179 l 546 542 q 521 563 535 551 q 450 583 485 583 q 344 529 388 583 q 276 347 300 475 q 267 249 267 294 q 353 118 267 118 z "},"ð":{"ha":757,"x_min":60,"x_max":746,"o":"m 331 -14 q 130 49 200 -14 q 60 231 60 113 q 68 313 60 269 q 190 552 96 465 q 411 639 283 639 q 517 616 471 639 q 590 556 564 593 q 596 617 596 585 q 535 763 596 707 l 488 681 l 378 729 l 429 817 l 389 828 l 294 847 l 343 965 l 429 944 q 494 926 472 935 l 546 1014 l 656 965 l 603 876 q 711 763 676 832 q 746 594 746 694 q 732 451 746 539 l 707 313 q 581 71 679 156 q 331 -14 482 -14 m 353 111 q 451 160 410 111 q 513 313 493 208 q 519 383 519 346 q 493 476 519 446 q 422 507 467 507 q 324 460 365 507 q 263 313 282 413 q 256 238 256 278 q 282 142 256 174 q 353 111 308 111 z "},"ď":{"ha":910,"x_min":71,"x_max":1018,"o":"m 296 -14 q 132 51 193 -14 q 71 239 71 115 q 82 347 71 283 q 208 617 114 525 q 436 708 301 708 q 533 688 486 708 q 568 667 558 674 l 613 917 l 678 972 l 817 972 l 646 0 l 507 0 l 507 83 l 500 83 q 444 35 472 53 q 296 -14 375 -14 m 833 715 q 874 746 854 729 q 922 819 917 789 q 881 838 899 819 q 864 883 864 856 q 865 896 864 892 q 897 950 872 928 q 949 972 922 972 q 999 953 981 972 q 1018 903 1018 935 q 1017 883 1018 890 q 932 722 997 790 q 868 672 903 690 l 833 715 m 353 118 q 449 160 401 118 q 486 201 469 179 l 546 542 q 521 563 535 551 q 450 583 485 583 q 344 529 388 583 q 276 347 300 475 q 267 249 267 294 q 353 118 267 118 z "},"đ":{"ha":778,"x_min":69,"x_max":871,"o":"m 296 -14 q 131 50 192 -14 q 69 233 69 114 q 78 326 69 276 q 201 578 106 489 q 429 667 296 667 q 526 646 479 667 q 561 625 551 632 l 578 722 l 446 722 l 468 847 l 600 847 l 613 917 l 678 972 l 817 972 l 794 847 l 871 847 l 849 722 l 772 722 l 646 0 l 507 0 l 507 83 l 500 83 q 444 35 472 53 q 296 -14 375 -14 m 353 118 q 449 160 401 118 q 486 201 469 179 l 539 500 q 514 521 529 510 q 442 542 478 542 q 272 326 310 542 q 264 244 264 281 q 288 149 264 179 q 353 118 313 118 z "},"e":{"ha":722,"x_min":72,"x_max":703,"o":"m 365 -14 q 72 243 72 -14 q 82 347 72 294 q 210 617 114 526 q 450 708 306 708 q 637 644 571 708 q 703 457 703 581 q 694 361 703 414 l 689 326 l 640 285 l 265 285 q 260 235 260 249 q 401 111 260 111 q 513 139 463 111 q 557 167 538 151 l 571 167 l 614 56 q 542 21 572 32 q 365 -14 456 -14 m 510 410 q 515 464 515 436 q 490 552 515 521 q 429 583 465 583 q 343 538 383 583 q 288 410 303 493 l 510 410 z "},"é":{"ha":722,"x_min":72,"x_max":703,"o":"m 365 -14 q 72 243 72 -14 q 82 347 72 294 q 210 617 114 526 q 450 708 306 708 q 637 644 571 708 q 703 457 703 581 q 694 361 703 414 l 689 326 l 640 285 l 265 285 q 260 235 260 249 q 401 111 260 111 q 513 139 463 111 q 557 167 538 151 l 571 167 l 614 56 q 542 21 572 32 q 365 -14 456 -14 m 510 410 q 515 464 515 436 q 490 552 515 521 q 429 583 465 583 q 343 538 383 583 q 288 410 303 493 l 510 410 m 390 764 l 490 972 l 678 972 l 501 764 l 390 764 z "},"ě":{"ha":722,"x_min":72,"x_max":722,"o":"m 365 -14 q 72 243 72 -14 q 82 347 72 294 q 210 617 114 526 q 450 708 306 708 q 637 644 571 708 q 703 457 703 581 q 694 361 703 414 l 689 326 l 640 285 l 265 285 q 260 235 260 249 q 401 111 260 111 q 513 139 463 111 q 557 167 538 151 l 571 167 l 614 56 q 542 21 572 32 q 365 -14 456 -14 m 510 410 q 515 464 515 436 q 490 552 515 521 q 429 583 465 583 q 343 538 383 583 q 288 410 303 493 l 510 410 m 397 786 l 278 972 l 410 972 l 483 875 l 590 972 l 722 972 l 536 786 l 397 786 z "},"ê":{"ha":722,"x_min":72,"x_max":703,"o":"m 365 -14 q 72 243 72 -14 q 82 347 72 294 q 210 617 114 526 q 450 708 306 708 q 637 644 571 708 q 703 457 703 581 q 694 361 703 414 l 689 326 l 640 285 l 265 285 q 260 235 260 249 q 401 111 260 111 q 513 139 463 111 q 557 167 538 151 l 571 167 l 614 56 q 542 21 572 32 q 365 -14 456 -14 m 510 410 q 515 464 515 436 q 490 552 515 521 q 429 583 465 583 q 343 538 383 583 q 288 410 303 493 l 510 410 m 243 778 l 429 964 l 568 964 l 688 778 l 556 778 l 483 875 l 375 778 l 243 778 z "},"ë":{"ha":722,"x_min":72,"x_max":715,"o":"m 365 -14 q 72 243 72 -14 q 82 347 72 294 q 210 617 114 526 q 450 708 306 708 q 637 644 571 708 q 703 457 703 581 q 694 361 703 414 l 689 326 l 640 285 l 265 285 q 260 235 260 249 q 401 111 260 111 q 513 139 463 111 q 557 167 538 151 l 571 167 l 614 56 q 542 21 572 32 q 365 -14 456 -14 m 510 410 q 515 464 515 436 q 490 552 515 521 q 429 583 465 583 q 343 538 383 583 q 288 410 303 493 l 510 410 m 329 792 q 271 815 294 792 q 247 874 247 839 q 284 951 247 917 q 364 986 321 986 q 422 963 399 986 q 444 906 444 939 q 443 889 444 894 q 402 822 438 851 q 329 792 367 792 m 600 792 q 542 815 565 792 q 518 874 518 839 q 555 951 518 917 q 635 986 592 986 q 692 963 669 986 q 715 906 715 939 q 714 889 715 894 q 673 822 708 851 q 600 792 638 792 z "},"ė":{"ha":722,"x_min":72,"x_max":703,"o":"m 365 -14 q 72 243 72 -14 q 82 347 72 294 q 210 617 114 526 q 450 708 306 708 q 637 644 571 708 q 703 457 703 581 q 694 361 703 414 l 689 326 l 640 285 l 265 285 q 260 235 260 249 q 401 111 260 111 q 513 139 463 111 q 557 167 538 151 l 571 167 l 614 56 q 542 21 572 32 q 365 -14 456 -14 m 510 410 q 515 464 515 436 q 490 552 515 521 q 429 583 465 583 q 343 538 383 583 q 288 410 303 493 l 510 410 m 465 778 q 403 803 428 778 q 378 865 378 829 q 417 949 378 911 q 503 986 457 986 q 564 961 539 986 q 589 900 589 936 q 550 815 589 853 q 465 778 511 778 z "},"è":{"ha":722,"x_min":72,"x_max":703,"o":"m 365 -14 q 72 243 72 -14 q 82 347 72 294 q 210 617 114 526 q 450 708 306 708 q 637 644 571 708 q 703 457 703 581 q 694 361 703 414 l 689 326 l 640 285 l 265 285 q 260 235 260 249 q 401 111 260 111 q 513 139 463 111 q 557 167 538 151 l 571 167 l 614 56 q 542 21 572 32 q 365 -14 456 -14 m 510 410 q 515 464 515 436 q 490 552 515 521 q 429 583 465 583 q 343 538 383 583 q 288 410 303 493 l 510 410 m 425 764 l 324 972 l 511 972 l 536 764 l 425 764 z "},"ē":{"ha":722,"x_min":72,"x_max":706,"o":"m 365 -14 q 72 243 72 -14 q 82 347 72 294 q 210 617 114 526 q 450 708 306 708 q 637 644 571 708 q 703 457 703 581 q 694 361 703 414 l 689 326 l 640 285 l 265 285 q 260 235 260 249 q 401 111 260 111 q 513 139 463 111 q 557 167 538 151 l 571 167 l 614 56 q 542 21 572 32 q 365 -14 456 -14 m 510 410 q 515 464 515 436 q 490 552 515 521 q 429 583 465 583 q 343 538 383 583 q 288 410 303 493 l 510 410 m 281 792 l 303 917 l 706 917 l 683 792 l 281 792 z "},"ę":{"ha":722,"x_min":72,"x_max":703,"o":"m 450 708 q 637 644 571 708 q 703 457 703 581 q 694 361 703 414 l 689 326 l 640 285 l 265 285 q 260 235 260 249 q 401 111 260 111 q 513 139 463 111 q 557 167 538 151 l 571 167 l 614 56 q 542 21 572 32 q 415 -11 483 -4 l 382 -32 q 319 -119 319 -78 q 332 -149 319 -137 q 367 -160 344 -160 q 403 -153 386 -160 q 431 -139 421 -146 q 443 -129 442 -132 l 456 -129 l 439 -222 q 407 -240 419 -236 q 322 -257 371 -257 q 190 -162 190 -257 q 193 -132 190 -143 q 247 -37 200 -85 q 282 -8 265 -19 q 72 243 72 25 q 82 347 72 294 q 210 617 114 526 q 450 708 306 708 m 510 410 q 515 464 515 436 q 490 552 515 521 q 429 583 465 583 q 343 538 383 583 q 288 410 303 493 l 510 410 z "},"f":{"ha":507,"x_min":69,"x_max":710,"o":"m 169 569 l 93 569 l 115 694 l 192 694 l 201 750 q 303 922 219 857 q 514 986 386 986 q 653 951 581 986 q 710 917 674 942 l 628 806 l 614 806 q 583 833 594 825 q 506 861 546 861 q 437 831 468 861 q 396 750 406 801 l 386 694 l 560 694 l 538 569 l 364 569 l 264 0 l 69 0 l 169 569 z "},"g":{"ha":778,"x_min":36,"x_max":768,"o":"m 267 -292 q 97 -257 172 -292 q 36 -222 71 -246 l 118 -111 l 132 -111 q 167 -139 150 -129 q 275 -167 210 -167 q 389 -127 343 -167 q 449 -14 435 -87 l 456 28 q 414 7 438 15 q 310 -14 364 -14 q 135 51 197 -14 q 72 240 72 115 q 82 347 72 293 q 204 616 111 524 q 422 708 297 708 q 554 660 497 708 q 593 611 582 632 l 600 611 l 629 694 l 768 694 l 643 -14 q 578 -157 628 -94 q 448 -256 528 -219 q 267 -292 368 -292 m 367 111 q 446 132 407 111 q 478 153 464 142 l 538 493 q 515 535 532 514 q 435 576 482 576 q 340 522 382 576 q 276 347 297 468 q 265 244 265 283 q 367 111 265 111 z "},"ğ":{"ha":819,"x_min":36,"x_max":785,"o":"m 267 -292 q 97 -257 172 -292 q 36 -222 71 -246 l 118 -111 l 132 -111 q 167 -139 150 -129 q 275 -167 210 -167 q 389 -127 343 -167 q 449 -14 435 -87 l 456 28 q 414 7 438 15 q 310 -14 364 -14 q 135 51 197 -14 q 72 240 72 115 q 82 347 72 293 q 204 616 111 524 q 422 708 297 708 q 554 660 497 708 q 593 611 582 632 l 600 611 l 629 694 l 768 694 l 643 -14 q 578 -157 628 -94 q 448 -256 528 -219 q 267 -292 368 -292 m 367 111 q 446 132 407 111 q 478 153 464 142 l 538 493 q 515 535 532 514 q 435 576 482 576 q 340 522 382 576 q 276 347 297 468 q 265 244 265 283 q 367 111 265 111 m 528 778 q 336 922 336 778 q 340 972 336 946 l 493 972 q 490 938 490 958 q 546 875 490 875 q 632 972 615 875 l 785 972 q 528 778 750 778 z "},"ģ":{"ha":778,"x_min":36,"x_max":768,"o":"m 631 1064 q 588 1031 604 1047 q 535 951 540 988 q 596 931 574 951 q 618 881 618 911 l 617 868 q 581 804 610 831 q 518 778 551 778 q 458 799 479 778 q 436 857 436 819 q 439 882 436 865 q 529 1057 458 986 q 599 1111 560 1089 l 631 1064 m 267 -292 q 97 -257 172 -292 q 36 -222 71 -246 l 118 -111 l 132 -111 q 167 -139 150 -129 q 275 -167 210 -167 q 389 -127 343 -167 q 449 -14 435 -87 l 456 28 q 414 7 438 15 q 310 -14 364 -14 q 135 51 197 -14 q 72 240 72 115 q 82 347 72 293 q 204 616 111 524 q 422 708 297 708 q 554 660 497 708 q 593 611 582 632 l 600 611 l 629 694 l 768 694 l 643 -14 q 578 -157 628 -94 q 448 -256 528 -219 q 267 -292 368 -292 m 367 111 q 446 132 407 111 q 478 153 464 142 l 538 493 q 515 535 532 514 q 435 576 482 576 q 340 522 382 576 q 276 347 297 468 q 265 244 265 283 q 367 111 265 111 z "},"h":{"ha":799,"x_min":63,"x_max":757,"o":"m 224 917 l 289 972 l 428 972 l 369 646 q 415 676 388 660 q 533 708 476 708 q 699 657 642 708 q 757 510 757 606 q 751 444 757 474 l 674 0 l 479 0 l 557 444 q 561 485 561 468 q 539 553 561 531 q 476 576 517 576 q 381 535 428 576 q 343 493 360 517 l 257 0 l 63 0 l 224 917 z "},"ħ":{"ha":799,"x_min":69,"x_max":750,"o":"m 192 694 l 115 694 l 138 819 l 214 819 l 231 917 l 296 972 l 435 972 l 408 819 l 582 819 l 560 694 l 386 694 l 363 563 q 408 593 381 576 q 526 625 469 625 q 692 574 635 625 q 750 429 750 524 q 743 361 750 400 l 681 0 l 486 0 l 549 361 q 553 403 553 385 q 531 470 553 447 q 468 493 508 493 q 374 451 421 493 q 336 410 353 433 l 264 0 l 69 0 l 192 694 z "},"i":{"ha":389,"x_min":63,"x_max":421,"o":"m 297 785 q 235 810 260 785 q 210 872 210 836 q 249 956 210 919 q 335 993 288 993 q 397 968 372 993 q 421 906 421 943 q 382 822 421 860 q 297 785 343 785 m 63 0 l 185 694 l 379 694 l 257 0 l 63 0 z "},"ı":{"ha":389,"x_min":63,"x_max":379,"o":"m 63 0 l 185 694 l 379 694 l 257 0 l 63 0 z "},"í":{"ha":392,"x_min":63,"x_max":507,"o":"m 219 764 l 319 972 l 507 972 l 331 764 l 219 764 m 63 0 l 185 694 l 379 694 l 257 0 l 63 0 z "},"î":{"ha":403,"x_min":69,"x_max":525,"o":"m 81 778 l 267 964 l 406 964 l 525 778 l 393 778 l 321 875 l 213 778 l 81 778 m 69 0 l 192 694 l 386 694 l 264 0 l 69 0 z "},"ï":{"ha":417,"x_min":76,"x_max":560,"o":"m 174 792 q 115 815 139 792 q 92 874 92 839 q 128 951 92 917 q 208 986 165 986 q 266 963 243 986 q 289 906 289 939 q 288 889 289 894 q 247 822 282 851 q 174 792 211 792 m 444 792 q 386 815 410 792 q 363 874 363 839 q 399 951 363 917 q 479 986 436 986 q 537 963 514 986 q 560 906 560 939 q 558 889 560 894 q 517 822 553 851 q 444 792 482 792 m 76 0 l 199 694 l 393 694 l 271 0 l 76 0 z "},"ì":{"ha":393,"x_min":67,"x_max":383,"o":"m 258 764 l 157 972 l 344 972 l 369 764 l 258 764 m 67 0 l 189 694 l 383 694 l 261 0 l 67 0 z "},"ĳ":{"ha":743,"x_min":63,"x_max":775,"o":"m 297 785 q 235 810 260 785 q 210 872 210 836 q 249 956 210 919 q 335 993 288 993 q 397 968 372 993 q 421 906 421 943 q 382 822 421 860 q 297 785 343 785 m 651 785 q 589 810 614 785 q 564 872 564 836 q 603 956 564 919 q 689 993 642 993 q 751 968 726 993 q 775 906 775 943 q 736 822 775 860 q 651 785 697 785 m 290 -278 q 186 -257 236 -278 q 146 -236 163 -249 l 215 -118 l 229 -118 q 249 -136 239 -131 q 299 -153 269 -153 q 370 -126 342 -153 q 408 -42 399 -99 l 517 569 l 357 569 l 257 0 l 63 0 l 185 694 l 733 694 l 603 -42 q 501 -213 585 -149 q 290 -278 418 -278 z "},"ī":{"ha":403,"x_min":69,"x_max":528,"o":"m 103 778 l 125 903 l 528 903 l 506 778 l 103 778 m 69 0 l 192 694 l 386 694 l 264 0 l 69 0 z "},"į":{"ha":403,"x_min":17,"x_max":421,"o":"m 297 785 q 235 810 260 785 q 210 872 210 836 q 249 956 210 919 q 335 993 288 993 q 397 968 372 993 q 421 906 421 943 q 382 822 421 860 q 297 785 343 785 m 63 0 l 185 694 l 379 694 l 257 0 l 63 0 m 149 -257 q 17 -162 17 -257 q 19 -132 17 -143 q 74 -37 26 -85 q 119 0 94 -17 l 264 0 q 208 -32 239 -12 q 146 -119 146 -78 q 158 -149 146 -137 q 193 -160 171 -160 q 230 -153 213 -160 q 258 -139 247 -146 q 269 -129 268 -132 l 282 -129 l 265 -222 q 233 -240 246 -236 q 149 -257 197 -257 z "},"ĩ":{"ha":396,"x_min":69,"x_max":542,"o":"m 542 951 q 482 855 528 897 q 386 813 436 813 q 338 822 357 813 q 297 849 318 832 q 269 869 281 863 q 244 875 258 875 q 215 863 229 875 q 191 837 200 850 q 179 819 182 824 l 167 819 l 96 861 q 155 958 110 917 q 251 1000 200 1000 q 298 991 279 1000 q 340 964 317 982 q 368 944 357 950 q 394 938 379 938 q 425 949 410 938 q 451 976 440 961 q 460 993 461 992 l 472 993 l 542 951 m 69 0 l 192 694 l 386 694 l 264 0 l 69 0 z "},"j":{"ha":417,"x_min":-179,"x_max":449,"o":"m 325 785 q 263 810 288 785 q 238 872 238 836 q 276 956 238 919 q 363 993 315 993 q 424 968 400 993 q 449 906 449 943 q 410 822 449 860 q 325 785 371 785 m -35 -278 q -139 -257 -89 -278 q -179 -236 -162 -249 l -110 -118 l -96 -118 q -76 -136 -86 -131 q -28 -153 -56 -153 q 44 -126 15 -153 q 82 -42 72 -99 l 213 694 l 407 694 l 276 -42 q 176 -212 260 -147 q -35 -278 92 -278 z "},"ĵ":{"ha":414,"x_min":-179,"x_max":535,"o":"m 90 764 l 276 950 l 415 950 l 535 764 l 403 764 l 331 861 l 222 764 l 90 764 m -35 -278 q -139 -257 -89 -278 q -179 -236 -162 -249 l -110 -118 l -96 -118 q -76 -136 -86 -131 q -28 -153 -56 -153 q 44 -126 15 -153 q 82 -42 72 -99 l 213 694 l 407 694 l 276 -42 q 176 -212 260 -147 q -35 -278 92 -278 z "},"k":{"ha":708,"x_min":63,"x_max":775,"o":"m 63 0 l 224 917 l 289 972 l 428 972 l 326 396 l 560 694 l 775 694 l 493 361 l 667 0 l 451 0 l 314 326 l 257 0 l 63 0 z "},"ķ":{"ha":708,"x_min":63,"x_max":775,"o":"m 63 0 l 224 917 l 289 972 l 428 972 l 326 396 l 560 694 l 775 694 l 493 361 l 667 0 l 451 0 l 314 326 l 257 0 l 63 0 m 228 -300 q 271 -267 254 -283 q 324 -187 318 -224 q 263 -167 285 -187 q 240 -117 240 -147 l 242 -104 q 278 -40 249 -67 q 340 -14 307 -14 q 401 -35 379 -14 q 422 -93 422 -56 q 419 -118 422 -101 q 329 -293 400 -222 q 260 -347 299 -325 l 228 -300 z "},"ĸ":{"ha":708,"x_min":63,"x_max":775,"o":"m 63 0 l 175 639 l 240 694 l 379 694 l 326 396 l 560 694 l 775 694 l 493 361 l 667 0 l 451 0 l 314 326 l 257 0 l 63 0 z "},"l":{"ha":389,"x_min":63,"x_max":428,"o":"m 63 0 l 224 917 l 289 972 l 428 972 l 257 0 l 63 0 z "},"ĺ":{"ha":392,"x_min":63,"x_max":569,"o":"m 63 0 l 224 917 l 289 972 l 428 972 l 257 0 l 63 0 m 282 1042 l 382 1250 l 569 1250 l 393 1042 l 282 1042 z "},"ľ":{"ha":569,"x_min":63,"x_max":676,"o":"m 63 0 l 224 917 l 289 972 l 428 972 l 257 0 l 63 0 m 482 686 q 525 719 508 703 q 578 799 572 763 q 516 819 539 799 q 493 869 493 839 l 494 882 q 531 946 501 919 q 594 972 561 972 q 655 951 633 972 q 676 893 676 931 q 674 868 676 885 q 583 693 654 764 q 515 639 554 661 l 482 686 z "},"ļ":{"ha":389,"x_min":26,"x_max":428,"o":"m 63 0 l 224 917 l 289 972 l 428 972 l 257 0 l 63 0 m 26 -354 q 69 -321 53 -337 q 122 -242 117 -278 q 61 -222 83 -242 q 39 -171 39 -201 l 40 -158 q 76 -94 47 -121 q 139 -68 106 -68 q 199 -89 178 -68 q 221 -147 221 -110 q 218 -172 221 -156 q 128 -347 199 -276 q 58 -401 97 -379 l 26 -354 z "},"ŀ":{"ha":576,"x_min":63,"x_max":614,"o":"m 63 0 l 224 917 l 289 972 l 428 972 l 257 0 l 63 0 m 526 590 q 589 565 564 590 q 614 503 614 539 q 575 419 614 457 q 490 382 536 382 q 428 408 453 382 q 403 469 403 433 q 442 553 403 515 q 526 590 481 590 z "},"ł":{"ha":451,"x_min":79,"x_max":522,"o":"m 97 0 l 158 347 l 79 292 l 110 472 l 190 528 l 258 917 l 324 972 l 463 972 l 411 685 l 522 764 l 492 583 l 381 504 l 292 0 l 97 0 z "},"m":{"ha":1160,"x_min":63,"x_max":1118,"o":"m 185 694 l 324 694 l 322 611 l 329 611 q 382 660 347 632 q 519 708 450 708 q 653 660 604 708 q 683 611 674 638 q 746 660 707 635 q 908 708 829 708 q 1063 657 1008 708 q 1118 510 1118 606 q 1113 444 1118 476 l 1035 0 l 840 0 l 918 444 q 922 486 922 468 q 903 553 922 531 q 851 576 883 576 q 769 542 813 576 q 735 507 757 532 l 646 0 l 451 0 l 529 444 q 533 486 533 468 q 514 553 533 531 q 463 576 494 576 q 376 535 418 576 q 343 493 357 515 l 257 0 l 63 0 l 185 694 z "},"n":{"ha":799,"x_min":63,"x_max":757,"o":"m 185 694 l 324 694 l 322 611 l 329 611 q 385 660 347 632 q 533 708 456 708 q 699 657 642 708 q 757 510 757 606 q 751 444 757 474 l 674 0 l 479 0 l 557 444 q 561 485 561 468 q 539 553 561 531 q 476 576 517 576 q 381 535 428 576 q 343 493 360 517 l 257 0 l 63 0 l 185 694 z "},"ń":{"ha":799,"x_min":63,"x_max":757,"o":"m 185 694 l 324 694 l 322 611 l 329 611 q 385 660 347 632 q 533 708 456 708 q 699 657 642 708 q 757 510 757 606 q 751 444 757 474 l 674 0 l 479 0 l 557 444 q 561 485 561 468 q 539 553 561 531 q 476 576 517 576 q 381 535 428 576 q 343 493 360 517 l 257 0 l 63 0 l 185 694 m 425 764 l 525 972 l 713 972 l 536 764 l 425 764 z "},"ň":{"ha":799,"x_min":63,"x_max":757,"o":"m 185 694 l 324 694 l 322 611 l 329 611 q 385 660 347 632 q 533 708 456 708 q 699 657 642 708 q 757 510 757 606 q 751 444 757 474 l 674 0 l 479 0 l 557 444 q 561 485 561 468 q 539 553 561 531 q 476 576 517 576 q 381 535 428 576 q 343 493 360 517 l 257 0 l 63 0 l 185 694 m 432 786 l 313 972 l 444 972 l 518 875 l 625 972 l 757 972 l 571 786 l 432 786 z "},"ņ":{"ha":799,"x_min":63,"x_max":757,"o":"m 185 694 l 324 694 l 322 611 l 329 611 q 385 660 347 632 q 533 708 456 708 q 699 657 642 708 q 757 510 757 606 q 751 444 757 474 l 674 0 l 479 0 l 557 444 q 561 485 561 468 q 539 553 561 531 q 476 576 517 576 q 381 535 428 576 q 343 493 360 517 l 257 0 l 63 0 l 185 694 m 249 -300 q 292 -267 275 -283 q 344 -187 339 -224 q 283 -167 306 -187 q 261 -117 261 -147 l 263 -104 q 299 -40 269 -67 q 361 -14 328 -14 q 422 -35 400 -14 q 443 -93 443 -56 q 440 -118 443 -101 q 350 -293 421 -222 q 281 -347 319 -325 l 249 -300 z "},"ñ":{"ha":799,"x_min":63,"x_max":757,"o":"m 185 694 l 324 694 l 322 611 l 329 611 q 385 660 347 632 q 533 708 456 708 q 699 657 642 708 q 757 510 757 606 q 751 444 757 474 l 674 0 l 479 0 l 557 444 q 561 485 561 468 q 539 553 561 531 q 476 576 517 576 q 381 535 428 576 q 343 493 360 517 l 257 0 l 63 0 l 185 694 m 750 939 q 690 842 736 885 q 594 800 644 800 q 546 810 565 800 q 506 836 526 819 q 478 856 489 850 q 453 863 467 863 q 423 850 438 863 q 399 824 408 838 q 388 807 390 811 l 375 807 l 304 849 q 363 946 318 904 q 460 988 408 988 q 506 978 488 988 q 549 951 525 969 q 576 931 565 938 q 603 925 588 925 q 633 937 618 925 q 659 964 649 949 q 668 981 669 979 l 681 981 l 750 939 z "},"o":{"ha":750,"x_min":72,"x_max":731,"o":"m 338 -14 q 140 50 208 -14 q 72 242 72 114 q 82 347 72 293 q 212 618 114 528 q 464 708 310 708 q 662 643 593 708 q 731 449 731 578 q 721 347 731 411 q 590 76 689 167 q 338 -14 492 -14 m 360 111 q 526 347 483 111 q 538 451 538 411 q 443 583 538 583 q 276 347 319 583 q 265 243 265 283 q 360 111 265 111 z "},"ó":{"ha":750,"x_min":72,"x_max":731,"o":"m 338 -14 q 140 50 208 -14 q 72 242 72 114 q 82 347 72 293 q 212 618 114 528 q 464 708 310 708 q 662 643 593 708 q 731 449 731 578 q 721 347 731 411 q 590 76 689 167 q 338 -14 492 -14 m 360 111 q 526 347 483 111 q 538 451 538 411 q 443 583 538 583 q 276 347 319 583 q 265 243 265 283 q 360 111 265 111 m 400 764 l 500 972 l 688 972 l 511 764 l 400 764 z "},"ô":{"ha":750,"x_min":72,"x_max":731,"o":"m 338 -14 q 140 50 208 -14 q 72 242 72 114 q 82 347 72 293 q 212 618 114 528 q 464 708 310 708 q 662 643 593 708 q 731 449 731 578 q 721 347 731 411 q 590 76 689 167 q 338 -14 492 -14 m 360 111 q 526 347 483 111 q 538 451 538 411 q 443 583 538 583 q 276 347 319 583 q 265 243 265 283 q 360 111 265 111 m 254 778 l 440 964 l 579 964 l 699 778 l 567 778 l 494 875 l 386 778 l 254 778 z "},"ö":{"ha":750,"x_min":72,"x_max":731,"o":"m 338 -14 q 140 50 208 -14 q 72 242 72 114 q 82 347 72 293 q 212 618 114 528 q 464 708 310 708 q 662 643 593 708 q 731 449 731 578 q 721 347 731 411 q 590 76 689 167 q 338 -14 492 -14 m 360 111 q 526 347 483 111 q 538 451 538 411 q 443 583 538 583 q 276 347 319 583 q 265 243 265 283 q 360 111 265 111 m 340 792 q 282 815 306 792 q 258 874 258 839 q 295 951 258 917 q 375 986 332 986 q 433 963 410 986 q 456 906 456 939 q 454 889 456 894 q 413 822 449 851 q 340 792 378 792 m 611 792 q 553 815 576 792 q 529 874 529 839 q 566 951 529 917 q 646 986 603 986 q 703 963 681 986 q 726 906 726 939 q 725 889 726 894 q 684 822 719 851 q 611 792 649 792 z "},"ò":{"ha":750,"x_min":72,"x_max":731,"o":"m 338 -14 q 140 50 208 -14 q 72 242 72 114 q 82 347 72 293 q 212 618 114 528 q 464 708 310 708 q 662 643 593 708 q 731 449 731 578 q 721 347 731 411 q 590 76 689 167 q 338 -14 492 -14 m 360 111 q 526 347 483 111 q 538 451 538 411 q 443 583 538 583 q 276 347 319 583 q 265 243 265 283 q 360 111 265 111 m 435 764 l 333 972 l 521 972 l 546 764 l 435 764 z "},"ő":{"ha":750,"x_min":72,"x_max":771,"o":"m 338 -14 q 140 50 208 -14 q 72 242 72 114 q 82 347 72 293 q 212 618 114 528 q 464 708 310 708 q 662 643 593 708 q 731 449 731 578 q 721 347 731 411 q 590 76 689 167 q 338 -14 492 -14 m 360 111 q 526 347 483 111 q 538 451 538 411 q 443 583 538 583 q 276 347 319 583 q 265 243 265 283 q 360 111 265 111 m 303 764 l 403 972 l 556 972 l 393 764 l 303 764 m 518 764 l 618 972 l 771 972 l 608 764 l 518 764 z "},"ō":{"ha":750,"x_min":72,"x_max":731,"o":"m 338 -14 q 140 50 208 -14 q 72 242 72 114 q 82 347 72 293 q 212 618 114 528 q 464 708 310 708 q 662 643 593 708 q 731 449 731 578 q 721 347 731 411 q 590 76 689 167 q 338 -14 492 -14 m 360 111 q 526 347 483 111 q 538 451 538 411 q 443 583 538 583 q 276 347 319 583 q 265 243 265 283 q 360 111 265 111 m 278 792 l 300 917 l 703 917 l 681 792 l 278 792 z "},"ø":{"ha":750,"x_min":21,"x_max":781,"o":"m 338 -14 q 172 24 238 -14 l 153 0 l 21 0 l 104 94 q 71 239 71 153 q 82 347 71 285 q 212 618 114 528 q 464 708 310 708 q 626 669 567 708 l 650 694 l 781 694 l 696 600 q 731 449 731 538 q 721 347 731 400 q 590 76 689 167 q 338 -14 492 -14 m 515 546 q 443 583 490 583 q 276 347 319 583 q 265 271 267 297 l 515 546 m 360 111 q 526 347 483 111 q 535 424 533 389 l 286 149 q 360 111 308 111 z "},"õ":{"ha":750,"x_min":72,"x_max":731,"o":"m 338 -14 q 140 50 208 -14 q 72 242 72 114 q 82 347 72 293 q 212 618 114 528 q 464 708 310 708 q 662 643 593 708 q 731 449 731 578 q 721 347 731 411 q 590 76 689 167 q 338 -14 492 -14 m 360 111 q 526 347 483 111 q 538 451 538 411 q 443 583 538 583 q 276 347 319 583 q 265 243 265 283 q 360 111 265 111 m 710 925 q 650 828 696 871 q 554 786 604 786 q 506 796 525 786 q 465 822 486 806 q 438 842 449 836 q 413 849 426 849 q 383 836 397 849 q 359 810 368 824 q 347 793 350 797 l 335 793 l 264 835 q 323 932 278 890 q 419 974 368 974 q 466 965 447 974 q 508 938 485 956 q 536 917 525 924 q 563 911 547 911 q 593 923 578 911 q 619 950 608 935 q 628 967 629 965 l 640 967 l 710 925 z "},"œ":{"ha":1174,"x_min":72,"x_max":1154,"o":"m 338 -14 q 140 50 208 -14 q 72 242 72 114 q 82 347 72 293 q 212 618 114 528 q 464 708 310 708 q 582 683 528 708 q 669 611 636 657 q 779 683 719 658 q 901 708 839 708 q 1088 644 1022 708 q 1154 457 1154 581 q 1146 361 1154 414 l 1140 326 l 1092 285 l 717 285 q 711 235 711 249 q 853 111 711 111 q 964 139 914 111 q 1008 167 989 151 l 1022 167 l 1065 56 q 993 21 1024 32 q 817 -14 907 -14 q 672 11 733 -14 q 576 83 610 36 q 467 10 525 35 q 338 -14 410 -14 m 360 111 q 526 347 483 111 q 538 451 538 411 q 443 583 538 583 q 276 347 319 583 q 265 243 265 283 q 360 111 265 111 m 961 410 q 967 464 967 436 q 942 552 967 521 q 881 583 917 583 q 794 538 835 583 q 739 410 754 493 l 961 410 z "},"p":{"ha":778,"x_min":13,"x_max":758,"o":"m 185 694 l 324 694 l 322 611 l 329 611 q 385 660 347 632 q 533 708 456 708 q 698 643 638 708 q 758 451 758 578 q 749 347 758 400 q 622 78 717 169 q 393 -14 528 -14 q 296 7 338 -14 q 261 28 274 17 l 217 -222 l 151 -278 l 13 -278 l 185 694 m 381 111 q 487 165 443 111 q 554 347 531 219 q 564 443 564 400 q 540 544 564 513 q 476 576 517 576 q 381 535 428 576 q 343 493 360 517 l 283 153 q 308 132 293 140 q 381 111 340 111 z "},"þ":{"ha":778,"x_min":13,"x_max":758,"o":"m 224 917 l 289 972 l 428 972 l 374 667 l 415 688 q 519 708 472 708 q 695 643 632 708 q 758 450 758 578 q 749 347 758 413 q 622 78 717 169 q 393 -14 528 -14 q 296 7 338 -14 q 261 28 274 17 l 207 -278 l 13 -278 l 224 917 m 381 111 q 487 165 443 111 q 554 347 531 219 q 565 450 565 411 q 464 583 565 583 q 385 563 429 583 q 351 542 367 553 l 283 153 q 308 132 293 140 q 381 111 340 111 z "},"q":{"ha":778,"x_min":72,"x_max":768,"o":"m 411 -222 l 456 28 q 414 7 438 15 q 310 -14 364 -14 q 135 51 197 -14 q 72 240 72 115 q 82 347 72 293 q 204 616 111 524 q 422 708 297 708 q 554 660 497 708 q 593 611 582 632 l 600 611 l 629 694 l 768 694 l 596 -278 l 457 -278 l 411 -222 m 367 111 q 446 132 407 111 q 478 153 464 142 l 538 493 q 515 535 532 514 q 435 576 482 576 q 340 522 382 576 q 276 347 297 468 q 265 244 265 283 q 367 111 265 111 z "},"r":{"ha":549,"x_min":63,"x_max":636,"o":"m 185 694 l 324 694 l 322 611 l 329 611 q 385 660 347 632 q 533 708 456 708 q 603 701 568 708 q 636 694 625 696 l 583 556 l 569 556 q 540 563 560 557 q 475 569 510 569 q 379 528 426 569 q 342 486 358 508 l 257 0 l 63 0 l 185 694 z "},"ŕ":{"ha":549,"x_min":63,"x_max":636,"o":"m 185 694 l 324 694 l 322 611 l 329 611 q 385 660 347 632 q 533 708 456 708 q 603 701 568 708 q 636 694 625 696 l 583 556 l 569 556 q 540 563 560 557 q 475 569 510 569 q 379 528 426 569 q 342 486 358 508 l 257 0 l 63 0 l 185 694 m 338 764 l 438 972 l 625 972 l 449 764 l 338 764 z "},"ř":{"ha":563,"x_min":63,"x_max":685,"o":"m 185 694 l 324 694 l 322 611 l 329 611 q 385 660 347 632 q 533 708 456 708 q 603 701 568 708 q 636 694 625 696 l 583 556 l 569 556 q 540 563 560 557 q 475 569 510 569 q 379 528 426 569 q 342 486 358 508 l 257 0 l 63 0 l 185 694 m 360 786 l 240 972 l 372 972 l 446 875 l 553 972 l 685 972 l 499 786 l 360 786 z "},"ŗ":{"ha":549,"x_min":29,"x_max":636,"o":"m 185 694 l 324 694 l 322 611 l 329 611 q 385 660 347 632 q 533 708 456 708 q 603 701 568 708 q 636 694 625 696 l 583 556 l 569 556 q 540 563 560 557 q 475 569 510 569 q 379 528 426 569 q 342 486 358 508 l 257 0 l 63 0 l 185 694 m 29 -340 q 72 -307 56 -324 q 125 -228 119 -264 q 64 -208 86 -228 q 42 -157 42 -187 l 43 -144 q 79 -81 50 -107 q 142 -54 108 -54 q 202 -75 181 -54 q 224 -133 224 -96 q 221 -158 224 -142 q 131 -333 201 -262 q 61 -387 100 -365 l 29 -340 z "},"s":{"ha":674,"x_min":17,"x_max":689,"o":"m 289 -14 q 90 21 183 -14 q 17 56 53 35 l 99 167 l 113 167 q 157 139 132 151 q 290 111 210 111 q 394 133 360 111 q 435 189 429 154 q 411 240 442 221 q 310 283 381 258 q 204 325 246 306 q 133 378 163 344 q 104 464 104 413 q 108 500 104 482 q 208 651 126 594 q 436 708 290 708 q 619 674 526 708 q 689 639 650 663 l 607 528 l 593 528 q 550 556 571 546 q 429 583 500 583 q 337 560 369 583 q 304 506 304 536 q 334 460 304 476 q 429 419 364 443 q 535 378 493 397 q 606 324 576 358 q 635 236 635 289 q 632 203 635 215 q 529 44 614 103 q 289 -14 444 -14 z "},"ś":{"ha":674,"x_min":17,"x_max":689,"o":"m 289 -14 q 90 21 183 -14 q 17 56 53 35 l 99 167 l 113 167 q 157 139 132 151 q 290 111 210 111 q 394 133 360 111 q 435 189 429 154 q 411 240 442 221 q 310 283 381 258 q 204 325 246 306 q 133 378 163 344 q 104 464 104 413 q 108 500 104 482 q 208 651 126 594 q 436 708 290 708 q 619 674 526 708 q 689 639 650 663 l 607 528 l 593 528 q 550 556 571 546 q 429 583 500 583 q 337 560 369 583 q 304 506 304 536 q 334 460 304 476 q 429 419 364 443 q 535 378 493 397 q 606 324 576 358 q 635 236 635 289 q 632 203 635 215 q 529 44 614 103 q 289 -14 444 -14 m 344 764 l 444 972 l 632 972 l 456 764 l 344 764 z "},"š":{"ha":674,"x_min":17,"x_max":692,"o":"m 289 -14 q 90 21 183 -14 q 17 56 53 35 l 99 167 l 113 167 q 157 139 132 151 q 290 111 210 111 q 394 133 360 111 q 435 189 429 154 q 411 240 442 221 q 310 283 381 258 q 204 325 246 306 q 133 378 163 344 q 104 464 104 413 q 108 500 104 482 q 208 651 126 594 q 436 708 290 708 q 619 674 526 708 q 689 639 650 663 l 607 528 l 593 528 q 550 556 571 546 q 429 583 500 583 q 337 560 369 583 q 304 506 304 536 q 334 460 304 476 q 429 419 364 443 q 535 378 493 397 q 606 324 576 358 q 635 236 635 289 q 632 203 635 215 q 529 44 614 103 q 289 -14 444 -14 m 367 786 l 247 972 l 379 972 l 453 875 l 560 972 l 692 972 l 506 786 l 367 786 z "},"ş":{"ha":674,"x_min":17,"x_max":689,"o":"m 304 506 q 334 460 304 476 q 429 419 364 443 q 535 378 493 397 q 606 324 576 358 q 635 236 635 289 q 632 203 635 215 q 543 55 615 113 q 340 -12 471 -3 l 336 -35 q 418 -63 388 -35 q 449 -133 449 -92 q 400 -230 449 -189 q 274 -271 351 -271 q 192 -257 233 -271 q 163 -243 172 -250 l 201 -174 l 214 -174 q 223 -180 215 -175 q 244 -190 231 -185 q 274 -194 258 -194 q 311 -183 296 -194 q 329 -153 326 -172 q 322 -122 333 -133 q 288 -111 310 -111 l 218 -111 l 236 -11 q 90 21 163 -6 q 17 56 53 35 l 99 167 l 113 167 q 157 139 132 151 q 290 111 210 111 q 394 133 360 111 q 435 189 429 154 q 411 240 442 221 q 310 283 381 258 q 204 325 246 306 q 133 378 163 344 q 104 464 104 413 q 108 500 104 482 q 208 651 126 594 q 436 708 290 708 q 619 674 526 708 q 689 639 650 663 l 607 528 l 593 528 q 550 556 571 546 q 429 583 500 583 q 337 560 369 583 q 304 506 304 536 z "},"ș":{"ha":660,"x_min":17,"x_max":689,"o":"m 289 -14 q 90 21 183 -14 q 17 56 53 35 l 99 167 l 113 167 q 157 139 132 151 q 290 111 210 111 q 394 133 360 111 q 435 189 429 154 q 411 240 442 221 q 310 283 381 258 q 204 325 246 306 q 133 378 163 344 q 104 464 104 413 q 108 500 104 482 q 208 651 126 594 q 436 708 290 708 q 619 674 526 708 q 689 639 650 663 l 607 528 l 593 528 q 550 556 571 546 q 429 583 500 583 q 337 560 369 583 q 304 506 304 536 q 334 460 304 476 q 429 419 364 443 q 535 378 493 397 q 606 324 576 358 q 635 236 635 289 q 632 203 635 215 q 529 44 614 103 q 289 -14 444 -14 m 174 -347 q 217 -314 200 -331 q 269 -235 264 -271 q 208 -215 231 -235 q 186 -164 186 -194 l 188 -151 q 224 -87 194 -114 q 286 -61 253 -61 q 347 -82 325 -61 q 368 -140 368 -103 q 365 -165 368 -149 q 275 -340 346 -269 q 206 -394 244 -372 l 174 -347 z "},"ß":{"ha":861,"x_min":69,"x_max":843,"o":"m 497 -14 q 381 7 433 -14 q 338 28 357 15 l 407 146 l 421 146 q 442 128 431 133 q 506 111 468 111 q 644 236 624 111 q 647 257 647 250 q 628 316 647 292 q 565 379 608 340 q 488 457 514 421 q 461 547 461 493 q 474 618 461 589 q 511 689 486 647 q 553 778 546 739 q 554 797 554 785 q 537 843 554 825 q 492 861 519 861 q 432 835 458 861 q 397 764 406 810 l 264 0 l 69 0 l 169 569 l 93 569 l 115 694 l 192 694 l 203 764 q 256 874 214 824 q 362 956 297 925 q 500 986 426 986 q 636 961 579 986 q 722 895 693 936 q 750 806 750 854 q 735 737 750 765 q 692 671 721 708 q 655 617 667 639 q 643 568 643 594 q 664 514 643 538 q 726 458 685 490 q 813 374 783 413 q 843 278 843 336 q 839 236 843 260 q 728 55 818 124 q 497 -14 639 -14 z "},"t":{"ha":576,"x_min":86,"x_max":553,"o":"m 331 -14 q 169 38 228 -14 q 111 175 111 89 q 115 222 111 197 l 176 569 l 86 569 l 100 653 l 346 861 l 422 861 l 393 694 l 553 694 l 531 569 l 371 569 l 310 222 q 306 183 306 201 q 322 129 306 147 q 367 111 339 111 q 454 139 411 111 q 494 167 474 151 l 508 167 l 551 56 q 482 21 511 33 q 331 -14 399 -14 z "},"ť":{"ha":708,"x_min":86,"x_max":796,"o":"m 331 -14 q 169 38 228 -14 q 111 175 111 89 q 115 222 111 197 l 176 569 l 86 569 l 100 653 l 346 861 l 422 861 l 393 694 l 553 694 l 531 569 l 371 569 l 310 222 q 306 183 306 201 q 322 129 306 147 q 367 111 339 111 q 454 139 411 111 q 494 167 474 151 l 508 167 l 551 56 q 482 21 511 33 q 331 -14 399 -14 m 600 575 q 644 608 625 592 q 697 688 692 651 q 635 708 658 688 q 613 758 613 728 l 614 771 q 651 835 621 808 q 714 861 681 861 q 774 840 753 861 q 796 782 796 819 q 793 757 796 774 q 703 582 774 653 q 635 528 674 550 l 600 575 z "},"ț":{"ha":576,"x_min":86,"x_max":553,"o":"m 331 -14 q 169 38 228 -14 q 111 175 111 89 q 115 222 111 197 l 176 569 l 86 569 l 100 653 l 346 861 l 422 861 l 393 694 l 553 694 l 531 569 l 371 569 l 310 222 q 306 183 306 201 q 322 129 306 147 q 367 111 339 111 q 454 139 411 111 q 494 167 474 151 l 508 167 l 551 56 q 482 21 511 33 q 331 -14 399 -14 m 179 -354 q 222 -321 206 -337 q 275 -242 269 -278 q 214 -222 236 -242 q 192 -171 192 -201 l 193 -158 q 229 -94 200 -121 q 292 -68 258 -68 q 352 -89 331 -68 q 374 -147 374 -110 q 371 -172 374 -156 q 281 -347 351 -276 q 211 -401 250 -379 l 179 -354 z "},"u":{"ha":806,"x_min":100,"x_max":796,"o":"m 324 -14 q 158 38 215 -14 q 100 185 100 89 q 106 250 100 221 l 185 694 l 379 694 l 300 250 q 296 210 296 228 q 318 141 296 164 q 381 118 340 118 q 476 160 429 118 q 514 201 497 179 l 601 694 l 796 694 l 674 0 l 535 0 l 535 83 l 528 83 q 472 35 500 53 q 324 -14 403 -14 z "},"ú":{"ha":806,"x_min":100,"x_max":796,"o":"m 324 -14 q 158 38 215 -14 q 100 185 100 89 q 106 250 100 221 l 185 694 l 379 694 l 300 250 q 296 210 296 228 q 318 141 296 164 q 381 118 340 118 q 476 160 429 118 q 514 201 497 179 l 601 694 l 796 694 l 674 0 l 535 0 l 535 83 l 528 83 q 472 35 500 53 q 324 -14 403 -14 m 425 751 l 525 960 l 713 960 l 536 751 l 425 751 z "},"û":{"ha":806,"x_min":100,"x_max":796,"o":"m 324 -14 q 158 38 215 -14 q 100 185 100 89 q 106 250 100 221 l 185 694 l 379 694 l 300 250 q 296 210 296 228 q 318 141 296 164 q 381 118 340 118 q 476 160 429 118 q 514 201 497 179 l 601 694 l 796 694 l 674 0 l 535 0 l 535 83 l 528 83 q 472 35 500 53 q 324 -14 403 -14 m 282 778 l 468 964 l 607 964 l 726 778 l 594 778 l 522 875 l 414 778 l 282 778 z "},"ü":{"ha":806,"x_min":100,"x_max":796,"o":"m 324 -14 q 158 38 215 -14 q 100 185 100 89 q 106 250 100 221 l 185 694 l 379 694 l 300 250 q 296 210 296 228 q 318 141 296 164 q 381 118 340 118 q 476 160 429 118 q 514 201 497 179 l 601 694 l 796 694 l 674 0 l 535 0 l 535 83 l 528 83 q 472 35 500 53 q 324 -14 403 -14 m 368 792 q 310 815 333 792 q 286 874 286 839 q 323 951 286 917 q 403 986 360 986 q 460 963 438 986 q 483 906 483 939 q 482 889 483 894 q 441 822 476 851 q 368 792 406 792 m 639 792 q 581 815 604 792 q 557 874 557 839 q 594 951 557 917 q 674 986 631 986 q 731 963 708 986 q 754 906 754 939 q 753 889 754 894 q 712 822 747 851 q 639 792 676 792 z "},"ù":{"ha":806,"x_min":100,"x_max":796,"o":"m 324 -14 q 158 38 215 -14 q 100 185 100 89 q 106 250 100 221 l 185 694 l 379 694 l 300 250 q 296 210 296 228 q 318 141 296 164 q 381 118 340 118 q 476 160 429 118 q 514 201 497 179 l 601 694 l 796 694 l 674 0 l 535 0 l 535 83 l 528 83 q 472 35 500 53 q 324 -14 403 -14 m 474 751 l 372 960 l 560 960 l 585 751 l 474 751 z "},"ű":{"ha":806,"x_min":100,"x_max":796,"o":"m 324 -14 q 158 38 215 -14 q 100 185 100 89 q 106 250 100 221 l 185 694 l 379 694 l 300 250 q 296 210 296 228 q 318 141 296 164 q 381 118 340 118 q 476 160 429 118 q 514 201 497 179 l 601 694 l 796 694 l 674 0 l 535 0 l 535 83 l 528 83 q 472 35 500 53 q 324 -14 403 -14 m 328 751 l 428 960 l 581 960 l 418 751 l 328 751 m 543 751 l 643 960 l 796 960 l 633 751 l 543 751 z "},"ū":{"ha":806,"x_min":100,"x_max":796,"o":"m 324 -14 q 158 38 215 -14 q 100 185 100 89 q 106 250 100 221 l 185 694 l 379 694 l 300 250 q 296 210 296 228 q 318 141 296 164 q 381 118 340 118 q 476 160 429 118 q 514 201 497 179 l 601 694 l 796 694 l 674 0 l 535 0 l 535 83 l 528 83 q 472 35 500 53 q 324 -14 403 -14 m 303 779 l 325 904 l 728 904 l 706 779 l 303 779 z "},"ų":{"ha":813,"x_min":100,"x_max":796,"o":"m 610 -160 q 647 -153 629 -160 q 674 -139 664 -146 q 686 -129 685 -132 l 699 -129 l 682 -222 q 650 -240 663 -236 q 565 -257 614 -257 q 433 -162 433 -257 q 436 -132 433 -143 q 490 -37 443 -85 q 536 0 511 -17 l 535 0 l 535 83 l 528 83 q 472 35 500 53 q 324 -14 403 -14 q 158 38 215 -14 q 100 185 100 89 q 106 250 100 221 l 185 694 l 379 694 l 300 250 q 296 210 296 228 q 318 141 296 164 q 381 118 340 118 q 476 160 429 118 q 514 201 497 179 l 601 694 l 796 694 l 674 0 l 681 0 q 625 -32 656 -12 q 563 -119 563 -78 q 575 -149 563 -137 q 610 -160 588 -160 z "},"ů":{"ha":819,"x_min":100,"x_max":796,"o":"m 324 -14 q 158 38 215 -14 q 100 185 100 89 q 106 250 100 221 l 185 694 l 379 694 l 300 250 q 296 210 296 228 q 318 141 296 164 q 381 118 340 118 q 476 160 429 118 q 514 201 497 179 l 601 694 l 796 694 l 674 0 l 535 0 l 535 83 l 528 83 q 472 35 500 53 q 324 -14 403 -14 m 508 757 q 413 790 449 757 q 378 875 378 822 q 431 998 378 947 q 560 1049 485 1049 q 653 1016 618 1049 q 689 931 689 983 q 665 844 689 883 q 599 781 640 804 q 508 757 557 757 m 524 847 q 561 863 544 847 q 582 903 578 878 q 583 917 583 908 q 572 947 583 936 q 543 958 561 958 q 506 943 522 958 q 485 903 490 928 q 483 890 483 899 q 494 858 483 869 q 524 847 506 847 z "},"v":{"ha":694,"x_min":101,"x_max":768,"o":"m 101 694 l 296 694 l 344 264 q 346 240 346 257 q 344 215 346 224 l 342 188 l 347 188 q 354 215 349 194 q 372 264 360 238 l 574 694 l 768 694 l 417 0 l 208 0 l 101 694 z "},"w":{"ha":1042,"x_min":101,"x_max":1115,"o":"m 101 694 l 296 694 l 325 313 q 326 289 326 306 q 325 264 326 272 l 322 236 l 328 236 q 336 264 329 249 q 353 313 339 275 l 511 694 l 706 694 l 728 313 q 729 289 729 306 q 728 264 729 272 l 725 236 l 731 236 q 739 264 732 249 q 756 313 742 275 l 921 694 l 1115 694 l 806 0 l 611 0 l 572 410 l 571 433 l 572 458 q 574 486 572 476 l 568 486 l 560 458 q 544 410 553 432 l 361 0 l 167 0 l 101 694 z "},"x":{"ha":681,"x_min":-21,"x_max":747,"o":"m 249 354 l 108 694 l 310 694 l 375 514 q 383 475 381 493 q 383 458 386 465 l 389 458 l 394 475 q 417 514 403 496 l 546 694 l 747 694 l 485 354 l 632 0 l 431 0 l 358 188 q 350 225 353 203 q 350 243 349 233 l 344 243 q 339 225 342 232 q 317 188 336 218 l 181 0 l -21 0 l 249 354 z "},"y":{"ha":701,"x_min":-31,"x_max":775,"o":"m 114 -292 q 10 -271 60 -292 q -31 -250 -14 -262 l 39 -132 l 53 -132 q 72 -150 63 -144 q 122 -167 93 -167 q 183 -142 154 -167 q 232 -69 211 -117 l 264 0 l 208 0 l 101 694 l 296 694 l 354 243 q 356 194 357 211 l 353 167 l 358 167 q 365 194 360 174 q 382 243 368 206 l 581 694 l 775 694 l 411 -69 q 114 -292 304 -292 z "},"ý":{"ha":688,"x_min":-31,"x_max":775,"o":"m 114 -292 q 10 -271 60 -292 q -31 -250 -14 -262 l 39 -132 l 53 -132 q 72 -150 63 -144 q 122 -167 93 -167 q 183 -142 154 -167 q 232 -69 211 -117 l 264 0 l 208 0 l 101 694 l 296 694 l 354 243 q 356 194 357 211 l 353 167 l 358 167 q 365 194 360 174 q 382 243 368 206 l 581 694 l 775 694 l 411 -69 q 114 -292 304 -292 m 367 751 l 467 960 l 654 960 l 478 751 l 367 751 z "},"ÿ":{"ha":688,"x_min":-31,"x_max":775,"o":"m 114 -292 q 10 -271 60 -292 q -31 -250 -14 -262 l 39 -132 l 53 -132 q 72 -150 63 -144 q 122 -167 93 -167 q 183 -142 154 -167 q 232 -69 211 -117 l 264 0 l 208 0 l 101 694 l 296 694 l 354 243 q 356 194 357 211 l 353 167 l 358 167 q 365 194 360 174 q 382 243 368 206 l 581 694 l 775 694 l 411 -69 q 114 -292 304 -292 m 308 792 q 250 815 274 792 q 226 874 226 839 q 263 951 226 917 q 343 986 300 986 q 401 963 378 986 q 424 906 424 939 q 422 889 424 894 q 381 822 417 851 q 308 792 346 792 m 579 792 q 521 815 544 792 q 497 874 497 839 q 534 951 497 917 q 614 986 571 986 q 672 963 649 986 q 694 906 694 939 q 693 889 694 894 q 652 822 688 851 q 579 792 617 792 z "},"z":{"ha":653,"x_min":14,"x_max":685,"o":"m 14 0 l 36 132 l 440 569 l 114 569 l 136 694 l 685 694 l 661 563 l 257 125 l 590 125 l 569 0 l 14 0 z "},"ź":{"ha":653,"x_min":14,"x_max":685,"o":"m 14 0 l 36 132 l 440 569 l 114 569 l 136 694 l 685 694 l 661 563 l 257 125 l 590 125 l 569 0 l 14 0 m 331 764 l 431 972 l 618 972 l 442 764 l 331 764 z "},"ž":{"ha":653,"x_min":14,"x_max":685,"o":"m 14 0 l 36 132 l 440 569 l 114 569 l 136 694 l 685 694 l 661 563 l 257 125 l 590 125 l 569 0 l 14 0 m 353 786 l 233 972 l 365 972 l 439 875 l 546 972 l 678 972 l 492 786 l 353 786 z "},"ż":{"ha":653,"x_min":14,"x_max":685,"o":"m 14 0 l 36 132 l 440 569 l 114 569 l 136 694 l 685 694 l 661 563 l 257 125 l 590 125 l 569 0 l 14 0 m 421 778 q 358 803 383 778 q 333 865 333 829 q 373 949 333 911 q 458 986 413 986 q 519 961 494 986 q 544 900 544 936 q 506 815 544 853 q 421 778 467 778 z "},"ª":{"ha":528,"x_min":108,"x_max":590,"o":"m 251 486 q 146 518 183 486 q 108 603 108 550 q 111 632 108 613 q 184 744 124 703 q 360 785 244 785 l 415 785 l 419 806 q 421 825 421 813 q 349 882 421 882 q 315 876 331 882 q 278 861 300 871 l 243 840 l 229 840 l 194 924 q 253 954 217 938 q 396 986 331 986 q 542 950 493 986 q 590 847 590 914 q 586 806 590 829 l 532 500 l 401 500 l 401 549 l 394 549 q 357 517 382 532 q 251 486 304 486 m 319 597 q 367 614 346 597 q 389 632 378 621 l 397 681 l 342 681 q 272 639 279 681 q 319 597 264 597 z "},"º":{"ha":583,"x_min":139,"x_max":633,"o":"m 342 486 q 194 542 250 486 q 139 686 139 597 q 143 736 139 710 q 197 864 156 807 q 300 953 239 921 q 431 986 361 986 q 578 931 522 986 q 633 786 633 875 q 629 736 633 764 q 574 608 617 665 q 471 519 532 551 q 342 486 410 486 m 361 597 q 422 631 394 597 q 463 736 450 664 q 468 792 468 765 q 453 855 468 835 q 411 875 438 875 q 310 736 333 875 q 304 678 304 707 q 361 597 304 597 z "},"А":{"ha":833,"x_min":-14,"x_max":778,"o":"m -14 0 l 442 972 l 664 972 l 778 0 l 583 0 l 560 222 l 282 222 l 181 0 l -14 0 m 547 347 l 515 639 q 513 707 510 668 q 515 743 513 718 l 510 743 l 499 707 q 474 639 489 676 l 339 347 l 547 347 z "},"Б":{"ha":833,"x_min":83,"x_max":838,"o":"m 254 972 l 838 972 l 815 847 l 426 847 l 382 597 l 472 597 q 719 534 639 597 q 800 360 800 471 q 794 299 800 326 q 368 0 743 0 l 83 0 l 254 972 m 389 125 q 534 167 483 125 q 600 299 585 210 q 606 350 606 335 q 568 442 606 413 q 450 472 531 472 l 360 472 l 299 125 l 389 125 z "},"В":{"ha":847,"x_min":83,"x_max":839,"o":"m 254 972 l 546 972 q 766 918 693 972 q 839 771 839 864 q 835 722 839 747 q 718 550 814 607 q 625 514 672 524 q 722 474 682 503 q 794 319 794 419 q 790 271 794 299 q 375 0 743 0 l 83 0 l 254 972 m 475 569 q 582 608 538 569 q 638 708 626 646 q 640 739 640 731 q 609 818 640 789 q 524 847 578 847 l 426 847 l 378 569 l 475 569 m 396 125 q 599 285 569 125 q 603 325 603 306 q 453 444 603 444 l 356 444 l 299 125 l 396 125 z "},"Г":{"ha":715,"x_min":83,"x_max":838,"o":"m 83 0 l 254 972 l 838 972 l 815 847 l 426 847 l 278 0 l 83 0 z "},"Ѓ":{"ha":715,"x_min":83,"x_max":838,"o":"m 83 0 l 254 972 l 838 972 l 815 847 l 426 847 l 278 0 l 83 0 m 522 1042 l 622 1250 l 810 1250 l 633 1042 l 522 1042 z "},"Ґ":{"ha":715,"x_min":83,"x_max":864,"o":"m 83 0 l 254 972 l 685 972 l 732 1125 l 864 1125 l 815 847 l 426 847 l 278 0 l 83 0 z "},"Д":{"ha":910,"x_min":-64,"x_max":900,"o":"m -7 125 l 63 125 q 106 172 85 143 q 176 333 156 243 l 324 972 l 900 972 l 750 125 l 840 125 l 782 -208 l 636 -208 l 646 0 l 153 0 l 88 -208 l -64 -208 l -7 125 m 556 125 l 683 847 l 482 847 l 364 333 q 293 172 343 243 q 250 125 272 143 l 556 125 z "},"Е":{"ha":736,"x_min":83,"x_max":838,"o":"m 83 0 l 254 972 l 838 972 l 815 847 l 426 847 l 378 569 l 683 569 l 661 444 l 356 444 l 299 125 l 688 125 l 667 0 l 83 0 z "},"Ѐ":{"ha":736,"x_min":83,"x_max":838,"o":"m 83 0 l 254 972 l 838 972 l 815 847 l 426 847 l 378 569 l 683 569 l 661 444 l 356 444 l 299 125 l 688 125 l 667 0 l 83 0 m 532 1042 l 431 1250 l 618 1250 l 643 1042 l 532 1042 z "},"Ё":{"ha":736,"x_min":83,"x_max":843,"o":"m 83 0 l 254 972 l 838 972 l 815 847 l 426 847 l 378 569 l 683 569 l 661 444 l 356 444 l 299 125 l 688 125 l 667 0 l 83 0 m 457 1069 q 399 1093 422 1069 q 375 1151 375 1117 q 412 1229 375 1194 q 492 1264 449 1264 q 549 1240 526 1264 q 572 1183 572 1217 q 571 1167 572 1172 q 530 1099 565 1129 q 457 1069 494 1069 m 728 1069 q 669 1093 693 1069 q 646 1151 646 1117 q 683 1229 646 1194 q 763 1264 719 1264 q 820 1240 797 1264 q 843 1183 843 1217 q 842 1167 843 1172 q 801 1099 836 1129 q 728 1069 765 1069 z "},"Ж":{"ha":1250,"x_min":0,"x_max":1329,"o":"m 115 -14 q 0 7 40 -14 l 33 118 l 40 118 q 49 114 43 117 q 67 111 56 111 q 101 122 88 111 q 125 160 114 133 l 200 354 q 313 481 233 438 q 388 507 351 501 q 329 532 354 514 q 267 653 272 574 l 261 813 q 221 861 258 861 q 192 854 208 861 l 185 854 l 190 965 q 262 982 239 978 q 313 986 285 986 q 401 948 371 986 q 433 847 431 910 l 442 660 q 472 584 446 606 q 564 563 497 563 l 592 563 l 664 972 l 858 972 l 786 563 l 814 563 q 902 584 872 563 q 956 660 932 606 l 1031 847 q 1102 948 1054 910 q 1215 986 1150 986 q 1299 975 1257 986 l 1329 965 l 1296 854 l 1289 854 l 1281 857 q 1272 859 1278 857 q 1263 861 1267 861 q 1206 813 1225 861 l 1142 653 q 1038 532 1108 572 q 971 507 1007 514 q 1035 481 1006 501 q 1103 354 1097 438 l 1111 160 q 1153 111 1111 111 q 1179 118 1163 111 l 1186 118 l 1181 7 q 1126 -9 1151 -4 q 1060 -14 1100 -14 q 961 25 996 -14 q 924 125 926 64 l 915 347 q 889 416 913 394 q 813 438 865 438 l 764 438 l 688 0 l 493 0 l 569 438 l 521 438 q 440 417 469 438 q 388 347 410 396 l 299 125 q 228 24 275 63 q 115 -14 181 -14 z "},"З":{"ha":743,"x_min":-4,"x_max":757,"o":"m 268 -14 q 61 24 142 -14 q -4 63 22 40 l 79 174 l 93 174 q 135 142 107 158 q 276 111 193 111 q 432 152 379 111 q 500 278 485 193 q 504 325 504 303 q 466 415 504 385 q 349 444 428 444 l 217 444 l 239 569 l 371 569 q 497 608 449 569 q 556 715 544 646 q 560 753 560 735 q 415 861 560 861 q 275 829 344 861 q 224 799 244 814 l 210 799 l 167 910 q 244 947 199 931 q 451 986 338 986 q 681 929 604 986 q 757 776 757 872 q 753 729 757 754 q 628 551 733 617 q 528 514 582 524 q 624 472 583 503 q 696 315 696 417 q 692 264 696 292 q 564 60 669 133 q 268 -14 458 -14 z "},"И":{"ha":917,"x_min":97,"x_max":949,"o":"m 268 972 l 449 972 l 344 382 q 322 290 338 336 l 328 290 q 379 382 346 331 l 775 972 l 949 972 l 778 0 l 597 0 l 701 590 q 725 682 710 638 l 719 682 l 706 657 q 667 590 676 603 l 271 0 l 97 0 l 268 972 z "},"Й":{"ha":917,"x_min":97,"x_max":949,"o":"m 268 972 l 449 972 l 344 382 q 322 290 338 336 l 328 290 q 379 382 346 331 l 775 972 l 949 972 l 778 0 l 597 0 l 701 590 q 725 682 710 638 l 719 682 l 706 657 q 667 590 676 603 l 271 0 l 97 0 l 268 972 m 608 1042 q 415 1189 415 1042 q 419 1236 415 1211 l 572 1236 q 569 1203 569 1211 q 625 1139 569 1139 q 711 1236 696 1139 l 864 1236 q 608 1042 832 1042 z "},"Ѝ":{"ha":917,"x_min":97,"x_max":949,"o":"m 268 972 l 449 972 l 344 382 q 322 290 338 336 l 328 290 q 379 382 346 331 l 775 972 l 949 972 l 778 0 l 597 0 l 701 590 q 725 682 710 638 l 719 682 l 706 657 q 667 590 676 603 l 271 0 l 97 0 l 268 972 m 567 1042 l 465 1250 l 653 1250 l 678 1042 l 567 1042 z "},"К":{"ha":854,"x_min":83,"x_max":933,"o":"m 664 -14 q 528 125 535 -14 l 519 347 q 417 438 514 438 l 354 438 l 278 0 l 83 0 l 254 972 l 449 972 l 376 563 l 418 563 q 503 585 471 563 q 560 660 536 607 l 643 847 q 716 951 674 915 q 819 986 758 986 q 880 981 856 986 q 933 965 904 976 l 900 854 l 893 854 q 865 861 883 861 q 810 813 829 861 l 746 653 q 642 532 713 572 q 575 507 611 514 q 639 481 610 501 q 707 354 701 438 l 715 160 q 757 111 715 111 q 783 118 771 111 l 790 118 l 785 7 q 664 -14 733 -14 z "},"Ќ":{"ha":854,"x_min":83,"x_max":933,"o":"m 664 -14 q 528 125 535 -14 l 519 347 q 417 438 514 438 l 354 438 l 278 0 l 83 0 l 254 972 l 449 972 l 376 563 l 418 563 q 503 585 471 563 q 560 660 536 607 l 643 847 q 716 951 674 915 q 819 986 758 986 q 880 981 856 986 q 933 965 904 976 l 900 854 l 893 854 q 865 861 883 861 q 810 813 829 861 l 746 653 q 642 532 713 572 q 575 507 611 514 q 639 481 610 501 q 707 354 701 438 l 715 160 q 757 111 715 111 q 783 118 771 111 l 790 118 l 785 7 q 664 -14 733 -14 m 522 1042 l 622 1250 l 810 1250 l 633 1042 l 522 1042 z "},"Л":{"ha":882,"x_min":-28,"x_max":900,"o":"m 67 -14 q 1 -4 33 -14 l -28 7 l 6 118 l 19 118 l 32 114 l 54 111 q 101 137 82 111 q 136 222 121 163 l 310 972 l 900 972 l 729 0 l 535 0 l 683 847 l 475 847 l 331 222 q 67 -14 274 -14 z "},"М":{"ha":1208,"x_min":83,"x_max":1226,"o":"m 254 972 l 442 972 l 615 424 q 625 378 624 393 l 628 354 l 633 354 l 646 378 q 671 424 656 400 l 1039 972 l 1226 972 l 1056 0 l 861 0 l 950 507 l 964 568 l 972 599 l 967 599 l 951 568 q 915 507 928 524 l 681 160 l 514 160 l 401 507 q 386 568 390 544 q 381 599 383 576 l 375 599 q 374 568 375 578 q 367 507 371 525 l 278 0 l 83 0 l 254 972 z "},"Н":{"ha":917,"x_min":83,"x_max":935,"o":"m 83 0 l 254 972 l 449 972 l 375 556 l 667 556 l 740 972 l 935 972 l 764 0 l 569 0 l 644 431 l 353 431 l 278 0 l 83 0 z "},"О":{"ha":875,"x_min":103,"x_max":872,"o":"m 400 -14 q 181 67 258 -14 q 103 317 103 147 q 119 486 103 393 q 284 864 165 742 q 576 986 403 986 q 795 906 718 986 q 872 656 872 825 q 856 486 872 581 q 692 108 810 229 q 400 -14 574 -14 m 422 111 q 562 197 499 111 q 661 486 625 283 q 679 661 679 586 q 554 861 679 861 q 413 775 476 861 q 314 486 350 689 q 297 314 297 396 q 331 158 297 206 q 422 111 365 111 z "},"П":{"ha":917,"x_min":83,"x_max":935,"o":"m 83 0 l 254 972 l 935 972 l 764 0 l 569 0 l 718 847 l 426 847 l 278 0 l 83 0 z "},"Р":{"ha":826,"x_min":83,"x_max":857,"o":"m 254 972 l 532 972 q 778 913 700 972 q 857 735 857 854 q 849 646 857 694 q 716 400 819 481 q 417 319 613 319 l 333 319 l 278 0 l 83 0 l 254 972 m 439 444 q 585 491 535 444 q 654 646 635 538 q 661 717 661 690 q 624 817 661 786 q 510 847 588 847 l 426 847 l 356 444 l 439 444 z "},"С":{"ha":743,"x_min":103,"x_max":826,"o":"m 421 -14 q 103 318 103 -14 q 119 486 103 393 q 285 865 165 743 q 583 986 404 986 q 765 947 690 986 q 826 910 803 929 l 744 799 l 731 799 q 692 829 719 811 q 575 861 636 861 q 417 776 483 861 q 314 486 350 692 q 297 318 297 386 q 338 158 297 206 q 457 111 379 111 q 585 142 521 111 q 635 174 617 158 l 649 174 l 690 63 q 615 24 660 42 q 421 -14 528 -14 z "},"Т":{"ha":708,"x_min":128,"x_max":831,"o":"m 222 0 l 371 847 l 128 847 l 150 972 l 831 972 l 808 847 l 565 847 l 417 0 l 222 0 z "},"У":{"ha":799,"x_min":72,"x_max":921,"o":"m 225 -21 q 115 0 165 -21 q 72 21 89 10 l 142 139 l 156 139 q 176 121 165 126 q 233 104 203 104 q 298 127 268 104 q 344 188 328 150 l 378 257 l 321 257 l 150 972 l 351 972 l 450 507 q 457 436 457 463 l 457 403 l 463 403 q 472 436 468 425 q 499 507 482 471 l 719 972 l 921 972 l 532 188 q 406 36 483 93 q 225 -21 329 -21 z "},"Ў":{"ha":799,"x_min":72,"x_max":921,"o":"m 225 -21 q 115 0 165 -21 q 72 21 89 10 l 142 139 l 156 139 q 176 121 165 126 q 233 104 203 104 q 298 127 268 104 q 344 188 328 150 l 378 257 l 321 257 l 150 972 l 351 972 l 450 507 q 457 436 457 463 l 457 403 l 463 403 q 472 436 468 425 q 499 507 482 471 l 719 972 l 921 972 l 532 188 q 406 36 483 93 q 225 -21 329 -21 m 522 1042 q 329 1189 329 1042 q 333 1236 329 1211 l 486 1236 q 483 1203 483 1211 q 539 1139 483 1139 q 625 1236 610 1139 l 778 1236 q 522 1042 746 1042 z "},"Ф":{"ha":1097,"x_min":90,"x_max":1108,"o":"m 426 56 q 177 151 264 67 q 90 386 90 235 q 99 486 90 432 q 260 794 135 683 q 578 917 385 906 l 594 1014 l 789 1014 l 772 917 q 1020 823 932 907 q 1108 590 1108 739 q 1099 486 1108 539 q 938 179 1065 292 q 621 56 811 67 l 603 -42 l 408 -42 l 426 56 m 556 792 q 386 708 453 779 q 293 486 319 636 q 283 385 283 433 q 447 181 283 201 l 556 792 m 642 181 q 811 265 744 193 q 904 486 878 336 q 914 589 914 540 q 750 792 914 771 l 642 181 z "},"Х":{"ha":778,"x_min":-21,"x_max":893,"o":"m 308 493 l 157 972 l 365 972 l 451 674 q 456 650 454 663 q 457 632 457 638 q 458 611 458 625 l 464 611 q 472 632 467 621 q 493 674 485 661 l 685 972 l 893 972 l 572 493 l 729 0 l 521 0 l 429 313 q 425 336 426 324 q 424 354 424 349 q 422 375 422 361 l 417 375 q 408 354 415 365 q 388 313 396 325 l 188 0 l -21 0 l 308 493 z "},"Ч":{"ha":875,"x_min":144,"x_max":893,"o":"m 589 354 l 540 343 q 419 333 485 333 q 215 392 285 333 q 144 554 144 450 q 150 618 144 589 l 213 972 l 407 972 l 344 618 q 340 575 340 596 q 476 458 340 458 q 572 468 531 458 l 611 479 l 699 972 l 893 972 l 722 0 l 528 0 l 589 354 z "},"Ц":{"ha":931,"x_min":83,"x_max":921,"o":"m 657 -208 l 667 0 l 83 0 l 254 972 l 449 972 l 299 125 l 576 125 l 726 972 l 921 972 l 771 125 l 861 125 l 803 -208 l 657 -208 z "},"Ш":{"ha":1319,"x_min":83,"x_max":1338,"o":"m 83 0 l 254 972 l 449 972 l 299 125 l 549 125 l 699 972 l 893 972 l 743 125 l 993 125 l 1143 972 l 1338 972 l 1167 0 l 83 0 z "},"Щ":{"ha":1347,"x_min":83,"x_max":1338,"o":"m 1074 -208 l 1083 0 l 83 0 l 254 972 l 449 972 l 299 125 l 549 125 l 699 972 l 893 972 l 743 125 l 993 125 l 1143 972 l 1338 972 l 1188 125 l 1278 125 l 1219 -208 l 1074 -208 z "},"Џ":{"ha":917,"x_min":83,"x_max":935,"o":"m 317 -208 l 333 0 l 83 0 l 254 972 l 449 972 l 299 125 l 590 125 l 740 972 l 935 972 l 764 0 l 514 0 l 456 -208 l 317 -208 z "},"Ь":{"ha":826,"x_min":83,"x_max":806,"o":"m 254 972 l 449 972 l 388 625 l 478 625 q 806 392 806 625 q 797 313 806 354 q 667 79 771 158 q 368 0 563 0 l 83 0 l 254 972 m 389 125 q 535 169 485 125 q 603 313 585 213 q 608 374 608 342 q 572 470 608 440 q 456 500 535 500 l 365 500 l 299 125 l 389 125 z "},"Ъ":{"ha":903,"x_min":128,"x_max":882,"o":"m 308 847 l 128 847 l 150 972 l 525 972 l 464 625 l 554 625 q 882 392 882 625 q 874 313 882 354 q 760 93 849 171 q 510 3 672 15 q 464 0 479 0 l 160 0 l 308 847 m 465 125 q 611 169 561 125 q 679 313 661 213 q 685 374 685 342 q 648 470 685 440 q 532 500 611 500 l 442 500 l 375 125 l 465 125 z "},"Ы":{"ha":1188,"x_min":83,"x_max":1206,"o":"m 254 972 l 449 972 l 388 625 l 464 625 q 792 392 792 625 q 783 313 792 354 q 653 79 757 158 q 354 0 549 0 l 83 0 l 254 972 m 840 0 l 1011 972 l 1206 972 l 1035 0 l 840 0 m 375 125 q 521 169 471 125 q 589 313 571 213 q 594 374 594 342 q 558 470 594 440 q 442 500 521 500 l 365 500 l 299 125 l 375 125 z "},"Љ":{"ha":1264,"x_min":-28,"x_max":1264,"o":"m 67 -14 q 1 -4 33 -14 l -28 7 l 6 118 l 19 118 l 32 114 l 54 111 q 101 137 81 111 q 136 222 121 163 l 310 972 l 900 972 l 839 625 l 936 625 q 1264 392 1264 625 q 1256 313 1264 354 q 1125 79 1229 158 q 826 0 1021 0 l 535 0 l 683 847 l 475 847 l 331 222 q 67 -14 274 -14 m 847 125 q 993 169 943 125 q 1061 313 1043 213 q 1067 374 1067 342 q 1030 470 1067 440 q 914 500 993 500 l 817 500 l 750 125 l 847 125 z "},"Њ":{"ha":1278,"x_min":83,"x_max":1274,"o":"m 254 972 l 449 972 l 382 597 l 653 597 l 719 972 l 914 972 l 847 597 l 944 597 q 1274 367 1274 597 q 1267 299 1274 338 q 840 0 1215 0 l 549 0 l 631 472 l 360 472 l 278 0 l 83 0 l 254 972 m 861 125 q 1006 167 956 125 q 1072 299 1057 210 q 1078 350 1078 335 q 1040 442 1078 413 q 922 472 1003 472 l 825 472 l 764 125 l 861 125 z "},"Ѕ":{"ha":743,"x_min":24,"x_max":792,"o":"m 310 -14 q 92 24 174 -14 q 24 63 47 42 l 107 174 l 121 174 q 165 142 138 157 q 318 111 229 111 q 447 149 399 111 q 508 250 496 186 q 510 271 510 257 q 472 351 510 319 q 357 422 435 382 q 245 488 288 458 q 173 563 203 517 q 143 672 143 608 q 147 722 143 696 q 210 856 161 796 q 340 951 260 917 q 521 986 419 986 q 726 947 643 986 q 792 910 763 932 l 710 799 l 696 799 q 654 829 681 814 q 513 861 593 861 q 402 823 451 861 q 344 736 353 785 q 343 717 343 729 q 363 657 343 683 q 413 612 383 631 q 497 564 442 593 q 607 500 564 529 q 680 425 650 471 q 710 315 710 379 q 706 264 710 292 q 580 63 683 139 q 310 -14 476 -14 z "},"Є":{"ha":743,"x_min":103,"x_max":826,"o":"m 421 -14 q 103 318 103 -14 q 119 486 103 393 q 285 865 165 743 q 583 986 404 986 q 765 947 690 986 q 826 910 803 929 l 744 799 l 731 799 q 692 829 719 811 q 575 861 636 861 q 428 792 490 861 q 326 556 365 722 l 639 556 l 617 431 l 304 431 q 297 322 297 364 q 338 158 297 206 q 457 111 378 111 q 585 142 521 111 q 635 174 617 158 l 649 174 l 690 63 q 615 24 660 42 q 421 -14 528 -14 z "},"Э":{"ha":743,"x_min":3,"x_max":740,"o":"m 247 -14 q 65 24 143 -14 q 3 63 28 42 l 86 174 l 100 174 q 139 142 111 160 q 256 111 192 111 q 414 182 350 111 q 519 431 478 253 l 207 431 l 229 556 l 542 556 q 547 654 547 606 q 510 814 547 767 q 401 861 472 861 q 274 829 340 861 q 224 799 243 813 l 210 799 l 167 910 q 242 947 200 931 q 438 986 332 986 q 662 906 583 986 q 740 656 740 825 q 724 486 740 581 q 557 107 678 228 q 247 -14 436 -14 z "},"І":{"ha":431,"x_min":83,"x_max":449,"o":"m 83 0 l 254 972 l 449 972 l 278 0 l 83 0 z "},"Ї":{"ha":431,"x_min":83,"x_max":631,"o":"m 83 0 l 254 972 l 449 972 l 278 0 l 83 0 m 244 1069 q 186 1093 210 1069 q 163 1151 163 1117 q 199 1229 163 1194 q 279 1264 236 1264 q 337 1240 314 1264 q 360 1183 360 1217 q 358 1167 360 1172 q 317 1099 353 1129 q 244 1069 282 1069 m 515 1069 q 457 1093 481 1069 q 433 1151 433 1117 q 470 1229 433 1194 q 550 1264 507 1264 q 608 1240 585 1264 q 631 1183 631 1217 q 629 1167 631 1172 q 588 1099 624 1129 q 515 1069 553 1069 z "},"Ј":{"ha":625,"x_min":-26,"x_max":657,"o":"m 171 -14 q 31 17 100 -14 q -26 49 -7 35 l 50 167 l 64 167 q 99 139 86 147 q 179 111 136 111 q 338 264 311 111 l 463 972 l 657 972 l 532 264 q 415 61 510 136 q 171 -14 319 -14 z "},"Ћ":{"ha":931,"x_min":114,"x_max":894,"o":"m 294 847 l 114 847 l 136 972 l 747 972 l 725 847 l 489 847 l 449 618 l 497 628 q 619 639 561 639 q 824 581 754 639 q 894 419 894 524 q 888 354 894 392 l 826 0 l 632 0 l 693 354 q 697 400 697 379 q 563 514 697 514 q 465 503 518 514 l 426 493 l 340 0 l 146 0 l 294 847 z "},"Ю":{"ha":1194,"x_min":83,"x_max":1192,"o":"m 733 -14 q 524 69 599 -14 q 449 318 449 151 q 457 431 449 371 l 353 431 l 278 0 l 83 0 l 254 972 l 449 972 l 375 556 l 479 556 q 640 878 528 769 q 910 986 753 986 q 1117 905 1043 986 q 1192 657 1192 824 q 1175 486 1192 582 q 1014 108 1131 231 q 733 -14 897 -14 m 756 111 q 884 198 822 111 q 981 486 946 285 q 999 664 999 589 q 967 815 999 768 q 888 861 936 861 q 758 774 819 861 q 661 486 696 688 q 643 310 643 383 q 675 158 643 204 q 756 111 707 111 z "},"Я":{"ha":847,"x_min":0,"x_max":865,"o":"m 122 -14 q 29 -4 65 -14 q 0 7 6 4 l 33 118 l 40 118 l 49 114 q 67 111 60 111 q 100 122 88 111 q 125 160 113 132 l 181 278 q 275 385 211 343 q 329 410 301 401 q 231 450 268 421 q 158 604 158 501 q 164 665 158 636 q 294 894 190 817 q 593 972 399 972 l 865 972 l 694 0 l 500 0 l 563 361 l 500 361 q 428 340 456 361 q 381 271 401 319 l 314 125 q 234 26 288 67 q 122 -14 181 -14 m 585 486 l 649 847 l 571 847 q 426 804 476 847 q 358 667 375 761 q 353 610 353 639 q 390 516 353 546 q 507 486 428 486 l 585 486 z "},"Ђ":{"ha":931,"x_min":114,"x_max":894,"o":"m 561 -42 q 479 -28 521 -42 q 449 -14 461 -21 l 489 97 l 503 97 q 521 90 514 92 q 569 83 542 83 q 628 111 603 83 q 665 194 654 139 l 693 354 q 697 400 697 379 q 563 514 697 514 q 465 503 518 514 l 426 493 l 340 0 l 146 0 l 294 847 l 114 847 l 136 972 l 747 972 l 725 847 l 489 847 l 449 618 l 497 628 q 619 639 561 639 q 824 581 754 639 q 894 419 894 524 q 888 354 894 392 l 860 194 q 761 24 843 89 q 561 -42 679 -42 z "},"Ѣ":{"ha":883,"x_min":82,"x_max":861,"o":"m 533 625 q 781 565 701 625 q 861 388 861 506 q 854 313 861 357 q 722 79 826 158 q 424 0 617 0 l 139 0 l 269 736 l 82 736 l 104 861 l 292 861 l 318 1014 l 513 1014 l 485 861 l 729 861 l 707 736 l 463 736 l 443 625 l 533 625 m 660 313 q 665 374 665 342 q 628 470 665 440 q 511 500 590 500 l 421 500 l 356 125 l 446 125 q 592 169 542 125 q 660 313 642 213 z "},"Ѫ":{"ha":1200,"x_min":-50,"x_max":1183,"o":"m 64 -14 q 2 -10 26 -14 q -50 7 -22 -6 l -17 118 l -10 118 q 15 111 3 111 q 74 160 54 111 l 150 354 q 255 472 182 433 q 461 518 328 510 l 250 972 l 1183 972 l 800 519 q 983 476 919 513 q 1053 354 1047 440 l 1060 160 q 1101 111 1063 111 q 1129 118 1117 111 l 1136 118 l 1131 7 q 1071 -10 1099 -6 q 1008 -14 1043 -14 q 919 25 950 -14 q 888 125 889 64 l 878 347 q 847 417 872 396 q 763 438 821 438 l 714 438 l 636 0 l 442 0 l 519 438 l 471 438 q 388 416 418 438 q 336 347 357 394 l 249 125 q 177 25 225 64 q 64 -14 129 -14 m 624 507 l 629 507 l 896 847 l 475 847 l 624 507 z "},"Ѳ":{"ha":875,"x_min":103,"x_max":872,"o":"m 576 986 q 795 906 718 986 q 872 656 872 825 q 856 486 872 581 q 692 108 810 229 q 400 -14 574 -14 q 181 67 258 -14 q 103 317 103 147 q 119 486 103 393 q 284 864 165 742 q 576 986 403 986 m 554 861 q 424 790 483 861 q 326 549 364 718 l 671 549 q 679 663 679 614 q 645 815 679 768 q 554 861 611 861 m 422 111 q 553 183 493 111 q 649 424 613 254 l 304 424 q 297 315 297 372 q 331 158 297 206 q 422 111 365 111 z "},"Ѵ":{"ha":843,"x_min":157,"x_max":979,"o":"m 157 972 l 338 972 l 403 325 q 406 272 406 292 q 403 221 406 260 l 408 221 q 444 325 419 263 l 621 750 q 729 929 672 872 q 885 986 786 986 q 929 982 911 986 q 979 965 947 978 l 944 854 l 938 854 q 910 863 925 863 q 854 833 882 863 q 801 750 826 804 l 472 0 l 264 0 l 157 972 z "},"Ғ":{"ha":715,"x_min":81,"x_max":838,"o":"m 815 847 l 426 847 l 374 549 l 547 549 l 525 424 l 353 424 l 278 0 l 83 0 l 158 424 l 81 424 l 103 549 l 179 549 l 254 972 l 838 972 l 815 847 z "},"Ҕ":{"ha":847,"x_min":83,"x_max":838,"o":"m 540 569 q 745 511 675 569 q 815 347 815 453 q 810 285 815 314 l 776 97 q 677 -74 757 -8 q 478 -139 597 -139 q 365 -111 407 -139 l 406 0 l 419 0 q 486 -14 444 -14 q 547 14 521 -14 q 582 97 572 42 l 615 285 q 619 329 619 310 q 483 444 619 444 q 424 440 454 444 q 353 425 394 435 l 278 0 l 83 0 l 254 972 l 838 972 l 815 847 l 426 847 l 374 549 q 408 556 408 556 q 478 567 457 564 q 540 569 500 569 z "},"Җ":{"ha":1250,"x_min":0,"x_max":1329,"o":"m 1329 965 l 1296 854 l 1289 854 l 1281 857 q 1272 859 1278 857 q 1263 861 1267 861 q 1206 813 1225 861 l 1142 653 q 1038 532 1108 572 q 971 507 1007 514 q 1035 481 1006 501 q 1103 354 1097 438 l 1111 160 q 1153 111 1111 111 q 1179 118 1163 111 l 1186 118 l 1181 7 l 1143 -208 l 997 -208 l 1006 -4 q 947 44 967 10 q 924 125 926 79 l 915 347 q 889 416 913 394 q 813 438 865 438 l 764 438 l 688 0 l 493 0 l 569 438 l 521 438 q 440 417 469 438 q 388 347 410 396 l 299 125 q 228 24 275 63 q 115 -14 181 -14 q 0 7 40 -14 l 33 118 l 40 118 q 49 114 43 117 q 67 111 56 111 q 101 122 88 111 q 125 160 114 133 l 200 354 q 313 481 233 438 q 388 507 351 501 q 329 532 354 514 q 267 653 272 574 l 261 813 q 221 861 258 861 q 192 854 208 861 l 185 854 l 190 965 q 262 982 239 978 q 313 986 285 986 q 401 948 371 986 q 433 847 431 910 l 442 660 q 472 584 446 606 q 564 563 497 563 l 592 563 l 664 972 l 858 972 l 786 563 l 814 563 q 902 584 872 563 q 956 660 932 606 l 1031 847 q 1102 948 1054 910 q 1215 986 1150 986 q 1299 975 1257 986 l 1329 965 z "},"Ҙ":{"ha":743,"x_min":-4,"x_max":757,"o":"m 753 729 q 628 551 733 617 q 528 514 582 524 q 624 472 583 503 q 696 315 696 417 q 692 264 696 292 q 601 91 674 160 q 403 -3 529 22 l 367 -208 l 221 -208 l 229 -12 q 61 24 124 -7 q -4 63 22 40 l 79 174 l 93 174 q 135 142 107 158 q 276 111 193 111 q 432 152 379 111 q 500 278 485 193 q 504 325 504 303 q 466 415 504 385 q 349 444 428 444 l 217 444 l 239 569 l 371 569 q 497 608 449 569 q 556 715 544 646 q 560 753 560 735 q 415 861 560 861 q 275 829 344 861 q 224 799 244 814 l 210 799 l 167 910 q 244 947 199 931 q 451 986 338 986 q 681 929 604 986 q 757 776 757 872 q 753 729 757 754 z "},"Қ":{"ha":854,"x_min":83,"x_max":933,"o":"m 819 986 q 880 981 856 986 q 933 965 904 976 l 900 854 l 893 854 q 865 861 883 861 q 810 813 829 861 l 746 653 q 642 532 713 572 q 575 507 611 514 q 639 481 610 501 q 707 354 701 438 l 715 160 q 757 111 715 111 q 783 118 771 111 l 790 118 l 785 7 l 747 -208 l 601 -208 l 610 -6 q 528 125 532 19 l 519 347 q 417 438 514 438 l 354 438 l 278 0 l 83 0 l 254 972 l 449 972 l 376 563 l 418 563 q 503 585 471 563 q 560 660 536 607 l 643 847 q 716 951 674 915 q 819 986 758 986 z "},"Ҝ":{"ha":897,"x_min":83,"x_max":976,"o":"m 976 965 l 942 854 l 935 854 q 928 857 935 854 q 908 861 911 861 q 851 813 871 861 l 789 653 q 685 532 760 575 q 617 507 651 513 q 682 481 653 501 q 750 354 744 439 l 757 160 q 799 111 760 111 l 817 114 l 826 118 l 833 118 l 828 7 l 794 -4 q 706 -14 758 -14 q 597 25 635 -14 q 557 125 560 64 l 547 347 q 531 405 544 385 q 481 432 517 425 l 453 278 l 372 278 l 400 438 l 356 438 l 278 0 l 83 0 l 254 972 l 449 972 l 376 563 l 418 563 l 422 563 l 446 694 l 526 694 l 504 572 q 556 601 538 581 q 589 660 575 622 l 664 847 q 739 948 688 910 q 861 986 790 986 q 944 975 911 986 l 976 965 z "},"Ҡ":{"ha":1043,"x_min":129,"x_max":1122,"o":"m 1008 986 q 1069 981 1044 986 q 1122 965 1093 976 l 1089 854 l 1082 854 q 1054 861 1072 861 q 999 813 1018 861 l 935 653 q 831 532 901 572 q 764 507 800 514 q 828 481 799 501 q 896 354 890 438 l 904 160 q 946 111 904 111 q 972 118 960 111 l 979 118 l 974 7 q 853 -14 922 -14 q 717 125 724 -14 l 708 347 q 606 438 703 438 l 543 438 l 467 0 l 272 0 l 421 847 l 129 847 l 150 972 l 638 972 l 565 563 l 607 563 q 692 585 660 563 q 749 660 725 607 l 832 847 q 905 951 863 915 q 1008 986 947 986 z "},"Ң":{"ha":917,"x_min":83,"x_max":935,"o":"m 935 972 l 786 125 l 876 125 l 818 -208 l 672 -208 l 681 0 l 569 0 l 644 431 l 353 431 l 278 0 l 83 0 l 254 972 l 449 972 l 375 556 l 667 556 l 740 972 l 935 972 z "},"Ԥ":{"ha":917,"x_min":83,"x_max":935,"o":"m 935 972 l 786 125 l 876 125 l 818 -208 l 672 -208 l 681 0 l 569 0 l 718 847 l 426 847 l 278 0 l 83 0 l 254 972 l 935 972 z "},"Ҫ":{"ha":743,"x_min":103,"x_max":826,"o":"m 765 947 q 826 910 803 929 l 744 799 l 731 799 q 692 829 719 811 q 575 861 636 861 q 417 776 483 861 q 314 486 350 692 q 297 318 297 386 q 338 158 297 206 q 457 111 379 111 q 585 142 521 111 q 635 174 617 158 l 649 174 l 690 63 q 615 24 660 42 q 485 -10 557 -1 l 450 -208 l 304 -208 l 313 -3 q 103 318 103 50 q 119 486 103 393 q 285 865 165 743 q 583 986 404 986 q 765 947 690 986 z "},"Ү":{"ha":792,"x_min":136,"x_max":928,"o":"m 319 319 l 136 972 l 338 972 l 439 563 q 443 539 442 551 q 444 521 444 526 q 446 500 446 514 l 451 500 q 460 521 454 510 q 481 563 472 550 l 726 972 l 928 972 l 514 319 l 458 0 l 264 0 l 319 319 z "},"Ұ":{"ha":792,"x_min":136,"x_max":928,"o":"m 536 354 l 646 354 l 624 229 l 499 229 l 458 0 l 264 0 l 304 229 l 179 229 l 201 354 l 310 354 l 136 972 l 338 972 l 439 563 q 443 539 442 551 q 444 521 444 526 q 446 500 446 514 l 451 500 q 460 521 454 510 q 481 563 472 550 l 726 972 l 928 972 l 536 354 z "},"Ҷ":{"ha":875,"x_min":144,"x_max":893,"o":"m 744 125 l 835 125 l 776 -208 l 631 -208 l 639 0 l 528 0 l 589 354 l 540 343 q 419 333 485 333 q 215 392 285 333 q 144 554 144 450 q 150 618 144 589 l 213 972 l 407 972 l 344 618 q 340 575 340 596 q 476 458 340 458 q 572 468 531 458 l 611 479 l 699 972 l 893 972 l 744 125 z "},"Ҹ":{"ha":875,"x_min":143,"x_max":893,"o":"m 893 972 l 722 0 l 528 0 l 589 354 l 540 343 q 465 335 508 338 l 440 193 l 360 193 l 385 335 q 205 399 267 342 q 143 553 143 457 q 150 618 143 581 l 213 972 l 407 972 l 344 618 q 340 574 340 593 q 408 468 340 490 l 433 610 l 514 610 l 488 458 q 572 468 544 461 l 611 479 l 699 972 l 893 972 z "},"Һ":{"ha":875,"x_min":31,"x_max":779,"o":"m 335 618 l 383 629 q 504 639 439 639 q 709 581 639 639 q 779 418 779 522 q 774 354 779 383 l 711 0 l 517 0 l 579 354 q 583 397 583 378 q 447 514 583 514 q 351 504 393 514 l 313 493 l 225 0 l 31 0 l 201 972 l 396 972 l 335 618 z "},"Ӏ":{"ha":431,"x_min":83,"x_max":449,"o":"m 83 0 l 254 972 l 449 972 l 278 0 l 83 0 z "},"Ӂ":{"ha":1250,"x_min":0,"x_max":1329,"o":"m 115 -14 q 0 7 40 -14 l 33 118 l 40 118 q 49 114 43 117 q 67 111 56 111 q 101 122 88 111 q 125 160 114 133 l 200 354 q 313 481 233 438 q 388 507 351 501 q 329 532 354 514 q 267 653 272 574 l 261 813 q 221 861 258 861 q 192 854 208 861 l 185 854 l 190 965 q 262 982 239 978 q 313 986 285 986 q 401 948 371 986 q 433 847 431 910 l 442 660 q 472 584 446 606 q 564 563 497 563 l 592 563 l 664 972 l 858 972 l 786 563 l 814 563 q 902 584 872 563 q 956 660 932 606 l 1031 847 q 1102 948 1054 910 q 1215 986 1150 986 q 1299 975 1257 986 l 1329 965 l 1296 854 l 1289 854 l 1281 857 q 1272 859 1278 857 q 1263 861 1267 861 q 1206 813 1225 861 l 1142 653 q 1038 532 1108 572 q 971 507 1007 514 q 1035 481 1006 501 q 1103 354 1097 438 l 1111 160 q 1153 111 1111 111 q 1179 118 1163 111 l 1186 118 l 1181 7 q 1126 -9 1151 -4 q 1060 -14 1100 -14 q 961 25 996 -14 q 924 125 926 64 l 915 347 q 889 416 913 394 q 813 438 865 438 l 764 438 l 688 0 l 493 0 l 569 438 l 521 438 q 440 417 469 438 q 388 347 410 396 l 299 125 q 228 24 275 63 q 115 -14 181 -14 m 751 1042 q 558 1189 558 1042 q 563 1236 558 1211 l 715 1236 q 713 1203 713 1211 q 768 1139 713 1139 q 854 1236 839 1139 l 1007 1236 q 751 1042 975 1042 z "},"Ӌ":{"ha":875,"x_min":144,"x_max":893,"o":"m 744 125 l 722 0 l 611 0 l 547 -208 l 401 -208 l 460 125 l 550 125 l 589 354 l 540 343 q 419 333 485 333 q 215 392 285 333 q 144 554 144 450 q 150 618 144 589 l 213 972 l 407 972 l 344 618 q 340 575 340 596 q 476 458 340 458 q 572 468 531 458 l 611 479 l 699 972 l 893 972 l 744 125 z "},"Ӑ":{"ha":833,"x_min":-14,"x_max":794,"o":"m -14 0 l 442 972 l 664 972 l 778 0 l 583 0 l 560 222 l 282 222 l 181 0 l -14 0 m 547 347 l 515 639 q 513 707 510 668 q 515 743 513 718 l 510 743 l 499 707 q 474 639 489 676 l 339 347 l 547 347 m 539 1042 q 346 1189 346 1042 q 350 1236 346 1211 l 503 1236 q 500 1203 500 1211 q 556 1139 500 1139 q 642 1236 626 1139 l 794 1236 q 539 1042 763 1042 z "},"Ӓ":{"ha":833,"x_min":-14,"x_max":808,"o":"m -14 0 l 442 972 l 664 972 l 778 0 l 583 0 l 560 222 l 282 222 l 181 0 l -14 0 m 547 347 l 515 639 q 513 707 510 668 q 515 743 513 718 l 510 743 l 499 707 q 474 639 489 676 l 339 347 l 547 347 m 422 1069 q 364 1093 388 1069 q 340 1151 340 1117 q 377 1229 340 1194 q 457 1264 414 1264 q 515 1240 492 1264 q 538 1183 538 1217 q 536 1167 538 1172 q 495 1099 531 1129 q 422 1069 460 1069 m 693 1069 q 635 1093 658 1069 q 611 1151 611 1117 q 648 1229 611 1194 q 728 1264 685 1264 q 785 1240 763 1264 q 808 1183 808 1217 q 807 1167 808 1172 q 766 1099 801 1129 q 693 1069 731 1069 z "},"Ӗ":{"ha":736,"x_min":83,"x_max":838,"o":"m 83 0 l 254 972 l 838 972 l 815 847 l 426 847 l 378 569 l 683 569 l 661 444 l 356 444 l 299 125 l 688 125 l 667 0 l 83 0 m 574 1042 q 381 1189 381 1042 q 385 1236 381 1211 l 538 1236 q 535 1203 535 1211 q 590 1139 535 1139 q 676 1236 661 1139 l 829 1236 q 574 1042 797 1042 z "},"Ә":{"ha":867,"x_min":100,"x_max":864,"o":"m 560 986 q 787 902 710 986 q 864 653 864 818 q 847 486 864 578 q 687 111 804 238 q 400 -15 569 -15 q 179 69 258 -15 q 100 318 100 154 q 115 467 100 382 l 121 497 l 190 556 l 686 556 q 693 651 693 599 q 518 861 693 861 q 392 839 457 861 q 286 783 328 817 l 267 783 l 231 867 q 392 958 314 929 q 560 986 471 986 m 422 111 q 572 190 513 111 q 664 431 632 269 l 282 431 q 268 307 268 354 q 308 160 268 210 q 422 111 349 111 z "},"Ӝ":{"ha":1250,"x_min":0,"x_max":1329,"o":"m 115 -14 q 0 7 40 -14 l 33 118 l 40 118 q 49 114 43 117 q 67 111 56 111 q 101 122 88 111 q 125 160 114 133 l 200 354 q 313 481 233 438 q 388 507 351 501 q 329 532 354 514 q 267 653 272 574 l 261 813 q 221 861 258 861 q 192 854 208 861 l 185 854 l 190 965 q 262 982 239 978 q 313 986 285 986 q 401 948 371 986 q 433 847 431 910 l 442 660 q 472 584 446 606 q 564 563 497 563 l 592 563 l 664 972 l 858 972 l 786 563 l 814 563 q 902 584 872 563 q 956 660 932 606 l 1031 847 q 1102 948 1054 910 q 1215 986 1150 986 q 1299 975 1257 986 l 1329 965 l 1296 854 l 1289 854 l 1281 857 q 1272 859 1278 857 q 1263 861 1267 861 q 1206 813 1225 861 l 1142 653 q 1038 532 1108 572 q 971 507 1007 514 q 1035 481 1006 501 q 1103 354 1097 438 l 1111 160 q 1153 111 1111 111 q 1179 118 1163 111 l 1186 118 l 1181 7 q 1126 -9 1151 -4 q 1060 -14 1100 -14 q 961 25 996 -14 q 924 125 926 64 l 915 347 q 889 416 913 394 q 813 438 865 438 l 764 438 l 688 0 l 493 0 l 569 438 l 521 438 q 440 417 469 438 q 388 347 410 396 l 299 125 q 228 24 275 63 q 115 -14 181 -14 m 635 1069 q 576 1093 600 1069 q 553 1151 553 1117 q 590 1229 553 1194 q 669 1264 626 1264 q 727 1240 704 1264 q 750 1183 750 1217 q 749 1167 750 1172 q 708 1099 743 1129 q 635 1069 672 1069 m 906 1069 q 847 1093 871 1069 q 824 1151 824 1117 q 860 1229 824 1194 q 940 1264 897 1264 q 998 1240 975 1264 q 1021 1183 1021 1217 q 1019 1167 1021 1172 q 978 1099 1014 1129 q 906 1069 943 1069 z "},"Ӟ":{"ha":743,"x_min":-4,"x_max":757,"o":"m 268 -14 q 61 24 142 -14 q -4 63 22 40 l 79 174 l 93 174 q 135 142 107 158 q 276 111 193 111 q 432 152 379 111 q 500 278 485 193 q 504 325 504 303 q 466 415 504 385 q 349 444 428 444 l 217 444 l 239 569 l 371 569 q 497 608 449 569 q 556 715 544 646 q 560 753 560 735 q 415 861 560 861 q 275 829 344 861 q 224 799 244 814 l 210 799 l 167 910 q 244 947 199 931 q 451 986 338 986 q 681 929 604 986 q 757 776 757 872 q 753 729 757 754 q 628 551 733 617 q 528 514 582 524 q 624 472 583 503 q 696 315 696 417 q 692 264 696 292 q 564 60 669 133 q 268 -14 458 -14 m 340 1069 q 282 1093 306 1069 q 258 1151 258 1117 q 295 1229 258 1194 q 375 1264 332 1264 q 433 1240 410 1264 q 456 1183 456 1217 q 454 1167 456 1172 q 413 1099 449 1129 q 340 1069 378 1069 m 611 1069 q 553 1093 576 1069 q 529 1151 529 1117 q 566 1229 529 1194 q 646 1264 603 1264 q 703 1240 681 1264 q 726 1183 726 1217 q 725 1167 726 1172 q 684 1099 719 1129 q 611 1069 649 1069 z "},"Ӣ":{"ha":917,"x_min":97,"x_max":949,"o":"m 268 972 l 449 972 l 344 382 q 322 290 338 336 l 328 290 q 379 382 346 331 l 775 972 l 949 972 l 778 0 l 597 0 l 701 590 q 725 682 710 638 l 719 682 l 706 657 q 667 590 676 603 l 271 0 l 97 0 l 268 972 m 425 1069 l 447 1194 l 850 1194 l 828 1069 l 425 1069 z "},"Ӥ":{"ha":917,"x_min":97,"x_max":949,"o":"m 268 972 l 449 972 l 344 382 q 322 290 338 336 l 328 290 q 379 382 346 331 l 775 972 l 949 972 l 778 0 l 597 0 l 701 590 q 725 682 710 638 l 719 682 l 706 657 q 667 590 676 603 l 271 0 l 97 0 l 268 972 m 492 1069 q 433 1093 457 1069 q 410 1151 410 1117 q 447 1229 410 1194 q 526 1264 483 1264 q 584 1240 561 1264 q 607 1183 607 1217 q 606 1167 607 1172 q 565 1099 600 1129 q 492 1069 529 1069 m 763 1069 q 704 1093 728 1069 q 681 1151 681 1117 q 717 1229 681 1194 q 797 1264 754 1264 q 855 1240 832 1264 q 878 1183 878 1217 q 876 1167 878 1172 q 835 1099 871 1129 q 763 1069 800 1069 z "},"Ӧ":{"ha":875,"x_min":103,"x_max":872,"o":"m 400 -14 q 181 67 258 -14 q 103 317 103 147 q 119 486 103 393 q 284 864 165 742 q 576 986 403 986 q 795 906 718 986 q 872 656 872 825 q 856 486 872 581 q 692 108 810 229 q 400 -14 574 -14 m 422 111 q 562 197 499 111 q 661 486 625 283 q 679 661 679 586 q 554 861 679 861 q 413 775 476 861 q 314 486 350 689 q 297 314 297 396 q 331 158 297 206 q 422 111 365 111 m 457 1069 q 399 1093 422 1069 q 375 1151 375 1117 q 412 1229 375 1194 q 492 1264 449 1264 q 549 1240 526 1264 q 572 1183 572 1217 q 571 1167 572 1172 q 530 1099 565 1129 q 457 1069 494 1069 m 728 1069 q 669 1093 693 1069 q 646 1151 646 1117 q 683 1229 646 1194 q 763 1264 719 1264 q 820 1240 797 1264 q 843 1183 843 1217 q 842 1167 843 1172 q 801 1099 836 1129 q 728 1069 765 1069 z "},"Ө":{"ha":875,"x_min":103,"x_max":872,"o":"m 576 986 q 795 906 718 986 q 872 656 872 825 q 856 486 872 581 q 692 108 810 229 q 400 -14 574 -14 q 181 67 258 -14 q 103 317 103 147 q 119 486 103 393 q 284 864 165 742 q 576 986 403 986 m 554 861 q 424 790 483 861 q 326 549 364 718 l 671 549 q 679 663 679 614 q 645 815 679 768 q 554 861 611 861 m 422 111 q 553 183 493 111 q 649 424 613 254 l 304 424 q 297 315 297 372 q 331 158 297 206 q 422 111 365 111 z "},"Ӯ":{"ha":799,"x_min":72,"x_max":921,"o":"m 225 -21 q 115 0 165 -21 q 72 21 89 10 l 142 139 l 156 139 q 176 121 165 126 q 233 104 203 104 q 298 127 268 104 q 344 188 328 150 l 378 257 l 321 257 l 150 972 l 351 972 l 450 507 q 457 436 457 463 l 457 403 l 463 403 q 472 436 468 425 q 499 507 482 471 l 719 972 l 921 972 l 532 188 q 406 36 483 93 q 225 -21 329 -21 m 339 1069 l 361 1194 l 764 1194 l 742 1069 l 339 1069 z "},"Ӱ":{"ha":799,"x_min":72,"x_max":921,"o":"m 225 -21 q 115 0 165 -21 q 72 21 89 10 l 142 139 l 156 139 q 176 121 165 126 q 233 104 203 104 q 298 127 268 104 q 344 188 328 150 l 378 257 l 321 257 l 150 972 l 351 972 l 450 507 q 457 436 457 463 l 457 403 l 463 403 q 472 436 468 425 q 499 507 482 471 l 719 972 l 921 972 l 532 188 q 406 36 483 93 q 225 -21 329 -21 m 406 1069 q 347 1093 371 1069 q 324 1151 324 1117 q 360 1229 324 1194 q 440 1264 397 1264 q 498 1240 475 1264 q 521 1183 521 1217 q 519 1167 521 1172 q 478 1099 514 1129 q 406 1069 443 1069 m 676 1069 q 618 1093 642 1069 q 594 1151 594 1117 q 631 1229 594 1194 q 711 1264 668 1264 q 769 1240 746 1264 q 792 1183 792 1217 q 790 1167 792 1172 q 749 1099 785 1129 q 676 1069 714 1069 z "},"Ӳ":{"ha":799,"x_min":72,"x_max":921,"o":"m 225 -21 q 115 0 165 -21 q 72 21 89 10 l 142 139 l 156 139 q 176 121 165 126 q 233 104 203 104 q 298 127 268 104 q 344 188 328 150 l 378 257 l 321 257 l 150 972 l 351 972 l 450 507 q 457 436 457 463 l 457 403 l 463 403 q 472 436 468 425 q 499 507 482 471 l 719 972 l 921 972 l 532 188 q 406 36 483 93 q 225 -21 329 -21 m 381 1042 l 481 1250 l 633 1250 l 471 1042 l 381 1042 m 596 1042 l 696 1250 l 849 1250 l 686 1042 l 596 1042 z "},"Ӵ":{"ha":875,"x_min":144,"x_max":893,"o":"m 589 354 l 540 343 q 419 333 485 333 q 215 392 285 333 q 144 554 144 450 q 150 618 144 589 l 213 972 l 407 972 l 344 618 q 340 575 340 596 q 476 458 340 458 q 572 468 531 458 l 611 479 l 699 972 l 893 972 l 722 0 l 528 0 l 589 354 m 432 1069 q 374 1093 397 1069 q 350 1151 350 1117 q 387 1229 350 1194 q 467 1264 424 1264 q 524 1240 501 1264 q 547 1183 547 1217 q 546 1167 547 1172 q 505 1099 540 1129 q 432 1069 469 1069 m 703 1069 q 644 1093 668 1069 q 621 1151 621 1117 q 658 1229 621 1194 q 738 1264 694 1264 q 795 1240 772 1264 q 818 1183 818 1217 q 817 1167 818 1172 q 776 1099 811 1129 q 703 1069 740 1069 z "},"Ӷ":{"ha":715,"x_min":83,"x_max":838,"o":"m 254 972 l 838 972 l 815 847 l 426 847 l 300 125 l 390 125 l 332 -208 l 186 -208 l 194 0 l 83 0 l 254 972 z "},"Ӹ":{"ha":1188,"x_min":83,"x_max":1206,"o":"m 254 972 l 449 972 l 388 625 l 464 625 q 792 392 792 625 q 783 313 792 354 q 653 79 757 158 q 354 0 549 0 l 83 0 l 254 972 m 840 0 l 1011 972 l 1206 972 l 1035 0 l 840 0 m 375 125 q 521 169 471 125 q 589 313 571 213 q 594 374 594 342 q 558 470 594 440 q 442 500 521 500 l 365 500 l 299 125 l 375 125 m 600 1069 q 542 1093 565 1069 q 518 1151 518 1117 q 555 1229 518 1194 q 635 1264 592 1264 q 692 1240 669 1264 q 715 1183 715 1217 q 714 1167 715 1172 q 673 1099 708 1129 q 600 1069 638 1069 m 871 1069 q 813 1093 836 1069 q 789 1151 789 1117 q 826 1229 789 1194 q 906 1264 863 1264 q 963 1240 940 1264 q 986 1183 986 1217 q 985 1167 986 1172 q 944 1099 979 1129 q 871 1069 908 1069 z "},"Ԛ":{"ha":875,"x_min":104,"x_max":872,"o":"m 514 -229 q 358 -178 414 -229 q 301 -43 301 -128 q 306 0 301 -24 q 104 319 104 51 q 119 486 104 403 q 284 864 165 742 q 576 986 403 986 q 795 906 718 986 q 872 656 872 825 q 856 486 872 581 q 500 0 779 65 q 497 -32 497 -12 q 512 -85 497 -67 q 550 -104 526 -104 q 588 -97 571 -104 q 600 -90 592 -96 l 614 -90 l 631 -201 q 599 -215 617 -210 q 514 -229 557 -229 m 422 111 q 562 197 499 111 q 661 486 625 283 q 679 661 679 586 q 554 861 679 861 q 413 775 476 861 q 314 486 350 689 q 297 314 297 396 q 331 158 297 206 q 422 111 365 111 z "},"Ԝ":{"ha":1250,"x_min":157,"x_max":1365,"o":"m 157 972 l 351 972 l 382 361 q 383 335 383 353 q 382 307 383 317 l 379 278 l 385 278 q 392 307 386 288 q 410 361 397 328 l 658 972 l 864 972 l 896 361 q 897 335 897 353 q 896 307 897 317 l 893 278 l 899 278 q 906 307 900 288 q 924 361 911 328 l 1171 972 l 1365 972 l 958 0 l 750 0 l 710 604 q 713 663 708 615 l 715 694 l 710 694 q 701 663 707 676 q 682 604 688 618 l 431 0 l 222 0 l 157 972 z "},"а":{"ha":750,"x_min":51,"x_max":707,"o":"m 275 -14 q 109 33 167 -14 q 51 160 51 79 q 56 201 51 181 q 160 365 74 306 q 407 424 247 424 l 504 424 l 508 444 q 513 489 513 469 q 485 561 513 539 q 401 583 458 583 q 290 556 340 583 q 246 528 265 543 l 232 528 l 189 639 q 260 674 226 661 q 436 708 353 708 q 637 650 567 708 q 707 494 707 592 q 703 444 707 469 l 625 0 l 486 0 l 486 83 l 479 83 q 424 35 451 53 q 275 -14 354 -14 m 332 118 q 425 160 372 118 q 465 201 443 175 l 482 299 l 385 299 q 250 201 267 299 q 249 183 249 196 q 270 136 249 154 q 332 118 292 118 z "},"б":{"ha":771,"x_min":82,"x_max":808,"o":"m 351 -14 q 152 49 222 -14 q 82 233 82 113 q 90 319 82 274 l 114 451 q 203 723 143 619 q 358 881 264 826 q 592 958 451 935 l 807 993 l 808 847 l 594 813 q 429 764 492 796 q 331 677 367 732 q 281 535 296 622 q 503 653 365 653 q 675 589 613 653 q 738 407 738 525 q 729 319 738 365 q 603 72 701 158 q 351 -14 504 -14 m 374 111 q 474 162 431 111 q 535 319 517 213 q 543 396 543 364 q 517 490 543 460 q 446 521 490 521 q 347 472 390 521 q 285 319 303 424 q 276 240 276 274 q 302 142 276 174 q 374 111 328 111 z "},"в":{"ha":736,"x_min":63,"x_max":718,"o":"m 185 694 l 463 694 q 656 652 593 694 q 718 540 718 610 q 690 450 718 488 q 619 390 661 413 q 542 361 585 372 q 624 332 588 353 q 670 286 653 313 q 688 221 688 260 q 685 188 688 200 q 586 51 669 103 q 340 0 503 0 l 63 0 l 185 694 m 413 417 q 483 438 454 417 q 517 493 511 460 q 518 508 518 499 q 497 553 518 536 q 440 569 476 569 l 357 569 l 329 417 l 413 417 m 361 125 q 453 147 421 125 q 494 208 486 169 q 496 225 496 214 q 392 292 496 292 l 308 292 l 278 125 l 361 125 z "},"г":{"ha":597,"x_min":63,"x_max":671,"o":"m 63 0 l 185 694 l 671 694 l 649 569 l 357 569 l 257 0 l 63 0 z "},"ѓ":{"ha":597,"x_min":63,"x_max":701,"o":"m 63 0 l 185 694 l 671 694 l 649 569 l 357 569 l 257 0 l 63 0 m 414 764 l 514 972 l 701 972 l 525 764 l 414 764 z "},"ґ":{"ha":597,"x_min":63,"x_max":694,"o":"m 63 0 l 185 694 l 518 694 l 563 833 l 694 833 l 649 569 l 357 569 l 257 0 l 63 0 z "},"д":{"ha":833,"x_min":-61,"x_max":782,"o":"m -7 125 l 63 125 q 101 164 79 136 q 163 292 143 217 l 261 694 l 782 694 l 681 125 l 771 125 l 715 -194 l 569 -194 l 576 0 l 153 0 l 90 -194 l -61 -194 l -7 125 m 486 125 l 565 569 l 419 569 l 351 292 q 290 164 332 217 q 251 125 268 136 l 486 125 z "},"е":{"ha":722,"x_min":72,"x_max":703,"o":"m 365 -14 q 72 243 72 -14 q 82 347 72 294 q 210 617 114 526 q 450 708 306 708 q 637 644 571 708 q 703 457 703 581 q 694 361 703 414 l 689 326 l 640 285 l 265 285 q 260 235 260 249 q 401 111 260 111 q 513 139 463 111 q 557 167 538 151 l 571 167 l 614 56 q 542 21 572 32 q 365 -14 456 -14 m 510 410 q 515 464 515 436 q 490 552 515 521 q 429 583 465 583 q 343 538 383 583 q 288 410 303 493 l 510 410 z "},"ѐ":{"ha":722,"x_min":72,"x_max":703,"o":"m 365 -14 q 72 243 72 -14 q 82 347 72 294 q 210 617 114 526 q 450 708 306 708 q 637 644 571 708 q 703 457 703 581 q 694 361 703 414 l 689 326 l 640 285 l 265 285 q 260 235 260 249 q 401 111 260 111 q 513 139 463 111 q 557 167 538 151 l 571 167 l 614 56 q 542 21 572 32 q 365 -14 456 -14 m 510 410 q 515 464 515 436 q 490 552 515 521 q 429 583 465 583 q 343 538 383 583 q 288 410 303 493 l 510 410 m 435 764 l 333 972 l 521 972 l 546 764 l 435 764 z "},"ё":{"ha":722,"x_min":72,"x_max":746,"o":"m 365 -14 q 72 243 72 -14 q 82 347 72 294 q 210 617 114 526 q 450 708 306 708 q 637 644 571 708 q 703 457 703 581 q 694 361 703 414 l 689 326 l 640 285 l 265 285 q 260 235 260 249 q 401 111 260 111 q 513 139 463 111 q 557 167 538 151 l 571 167 l 614 56 q 542 21 572 32 q 365 -14 456 -14 m 510 410 q 515 464 515 436 q 490 552 515 521 q 429 583 465 583 q 343 538 383 583 q 288 410 303 493 l 510 410 m 360 792 q 301 815 325 792 q 278 874 278 839 q 315 951 278 917 q 394 986 351 986 q 452 963 429 986 q 475 906 475 939 q 474 889 475 894 q 433 822 468 851 q 360 792 397 792 m 631 792 q 572 815 596 792 q 549 874 549 839 q 585 951 549 917 q 665 986 622 986 q 723 963 700 986 q 746 906 746 939 q 744 889 746 894 q 703 822 739 851 q 631 792 668 792 z "},"ж":{"ha":1069,"x_min":-7,"x_max":1114,"o":"m 101 -14 q 24 -4 60 -14 l -7 7 l 33 118 l 40 118 l 49 114 q 68 111 63 111 q 90 121 79 111 q 108 146 101 131 l 156 257 q 249 343 182 314 q 313 361 278 357 q 261 378 282 368 q 204 451 210 403 l 193 549 q 184 574 192 564 q 165 583 176 583 q 146 579 163 583 l 136 576 l 129 576 l 128 688 l 161 697 q 242 708 203 708 q 382 597 372 708 l 394 472 q 410 431 397 444 q 454 417 424 417 l 475 417 l 525 694 l 719 694 l 669 417 l 690 417 q 739 431 721 417 q 769 472 757 444 l 826 597 q 1006 708 876 708 q 1083 697 1042 708 l 1114 688 l 1074 576 l 1067 576 l 1058 579 q 1050 581 1056 579 q 1040 583 1044 583 q 1017 574 1029 583 q 999 549 1006 564 l 954 451 q 869 378 931 401 q 813 361 840 367 q 871 343 847 357 q 933 257 928 313 l 942 146 q 951 121 943 131 q 971 111 960 111 q 990 114 976 111 l 999 118 l 1006 118 l 1007 7 q 974 -4 1007 7 q 893 -14 938 -14 q 790 16 824 -14 q 753 97 756 46 l 742 236 q 727 278 740 264 q 683 292 714 292 l 649 292 l 597 0 l 403 0 l 454 292 l 419 292 q 370 278 389 292 q 339 236 351 264 l 281 97 q 101 -14 233 -14 z "},"з":{"ha":646,"x_min":-4,"x_max":643,"o":"m 254 -14 q 60 21 143 -14 q -4 56 28 33 l 78 167 l 92 167 q 131 139 108 150 q 263 111 179 111 q 403 201 388 111 q 404 221 404 208 q 301 292 404 292 l 183 292 l 204 417 l 322 417 q 405 440 374 417 q 443 507 436 464 l 444 519 q 419 566 444 549 q 339 583 393 583 q 215 556 268 583 q 169 528 193 544 l 156 528 l 113 639 q 186 674 151 661 q 374 708 282 708 q 578 665 513 708 q 643 551 643 622 q 536 389 643 443 q 451 361 493 369 q 533 331 499 353 q 596 213 596 289 q 512 49 596 111 q 254 -14 428 -14 z "},"и":{"ha":806,"x_min":63,"x_max":796,"o":"m 185 694 l 365 694 l 297 313 q 287 265 293 290 q 278 229 281 240 l 283 229 q 332 313 307 279 l 622 694 l 796 694 l 674 0 l 493 0 l 563 382 q 582 465 568 414 l 576 465 q 554 421 563 435 q 528 382 546 407 l 236 0 l 63 0 l 185 694 z "},"й":{"ha":806,"x_min":63,"x_max":796,"o":"m 185 694 l 365 694 l 297 313 q 287 265 293 290 q 278 229 281 240 l 283 229 q 332 313 307 279 l 622 694 l 796 694 l 674 0 l 493 0 l 563 382 q 582 465 568 414 l 576 465 q 554 421 563 435 q 528 382 546 407 l 236 0 l 63 0 l 185 694 m 489 764 q 297 908 297 764 q 301 958 297 932 l 454 958 q 451 924 451 944 q 507 861 451 861 q 593 958 576 861 l 746 958 q 489 764 711 764 z "},"ѝ":{"ha":806,"x_min":63,"x_max":796,"o":"m 185 694 l 365 694 l 297 313 q 287 265 293 290 q 278 229 281 240 l 283 229 q 332 313 307 279 l 622 694 l 796 694 l 674 0 l 493 0 l 563 382 q 582 465 568 414 l 576 465 q 554 421 563 435 q 528 382 546 407 l 236 0 l 63 0 l 185 694 m 449 764 l 347 972 l 535 972 l 560 764 l 449 764 z "},"к":{"ha":750,"x_min":63,"x_max":794,"o":"m 574 -14 q 470 16 504 -14 q 433 97 436 46 l 422 236 q 408 278 421 264 q 364 292 394 292 l 308 292 l 257 0 l 63 0 l 185 694 l 379 694 l 329 417 l 371 417 q 419 431 401 417 q 450 472 438 444 l 507 597 q 686 708 557 708 q 764 697 722 708 l 794 688 l 754 576 l 747 576 l 739 579 q 731 581 736 579 q 721 583 725 583 q 698 574 710 583 q 679 549 686 564 l 635 451 q 550 378 611 401 q 493 361 521 367 q 551 343 528 357 q 614 257 608 313 l 622 146 q 632 121 624 131 q 651 111 640 111 q 671 114 657 111 l 679 118 l 686 118 l 688 7 q 654 -4 688 7 q 574 -14 618 -14 z "},"ќ":{"ha":750,"x_min":63,"x_max":794,"o":"m 574 -14 q 470 16 504 -14 q 433 97 436 46 l 422 236 q 408 278 421 264 q 364 292 394 292 l 308 292 l 257 0 l 63 0 l 185 694 l 379 694 l 329 417 l 371 417 q 419 431 401 417 q 450 472 438 444 l 507 597 q 686 708 557 708 q 764 697 722 708 l 794 688 l 754 576 l 747 576 l 739 579 q 731 581 736 579 q 721 583 725 583 q 698 574 710 583 q 679 549 686 564 l 635 451 q 550 378 611 401 q 493 361 521 367 q 551 343 528 357 q 614 257 608 313 l 622 146 q 632 121 624 131 q 651 111 640 111 q 671 114 657 111 l 679 118 l 686 118 l 688 7 q 654 -4 688 7 q 574 -14 618 -14 m 421 764 l 521 972 l 708 972 l 532 764 l 421 764 z "},"л":{"ha":785,"x_min":-28,"x_max":775,"o":"m 67 -14 q 1 -4 33 -14 l -28 7 l 6 118 l 19 118 l 28 114 q 47 111 42 111 q 93 138 71 111 q 129 222 115 164 l 240 694 l 775 694 l 653 0 l 458 0 l 558 569 l 399 569 l 317 222 q 67 -14 260 -14 z "},"м":{"ha":986,"x_min":63,"x_max":976,"o":"m 185 694 l 365 694 l 492 347 q 501 306 500 326 q 504 278 503 285 l 510 278 q 522 308 515 294 q 547 347 529 322 l 796 694 l 976 694 l 854 0 l 674 0 l 733 347 q 745 398 739 374 q 754 431 751 422 l 749 431 q 724 388 739 411 q 699 347 710 364 l 526 111 l 439 111 l 343 375 q 328 432 333 400 l 324 458 l 318 458 q 317 432 318 442 q 313 407 315 421 q 308 375 311 393 l 243 0 l 63 0 l 185 694 z "},"н":{"ha":806,"x_min":63,"x_max":796,"o":"m 63 0 l 185 694 l 379 694 l 329 417 l 551 417 l 601 694 l 796 694 l 674 0 l 479 0 l 531 292 l 308 292 l 257 0 l 63 0 z "},"о":{"ha":750,"x_min":72,"x_max":731,"o":"m 338 -14 q 140 50 208 -14 q 72 242 72 114 q 82 347 72 293 q 212 618 114 528 q 464 708 310 708 q 662 643 593 708 q 731 449 731 578 q 721 347 731 411 q 590 76 689 167 q 338 -14 492 -14 m 360 111 q 526 347 483 111 q 538 451 538 411 q 443 583 538 583 q 276 347 319 583 q 265 243 265 283 q 360 111 265 111 z "},"п":{"ha":806,"x_min":63,"x_max":796,"o":"m 63 0 l 185 694 l 796 694 l 674 0 l 479 0 l 579 569 l 357 569 l 257 0 l 63 0 z "},"р":{"ha":778,"x_min":13,"x_max":758,"o":"m 185 694 l 324 694 l 322 611 l 329 611 q 385 660 347 632 q 533 708 456 708 q 698 643 638 708 q 758 451 758 578 q 749 347 758 400 q 622 78 717 169 q 393 -14 528 -14 q 296 7 338 -14 q 261 28 274 17 l 217 -222 l 151 -278 l 13 -278 l 185 694 m 381 111 q 487 165 443 111 q 554 347 531 219 q 564 443 564 400 q 540 544 564 513 q 476 576 517 576 q 381 535 428 576 q 343 493 360 517 l 283 153 q 308 132 293 140 q 381 111 340 111 z "},"с":{"ha":660,"x_min":72,"x_max":696,"o":"m 358 -14 q 72 242 72 -14 q 82 347 72 294 q 213 618 114 528 q 471 708 311 708 q 635 674 554 708 q 696 639 661 663 l 614 528 l 600 528 q 565 556 586 542 q 464 583 525 583 q 346 530 392 583 q 276 347 300 476 q 267 249 267 294 q 299 143 267 175 q 394 111 331 111 q 506 139 456 111 q 550 167 531 151 l 564 167 l 607 56 q 535 21 565 32 q 358 -14 449 -14 z "},"т":{"ha":625,"x_min":79,"x_max":699,"o":"m 181 0 l 281 569 l 79 569 l 101 694 l 699 694 l 676 569 l 475 569 l 375 0 l 181 0 z "},"у":{"ha":701,"x_min":-31,"x_max":775,"o":"m 114 -292 q 10 -271 60 -292 q -31 -250 -14 -262 l 39 -132 l 53 -132 q 72 -150 63 -144 q 122 -167 93 -167 q 183 -142 154 -167 q 232 -69 211 -117 l 264 0 l 208 0 l 101 694 l 296 694 l 354 243 q 356 194 357 211 l 353 167 l 358 167 q 365 194 360 174 q 382 243 368 206 l 581 694 l 775 694 l 411 -69 q 114 -292 304 -292 z "},"ў":{"ha":701,"x_min":-31,"x_max":775,"o":"m 114 -292 q 10 -271 60 -292 q -31 -250 -14 -262 l 39 -132 l 53 -132 q 72 -150 63 -144 q 122 -167 93 -167 q 183 -142 154 -167 q 232 -69 211 -117 l 264 0 l 208 0 l 101 694 l 296 694 l 354 243 q 356 194 357 211 l 353 167 l 358 167 q 365 194 360 174 q 382 243 368 206 l 581 694 l 775 694 l 411 -69 q 114 -292 304 -292 m 424 764 q 232 908 232 764 q 236 958 232 932 l 389 958 q 386 924 386 944 q 442 861 386 861 q 528 958 511 861 l 681 958 q 424 764 646 764 z "},"ф":{"ha":986,"x_min":72,"x_max":967,"o":"m 358 -14 q 72 246 72 -6 q 82 347 72 297 q 485 708 146 697 l 522 917 l 588 972 l 726 972 l 679 708 q 967 449 967 700 q 957 347 967 397 q 553 -14 893 -3 l 506 -278 l 311 -278 l 358 -14 m 464 583 q 344 524 390 578 q 276 347 297 471 q 267 253 267 285 q 296 148 267 181 q 381 111 325 115 l 464 583 m 575 111 q 694 170 647 117 q 763 347 742 224 q 772 442 772 411 q 743 547 772 514 q 658 583 714 579 l 575 111 z "},"х":{"ha":681,"x_min":-21,"x_max":747,"o":"m 249 354 l 108 694 l 310 694 l 375 514 q 383 475 381 493 q 383 458 386 465 l 389 458 l 394 475 q 417 514 403 496 l 546 694 l 747 694 l 485 354 l 632 0 l 431 0 l 358 188 q 350 225 353 203 q 350 243 349 233 l 344 243 q 339 225 342 232 q 317 188 336 218 l 181 0 l -21 0 l 249 354 z "},"ч":{"ha":764,"x_min":111,"x_max":754,"o":"m 479 243 q 446 232 479 243 q 344 222 407 222 q 169 269 228 222 q 111 406 111 317 q 117 465 111 438 l 157 694 l 351 694 l 311 465 q 307 432 307 447 q 331 369 307 390 q 401 347 356 347 q 475 357 446 347 q 488 362 481 360 q 501 368 494 364 l 560 694 l 754 694 l 632 0 l 438 0 l 479 243 z "},"ц":{"ha":833,"x_min":63,"x_max":782,"o":"m 569 -194 l 576 0 l 63 0 l 185 694 l 379 694 l 278 125 l 486 125 l 588 694 l 782 694 l 681 125 l 771 125 l 715 -194 l 569 -194 z "},"ш":{"ha":1139,"x_min":63,"x_max":1129,"o":"m 63 0 l 185 694 l 379 694 l 278 125 l 458 125 l 560 694 l 754 694 l 653 125 l 833 125 l 935 694 l 1129 694 l 1007 0 l 63 0 z "},"щ":{"ha":1181,"x_min":63,"x_max":1129,"o":"m 917 -194 l 924 0 l 63 0 l 185 694 l 379 694 l 278 125 l 458 125 l 560 694 l 754 694 l 653 125 l 833 125 l 935 694 l 1129 694 l 1028 125 l 1118 125 l 1063 -194 l 917 -194 z "},"џ":{"ha":806,"x_min":63,"x_max":796,"o":"m 264 -194 l 278 0 l 63 0 l 185 694 l 379 694 l 278 125 l 500 125 l 601 694 l 796 694 l 674 0 l 458 0 l 403 -194 l 264 -194 z "},"ь":{"ha":722,"x_min":63,"x_max":706,"o":"m 185 694 l 379 694 l 339 472 l 429 472 q 640 428 575 472 q 706 294 706 383 q 700 236 706 264 q 597 59 679 118 q 347 0 514 0 l 63 0 l 185 694 m 368 125 q 471 162 433 125 q 508 264 508 199 q 408 347 508 347 l 318 347 l 278 125 l 368 125 z "},"ъ":{"ha":806,"x_min":79,"x_max":789,"o":"m 246 569 l 79 569 l 101 694 l 463 694 l 422 472 l 513 472 q 724 428 658 472 q 789 294 789 383 q 783 236 789 264 q 691 68 763 126 q 479 1 619 10 q 438 0 464 0 l 146 0 l 246 569 m 451 125 q 554 162 517 125 q 592 264 592 199 q 492 347 592 347 l 401 347 l 361 125 l 451 125 z "},"ы":{"ha":1049,"x_min":63,"x_max":1039,"o":"m 185 694 l 379 694 l 339 472 l 388 472 q 599 428 533 472 q 664 294 664 383 q 658 236 664 264 q 555 59 638 118 q 306 0 472 0 l 63 0 l 185 694 m 722 0 l 844 694 l 1039 694 l 917 0 l 722 0 m 326 125 q 419 153 385 125 q 464 236 454 182 q 467 264 467 256 q 367 347 467 347 l 318 347 l 278 125 l 326 125 z "},"љ":{"ha":1111,"x_min":-28,"x_max":1094,"o":"m 67 -14 q 1 -4 33 -14 l -28 7 l 6 118 l 19 118 l 28 114 q 47 111 42 111 q 93 138 71 111 q 129 222 115 164 l 240 694 l 768 694 l 728 472 l 818 472 q 1029 428 964 472 q 1094 294 1094 383 q 1089 236 1094 264 q 985 59 1068 118 q 736 0 903 0 l 451 0 l 551 569 l 399 569 l 317 222 q 67 -14 260 -14 m 757 125 q 860 162 822 125 q 897 264 897 199 q 797 347 897 347 l 707 347 l 667 125 l 757 125 z "},"њ":{"ha":1125,"x_min":63,"x_max":1106,"o":"m 185 694 l 379 694 l 335 444 l 543 444 l 588 694 l 782 694 l 738 444 l 828 444 q 1040 400 975 444 q 1106 269 1106 356 q 1101 222 1106 247 q 999 56 1082 113 q 750 0 915 0 l 465 0 l 521 319 l 313 319 l 257 0 l 63 0 l 185 694 m 771 125 q 871 158 833 125 q 908 240 908 190 q 882 298 908 276 q 806 319 856 319 l 715 319 l 681 125 l 771 125 z "},"ѕ":{"ha":674,"x_min":17,"x_max":689,"o":"m 289 -14 q 90 21 183 -14 q 17 56 53 35 l 99 167 l 113 167 q 157 139 132 151 q 290 111 210 111 q 394 133 360 111 q 435 189 429 154 q 411 240 442 221 q 310 283 381 258 q 204 325 246 306 q 133 378 163 344 q 104 464 104 413 q 108 500 104 482 q 208 651 126 594 q 436 708 290 708 q 619 674 526 708 q 689 639 650 663 l 607 528 l 593 528 q 550 556 571 546 q 429 583 500 583 q 337 560 369 583 q 304 506 304 536 q 334 460 304 476 q 429 419 364 443 q 535 378 493 397 q 606 324 576 358 q 635 236 635 289 q 632 203 635 215 q 529 44 614 103 q 289 -14 444 -14 z "},"є":{"ha":660,"x_min":72,"x_max":696,"o":"m 358 -14 q 72 242 72 -14 q 82 347 72 294 q 213 618 114 528 q 471 708 311 708 q 635 674 554 708 q 696 639 661 663 l 614 528 l 600 528 q 565 556 586 542 q 464 583 525 583 q 363 546 403 583 q 294 417 322 508 l 531 417 l 510 292 l 267 292 q 265 256 265 279 q 297 144 265 176 q 394 111 329 111 q 506 139 456 111 q 550 167 531 151 l 564 167 l 607 56 q 535 21 565 32 q 358 -14 449 -14 z "},"э":{"ha":660,"x_min":3,"x_max":640,"o":"m 226 -14 q 63 21 138 -14 q 3 56 33 33 l 85 167 l 99 167 q 133 139 113 153 q 235 111 174 111 q 352 151 306 111 q 426 292 399 192 l 183 292 l 204 417 l 440 417 q 419 545 446 507 q 332 583 392 583 q 221 556 271 583 q 176 528 196 543 l 163 528 l 119 639 q 190 674 157 661 q 367 708 283 708 q 570 644 500 708 q 640 453 640 581 q 631 347 640 400 q 226 -14 567 -14 z "},"і":{"ha":389,"x_min":63,"x_max":421,"o":"m 297 785 q 235 810 260 785 q 210 872 210 836 q 249 956 210 919 q 335 993 288 993 q 397 968 372 993 q 421 906 421 943 q 382 822 421 860 q 297 785 343 785 m 63 0 l 185 694 l 379 694 l 257 0 l 63 0 z "},"ї":{"ha":417,"x_min":63,"x_max":601,"o":"m 63 0 l 185 694 l 379 694 l 257 0 l 63 0 m 215 792 q 157 815 181 792 q 133 874 133 839 q 170 951 133 917 q 250 986 207 986 q 308 963 285 986 q 331 906 331 939 q 329 889 331 894 q 288 822 324 851 q 215 792 253 792 m 486 792 q 428 815 451 792 q 404 874 404 839 q 441 951 404 917 q 521 986 478 986 q 578 963 556 986 q 601 906 601 939 q 600 889 601 894 q 559 822 594 851 q 486 792 524 792 z "},"ј":{"ha":417,"x_min":-179,"x_max":449,"o":"m 325 785 q 263 810 288 785 q 238 872 238 836 q 276 956 238 919 q 363 993 315 993 q 424 968 400 993 q 449 906 449 943 q 410 822 449 860 q 325 785 371 785 m -35 -278 q -139 -257 -89 -278 q -179 -236 -162 -249 l -110 -118 l -96 -118 q -76 -136 -86 -131 q -28 -153 -56 -153 q 44 -126 15 -153 q 82 -42 72 -99 l 213 694 l 407 694 l 276 -42 q 176 -212 260 -147 q -35 -278 92 -278 z "},"ћ":{"ha":813,"x_min":76,"x_max":757,"o":"m 199 694 l 122 694 l 144 819 l 221 819 l 238 917 l 303 972 l 442 972 l 415 819 l 589 819 l 567 694 l 393 694 l 369 563 q 415 593 388 576 q 533 625 476 625 q 699 574 642 625 q 757 429 757 524 q 750 361 757 400 l 688 0 l 493 0 l 556 361 q 560 403 560 385 q 538 470 560 447 q 475 493 515 493 q 381 451 428 493 q 343 410 360 433 l 271 0 l 76 0 l 199 694 z "},"ю":{"ha":1042,"x_min":63,"x_max":1022,"o":"m 643 -14 q 453 56 515 -14 q 390 254 390 126 q 392 292 390 279 l 308 292 l 257 0 l 63 0 l 185 694 l 379 694 l 329 417 l 413 417 q 543 633 454 557 q 769 708 632 708 q 957 643 892 708 q 1022 449 1022 578 q 1013 347 1022 413 q 884 78 981 169 q 643 -14 788 -14 m 665 111 q 756 164 718 111 q 818 347 794 217 q 831 461 831 417 q 749 583 831 583 q 658 531 696 583 q 596 347 619 479 q 583 233 583 279 q 665 111 583 111 z "},"я":{"ha":757,"x_min":0,"x_max":747,"o":"m 108 -14 q 31 -4 67 -14 l 0 7 l 40 118 l 47 118 l 56 114 q 75 111 69 111 q 97 121 86 111 q 115 146 108 131 l 150 222 q 224 286 168 263 q 274 299 247 294 q 189 329 222 307 q 122 444 122 369 q 125 479 122 467 q 228 637 143 579 q 469 694 314 694 l 747 694 l 625 0 l 431 0 l 474 250 l 411 250 q 332 194 358 250 l 288 97 q 108 -14 236 -14 m 496 375 l 531 569 l 447 569 q 318 472 335 569 q 317 449 317 464 q 413 375 317 375 l 496 375 z "},"ђ":{"ha":806,"x_min":76,"x_max":757,"o":"m 396 -194 q 313 -181 354 -194 q 282 -167 294 -174 l 322 -56 l 336 -56 q 354 -62 343 -60 q 404 -69 375 -69 q 463 -42 438 -69 q 500 42 489 -14 l 556 361 q 560 403 560 385 q 538 470 560 447 q 475 493 515 493 q 381 451 428 493 q 343 410 360 433 l 271 0 l 76 0 l 199 694 l 122 694 l 144 819 l 221 819 l 238 917 l 303 972 l 442 972 l 415 819 l 589 819 l 567 694 l 393 694 l 369 563 q 415 593 388 576 q 533 625 476 625 q 699 574 642 625 q 757 429 757 524 q 750 361 757 400 l 694 42 q 594 -129 675 -64 q 396 -194 514 -194 z "},"ѣ":{"ha":758,"x_min":121,"x_max":742,"o":"m 465 472 q 676 428 611 472 q 742 293 742 383 q 736 236 742 264 q 632 59 715 118 q 382 0 549 0 l 125 0 l 225 569 l 121 569 l 143 694 l 247 694 l 296 972 l 490 972 l 442 694 l 657 694 l 635 569 l 419 569 l 403 472 l 465 472 m 542 236 q 544 264 544 256 q 519 326 544 304 q 443 347 493 347 l 381 347 l 342 125 l 404 125 q 497 153 463 125 q 542 236 532 182 z "},"ѫ":{"ha":992,"x_min":-57,"x_max":942,"o":"m 36 -14 q -57 7 -15 -14 l -17 118 l -10 118 q 17 111 -1 111 q 40 121 28 111 q 58 146 51 131 l 106 257 q 186 340 128 314 q 342 374 244 367 l 167 694 l 942 694 l 653 372 q 802 340 753 367 q 856 257 851 314 l 864 146 q 874 120 865 129 q 896 111 882 111 q 921 118 908 111 l 928 118 l 929 7 q 828 -14 885 -14 q 724 16 758 -14 q 688 97 690 46 l 678 236 q 662 278 675 264 q 618 292 649 292 l 583 292 l 532 0 l 338 0 l 389 292 l 354 292 q 306 278 324 292 q 275 236 288 264 l 215 97 q 36 -14 168 -14 m 493 347 l 499 347 l 688 569 l 382 569 l 493 347 z "},"ѳ":{"ha":750,"x_min":72,"x_max":731,"o":"m 464 708 q 662 643 593 708 q 731 449 731 578 q 721 347 731 411 q 590 76 689 167 q 338 -14 492 -14 q 140 50 208 -14 q 72 242 72 114 q 82 347 72 293 q 212 618 114 528 q 464 708 310 708 m 443 583 q 290 410 339 583 l 535 410 q 538 451 538 440 q 443 583 538 583 m 360 111 q 513 285 464 111 l 268 285 q 265 243 265 254 q 360 111 265 111 z "},"ѵ":{"ha":722,"x_min":101,"x_max":824,"o":"m 101 694 l 296 694 l 346 264 l 347 233 q 343 188 347 217 l 349 188 q 374 264 357 225 l 456 474 q 571 656 506 601 q 732 710 636 710 q 781 705 761 710 q 824 689 801 700 l 778 578 l 769 578 q 742 586 756 586 q 640 474 693 586 l 417 0 l 208 0 l 101 694 z "},"ғ":{"ha":597,"x_min":25,"x_max":671,"o":"m 649 569 l 357 569 l 329 410 l 492 410 l 469 285 l 307 285 l 257 0 l 63 0 l 113 285 l 25 285 l 47 410 l 135 410 l 185 694 l 671 694 l 649 569 z "},"ҕ":{"ha":728,"x_min":63,"x_max":701,"o":"m 486 433 q 645 382 589 433 q 701 233 701 331 q 696 167 701 199 l 674 42 q 574 -129 654 -64 q 375 -194 494 -194 q 310 -185 342 -194 q 263 -167 279 -176 l 303 -56 l 317 -56 q 347 -65 326 -61 q 383 -69 368 -69 q 444 -42 418 -69 q 479 42 469 -14 l 501 167 q 506 211 506 192 q 417 300 506 300 q 306 278 369 300 l 257 0 l 63 0 l 185 694 l 671 694 l 649 569 l 357 569 l 329 408 q 486 433 415 433 z "},"җ":{"ha":1069,"x_min":-7,"x_max":1114,"o":"m 1114 688 l 1074 576 l 1067 576 l 1058 579 q 1050 581 1056 579 q 1040 583 1044 583 q 1017 574 1029 583 q 999 549 1006 564 l 954 451 q 869 378 931 401 q 813 361 840 367 q 871 343 847 357 q 933 257 928 313 l 942 146 q 951 121 943 131 q 971 111 960 111 q 990 114 976 111 l 999 118 l 1006 118 l 1007 7 l 943 -194 l 811 -194 l 844 -10 q 753 97 757 10 l 742 236 q 727 278 740 264 q 683 292 714 292 l 649 292 l 597 0 l 403 0 l 454 292 l 419 292 q 370 278 389 292 q 339 236 351 264 l 281 97 q 101 -14 233 -14 q 24 -4 60 -14 l -7 7 l 33 118 l 40 118 l 49 114 q 68 111 63 111 q 90 121 79 111 q 108 146 101 131 l 156 257 q 249 343 182 314 q 313 361 278 357 q 261 378 282 368 q 204 451 210 403 l 193 549 q 184 574 192 564 q 165 583 176 583 q 146 579 163 583 l 136 576 l 129 576 l 128 688 l 161 697 q 242 708 203 708 q 382 597 372 708 l 394 472 q 410 431 397 444 q 454 417 424 417 l 475 417 l 525 694 l 719 694 l 669 417 l 690 417 q 739 431 721 417 q 769 472 757 444 l 826 597 q 1006 708 876 708 q 1083 697 1042 708 l 1114 688 z "},"ҙ":{"ha":646,"x_min":-4,"x_max":643,"o":"m 643 551 q 536 389 643 443 q 451 361 493 369 q 533 331 499 353 q 596 213 596 289 q 542 74 596 132 q 378 -3 488 17 l 343 -194 l 197 -194 l 204 -12 q 60 21 126 -6 q -4 56 28 33 l 78 167 l 92 167 q 131 139 108 150 q 263 111 179 111 q 403 201 388 111 q 404 221 404 208 q 301 292 404 292 l 183 292 l 204 417 l 322 417 q 405 440 374 417 q 443 507 436 464 l 444 519 q 419 566 444 549 q 339 583 393 583 q 215 556 268 583 q 169 528 193 544 l 156 528 l 113 639 q 186 674 151 661 q 374 708 282 708 q 578 665 513 708 q 643 551 643 622 z "},"қ":{"ha":750,"x_min":63,"x_max":794,"o":"m 794 688 l 754 576 l 747 576 l 739 579 q 731 581 736 579 q 721 583 725 583 q 698 574 710 583 q 679 549 686 564 l 635 451 q 550 378 611 401 q 493 361 521 367 q 551 343 528 357 q 614 257 608 313 l 622 146 q 632 121 624 131 q 651 111 640 111 q 671 114 657 111 l 679 118 l 686 118 l 688 7 l 624 -194 l 492 -194 l 525 -10 q 433 97 438 10 l 422 236 q 408 278 421 264 q 364 292 394 292 l 308 292 l 257 0 l 63 0 l 185 694 l 379 694 l 329 417 l 371 417 q 419 431 401 417 q 450 472 438 444 l 507 597 q 686 708 557 708 q 764 697 722 708 l 794 688 z "},"ҝ":{"ha":818,"x_min":63,"x_max":861,"o":"m 832 697 q 861 688 832 697 l 821 576 l 814 576 q 810 578 813 578 q 807 579 808 578 q 788 583 799 583 q 765 574 776 583 q 747 549 754 564 l 701 451 q 666 406 689 425 q 618 378 643 388 q 561 361 592 368 q 619 343 592 357 q 682 257 679 313 l 690 146 q 699 121 692 131 q 718 111 707 111 q 738 114 724 111 l 747 118 l 754 118 l 756 7 q 721 -4 733 -1 q 640 -14 672 -14 q 537 16 571 -14 q 500 97 503 46 l 490 236 q 477 275 488 261 q 443 292 467 289 l 421 167 l 344 167 l 367 292 l 308 292 l 257 0 l 63 0 l 185 694 l 379 694 l 331 417 l 389 417 l 408 528 l 485 528 l 465 419 q 518 472 500 431 l 575 597 q 754 708 625 708 q 832 697 806 708 z "},"ҡ":{"ha":861,"x_min":79,"x_max":906,"o":"m 906 688 l 865 576 l 858 576 l 850 579 q 842 581 847 579 q 832 583 836 583 q 809 574 821 583 q 790 549 797 564 l 746 451 q 661 378 722 401 q 604 361 632 367 q 663 343 639 357 q 725 257 719 313 l 733 146 q 743 121 735 131 q 763 111 751 111 q 782 114 768 111 l 790 118 l 797 118 l 799 7 q 765 -4 799 7 q 685 -14 729 -14 q 581 16 615 -14 q 544 97 547 46 l 533 236 q 519 278 532 264 q 475 292 506 292 l 419 292 l 368 0 l 174 0 l 274 569 l 79 569 l 101 694 l 490 694 l 440 417 l 482 417 q 531 431 513 417 q 561 472 549 444 l 618 597 q 797 708 668 708 q 875 697 833 708 l 906 688 z "},"ң":{"ha":806,"x_min":63,"x_max":796,"o":"m 796 694 l 696 125 l 786 125 l 729 -194 l 583 -194 l 590 0 l 479 0 l 531 292 l 308 292 l 257 0 l 63 0 l 185 694 l 379 694 l 329 417 l 551 417 l 601 694 l 796 694 z "},"ԥ":{"ha":806,"x_min":63,"x_max":796,"o":"m 796 694 l 696 125 l 786 125 l 729 -194 l 583 -194 l 590 0 l 479 0 l 579 569 l 357 569 l 257 0 l 63 0 l 185 694 l 796 694 z "},"ҫ":{"ha":660,"x_min":72,"x_max":696,"o":"m 464 583 q 346 530 392 583 q 276 347 300 476 q 267 249 267 294 q 299 143 267 175 q 394 111 331 111 q 506 139 456 111 q 550 167 531 151 l 564 167 l 607 56 q 535 21 565 32 q 417 -10 475 -3 l 383 -194 l 238 -194 l 244 -1 q 72 242 72 43 q 82 347 72 294 q 213 618 114 528 q 471 708 311 708 q 635 674 554 708 q 696 639 661 663 l 614 528 l 600 528 q 565 556 586 542 q 464 583 525 583 z "},"ү":{"ha":694,"x_min":101,"x_max":768,"o":"m 215 0 l 101 694 l 296 694 l 342 256 q 343 232 343 249 q 342 207 343 215 l 340 179 l 346 179 l 353 207 q 369 256 361 236 l 574 694 l 768 694 l 410 0 l 371 -222 l 306 -278 l 167 -278 l 215 0 z "},"ұ":{"ha":694,"x_min":79,"x_max":768,"o":"m 442 63 l 546 63 l 524 -62 l 399 -62 l 371 -222 l 306 -278 l 167 -278 l 204 -62 l 79 -62 l 101 63 l 206 63 l 101 694 l 296 694 l 342 256 q 343 232 343 249 q 342 207 343 215 l 340 179 l 346 179 l 353 207 q 369 256 361 236 l 574 694 l 768 694 l 442 63 z "},"ҷ":{"ha":764,"x_min":111,"x_max":754,"o":"m 654 125 l 744 125 l 688 -194 l 542 -194 l 549 0 l 438 0 l 479 243 q 446 232 479 243 q 344 222 407 222 q 169 269 228 222 q 111 406 111 317 q 117 465 111 438 l 157 694 l 351 694 l 311 465 q 307 432 307 447 q 331 369 307 390 q 401 347 356 347 q 475 357 446 347 q 488 362 481 360 q 501 368 494 364 l 560 694 l 754 694 l 654 125 z "},"ҹ":{"ha":764,"x_min":111,"x_max":754,"o":"m 754 694 l 632 0 l 438 0 l 479 243 q 446 232 479 243 q 408 225 444 232 l 389 115 l 313 115 l 331 222 q 166 272 221 225 q 111 406 111 319 q 117 465 111 438 l 157 694 l 351 694 l 311 465 q 307 431 307 447 q 354 356 307 375 l 375 476 l 451 476 l 429 349 q 475 357 458 351 q 488 362 481 360 q 501 368 494 364 l 560 694 l 754 694 z "},"һ":{"ha":799,"x_min":63,"x_max":757,"o":"m 224 917 l 289 972 l 428 972 l 369 646 q 415 676 388 660 q 533 708 476 708 q 699 657 642 708 q 757 510 757 606 q 751 444 757 474 l 674 0 l 479 0 l 557 444 q 561 485 561 468 q 539 553 561 531 q 476 576 517 576 q 381 535 428 576 q 343 493 360 517 l 257 0 l 63 0 l 224 917 z "},"ӏ":{"ha":389,"x_min":63,"x_max":428,"o":"m 63 0 l 224 917 l 289 972 l 428 972 l 257 0 l 63 0 z "},"ӂ":{"ha":1069,"x_min":-7,"x_max":1114,"o":"m 101 -14 q 24 -4 60 -14 l -7 7 l 33 118 l 40 118 l 49 114 q 68 111 63 111 q 90 121 79 111 q 108 146 101 131 l 156 257 q 249 343 182 314 q 313 361 278 357 q 261 378 282 368 q 204 451 210 403 l 193 549 q 184 574 192 564 q 165 583 176 583 q 146 579 163 583 l 136 576 l 129 576 l 128 688 l 161 697 q 242 708 203 708 q 382 597 372 708 l 394 472 q 410 431 397 444 q 454 417 424 417 l 475 417 l 525 694 l 719 694 l 669 417 l 690 417 q 739 431 721 417 q 769 472 757 444 l 826 597 q 1006 708 876 708 q 1083 697 1042 708 l 1114 688 l 1074 576 l 1067 576 l 1058 579 q 1050 581 1056 579 q 1040 583 1044 583 q 1017 574 1029 583 q 999 549 1006 564 l 954 451 q 869 378 931 401 q 813 361 840 367 q 871 343 847 357 q 933 257 928 313 l 942 146 q 951 121 943 131 q 971 111 960 111 q 990 114 976 111 l 999 118 l 1006 118 l 1007 7 q 974 -4 1007 7 q 893 -14 938 -14 q 790 16 824 -14 q 753 97 756 46 l 742 236 q 727 278 740 264 q 683 292 714 292 l 649 292 l 597 0 l 403 0 l 454 292 l 419 292 q 370 278 389 292 q 339 236 351 264 l 281 97 q 101 -14 233 -14 m 618 764 q 426 908 426 764 q 431 958 426 932 l 583 958 q 581 924 581 944 q 636 861 581 861 q 722 958 706 861 l 875 958 q 618 764 840 764 z "},"ӌ":{"ha":764,"x_min":111,"x_max":754,"o":"m 654 125 l 744 125 l 688 -194 l 542 -194 l 549 0 l 438 0 l 479 243 q 446 232 479 243 q 344 222 407 222 q 169 269 228 222 q 111 406 111 317 q 117 465 111 438 l 157 694 l 351 694 l 311 465 q 307 432 307 447 q 331 369 307 390 q 401 347 356 347 q 475 357 446 347 q 488 362 481 360 q 501 368 494 364 l 560 694 l 754 694 l 654 125 z "},"ӑ":{"ha":750,"x_min":51,"x_max":718,"o":"m 275 -14 q 109 33 167 -14 q 51 160 51 79 q 56 201 51 181 q 160 365 74 306 q 407 424 247 424 l 504 424 l 508 444 q 513 489 513 469 q 485 561 513 539 q 401 583 458 583 q 290 556 340 583 q 246 528 265 543 l 232 528 l 189 639 q 260 674 226 661 q 436 708 353 708 q 637 650 567 708 q 707 494 707 592 q 703 444 707 469 l 625 0 l 486 0 l 486 83 l 479 83 q 424 35 451 53 q 275 -14 354 -14 m 332 118 q 425 160 372 118 q 465 201 443 175 l 482 299 l 385 299 q 250 201 267 299 q 249 183 249 196 q 270 136 249 154 q 332 118 292 118 m 461 764 q 269 908 269 764 q 274 958 269 932 l 426 958 q 424 924 424 944 q 479 861 424 861 q 565 958 549 861 l 718 958 q 461 764 683 764 z "},"ӓ":{"ha":750,"x_min":51,"x_max":732,"o":"m 275 -14 q 109 33 167 -14 q 51 160 51 79 q 56 201 51 181 q 160 365 74 306 q 407 424 247 424 l 504 424 l 508 444 q 513 489 513 469 q 485 561 513 539 q 401 583 458 583 q 290 556 340 583 q 246 528 265 543 l 232 528 l 189 639 q 260 674 226 661 q 436 708 353 708 q 637 650 567 708 q 707 494 707 592 q 703 444 707 469 l 625 0 l 486 0 l 486 83 l 479 83 q 424 35 451 53 q 275 -14 354 -14 m 332 118 q 425 160 372 118 q 465 201 443 175 l 482 299 l 385 299 q 250 201 267 299 q 249 183 249 196 q 270 136 249 154 q 332 118 292 118 m 346 792 q 288 815 311 792 q 264 874 264 839 q 301 951 264 917 q 381 986 338 986 q 438 963 415 986 q 461 906 461 939 q 460 889 461 894 q 419 822 454 851 q 346 792 383 792 m 617 792 q 558 815 582 792 q 535 874 535 839 q 572 951 535 917 q 651 986 608 986 q 709 963 686 986 q 732 906 732 939 q 731 889 732 894 q 690 822 725 851 q 617 792 654 792 z "},"ӗ":{"ha":722,"x_min":72,"x_max":732,"o":"m 365 -14 q 72 243 72 -14 q 82 347 72 294 q 210 617 114 526 q 450 708 306 708 q 637 644 571 708 q 703 457 703 581 q 694 361 703 414 l 689 326 l 640 285 l 265 285 q 260 235 260 249 q 401 111 260 111 q 513 139 463 111 q 557 167 538 151 l 571 167 l 614 56 q 542 21 572 32 q 365 -14 456 -14 m 510 410 q 515 464 515 436 q 490 552 515 521 q 429 583 465 583 q 343 538 383 583 q 288 410 303 493 l 510 410 m 475 764 q 283 908 283 764 q 288 958 283 932 l 440 958 q 438 924 438 944 q 493 861 438 861 q 579 958 563 861 l 732 958 q 475 764 697 764 z "},"ә":{"ha":722,"x_min":19,"x_max":650,"o":"m 357 708 q 650 451 650 708 q 640 347 650 400 q 513 77 608 168 q 272 -14 417 -14 q 85 50 151 -14 q 19 238 19 114 q 28 333 19 282 l 33 368 l 82 410 l 457 410 q 463 460 463 446 q 321 583 463 583 q 210 556 260 583 q 165 528 185 543 l 151 528 l 108 639 q 181 674 150 663 q 357 708 267 708 m 213 285 q 207 231 207 258 q 232 142 207 174 q 293 111 257 111 q 379 156 339 111 q 435 285 419 201 l 213 285 z "},"ӝ":{"ha":1069,"x_min":-7,"x_max":1114,"o":"m 101 -14 q 24 -4 60 -14 l -7 7 l 33 118 l 40 118 l 49 114 q 68 111 63 111 q 90 121 79 111 q 108 146 101 131 l 156 257 q 249 343 182 314 q 313 361 278 357 q 261 378 282 368 q 204 451 210 403 l 193 549 q 184 574 192 564 q 165 583 176 583 q 146 579 163 583 l 136 576 l 129 576 l 128 688 l 161 697 q 242 708 203 708 q 382 597 372 708 l 394 472 q 410 431 397 444 q 454 417 424 417 l 475 417 l 525 694 l 719 694 l 669 417 l 690 417 q 739 431 721 417 q 769 472 757 444 l 826 597 q 1006 708 876 708 q 1083 697 1042 708 l 1114 688 l 1074 576 l 1067 576 l 1058 579 q 1050 581 1056 579 q 1040 583 1044 583 q 1017 574 1029 583 q 999 549 1006 564 l 954 451 q 869 378 931 401 q 813 361 840 367 q 871 343 847 357 q 933 257 928 313 l 942 146 q 951 121 943 131 q 971 111 960 111 q 990 114 976 111 l 999 118 l 1006 118 l 1007 7 q 974 -4 1007 7 q 893 -14 938 -14 q 790 16 824 -14 q 753 97 756 46 l 742 236 q 727 278 740 264 q 683 292 714 292 l 649 292 l 597 0 l 403 0 l 454 292 l 419 292 q 370 278 389 292 q 339 236 351 264 l 281 97 q 101 -14 233 -14 m 503 792 q 444 815 468 792 q 421 874 421 839 q 458 951 421 917 q 538 986 494 986 q 595 963 572 986 q 618 906 618 939 q 617 889 618 894 q 576 822 611 851 q 503 792 540 792 m 774 792 q 715 815 739 792 q 692 874 692 839 q 728 951 692 917 q 808 986 765 986 q 866 963 843 986 q 889 906 889 939 q 888 889 889 894 q 847 822 882 851 q 774 792 811 792 z "},"ӟ":{"ha":646,"x_min":-4,"x_max":653,"o":"m 254 -14 q 60 21 143 -14 q -4 56 28 33 l 78 167 l 92 167 q 131 139 108 150 q 263 111 179 111 q 403 201 388 111 q 404 221 404 208 q 301 292 404 292 l 183 292 l 204 417 l 322 417 q 405 440 374 417 q 443 507 436 464 l 444 519 q 419 566 444 549 q 339 583 393 583 q 215 556 268 583 q 169 528 193 544 l 156 528 l 113 639 q 186 674 151 661 q 374 708 282 708 q 578 665 513 708 q 643 551 643 622 q 536 389 643 443 q 451 361 493 369 q 533 331 499 353 q 596 213 596 289 q 512 49 596 111 q 254 -14 428 -14 m 267 792 q 208 815 232 792 q 185 874 185 839 q 222 951 185 917 q 301 986 258 986 q 359 963 336 986 q 382 906 382 939 q 381 889 382 894 q 340 822 375 851 q 267 792 304 792 m 538 792 q 479 815 503 792 q 456 874 456 839 q 492 951 456 917 q 572 986 529 986 q 630 963 607 986 q 653 906 653 939 q 651 889 653 894 q 610 822 646 851 q 538 792 575 792 z "},"ӣ":{"ha":806,"x_min":63,"x_max":796,"o":"m 185 694 l 365 694 l 297 313 q 287 265 293 290 q 278 229 281 240 l 283 229 q 332 313 307 279 l 622 694 l 796 694 l 674 0 l 493 0 l 563 382 q 582 465 568 414 l 576 465 q 554 421 563 435 q 528 382 546 407 l 236 0 l 63 0 l 185 694 m 307 792 l 329 917 l 732 917 l 710 792 l 307 792 z "},"ӥ":{"ha":806,"x_min":63,"x_max":796,"o":"m 185 694 l 365 694 l 297 313 q 287 265 293 290 q 278 229 281 240 l 283 229 q 332 313 307 279 l 622 694 l 796 694 l 674 0 l 493 0 l 563 382 q 582 465 568 414 l 576 465 q 554 421 563 435 q 528 382 546 407 l 236 0 l 63 0 l 185 694 m 374 792 q 315 815 339 792 q 292 874 292 839 q 328 951 292 917 q 408 986 365 986 q 466 963 443 986 q 489 906 489 939 q 488 889 489 894 q 447 822 482 851 q 374 792 411 792 m 644 792 q 586 815 610 792 q 563 874 563 839 q 599 951 563 917 q 679 986 636 986 q 737 963 714 986 q 760 906 760 939 q 758 889 760 894 q 717 822 753 851 q 644 792 682 792 z "},"ӧ":{"ha":750,"x_min":72,"x_max":744,"o":"m 338 -14 q 140 50 208 -14 q 72 242 72 114 q 82 347 72 293 q 212 618 114 528 q 464 708 310 708 q 662 643 593 708 q 731 449 731 578 q 721 347 731 411 q 590 76 689 167 q 338 -14 492 -14 m 360 111 q 526 347 483 111 q 538 451 538 411 q 443 583 538 583 q 276 347 319 583 q 265 243 265 283 q 360 111 265 111 m 358 792 q 300 815 324 792 q 276 874 276 839 q 313 951 276 917 q 393 986 350 986 q 451 963 428 986 q 474 906 474 939 q 472 889 474 894 q 431 822 467 851 q 358 792 396 792 m 629 792 q 571 815 594 792 q 547 874 547 839 q 584 951 547 917 q 664 986 621 986 q 722 963 699 986 q 744 906 744 939 q 743 889 744 894 q 702 822 738 851 q 629 792 667 792 z "},"ө":{"ha":750,"x_min":72,"x_max":731,"o":"m 464 708 q 662 643 593 708 q 731 449 731 578 q 721 347 731 411 q 590 76 689 167 q 338 -14 492 -14 q 140 50 208 -14 q 72 242 72 114 q 82 347 72 293 q 212 618 114 528 q 464 708 310 708 m 443 583 q 290 410 339 583 l 535 410 q 538 451 538 440 q 443 583 538 583 m 360 111 q 513 285 464 111 l 268 285 q 265 243 265 254 q 360 111 265 111 z "},"ӯ":{"ha":701,"x_min":-31,"x_max":775,"o":"m 114 -292 q 10 -271 60 -292 q -31 -250 -14 -262 l 39 -132 l 53 -132 q 72 -150 63 -144 q 122 -167 93 -167 q 183 -142 154 -167 q 232 -69 211 -117 l 264 0 l 208 0 l 101 694 l 296 694 l 354 243 q 356 194 357 211 l 353 167 l 358 167 q 365 194 360 174 q 382 243 368 206 l 581 694 l 775 694 l 411 -69 q 114 -292 304 -292 m 242 792 l 264 917 l 667 917 l 644 792 l 242 792 z "},"ӱ":{"ha":701,"x_min":-31,"x_max":775,"o":"m 114 -292 q 10 -271 60 -292 q -31 -250 -14 -262 l 39 -132 l 53 -132 q 72 -150 63 -144 q 122 -167 93 -167 q 183 -142 154 -167 q 232 -69 211 -117 l 264 0 l 208 0 l 101 694 l 296 694 l 354 243 q 356 194 357 211 l 353 167 l 358 167 q 365 194 360 174 q 382 243 368 206 l 581 694 l 775 694 l 411 -69 q 114 -292 304 -292 m 308 792 q 250 815 274 792 q 226 874 226 839 q 263 951 226 917 q 343 986 300 986 q 401 963 378 986 q 424 906 424 939 q 422 889 424 894 q 381 822 417 851 q 308 792 346 792 m 579 792 q 521 815 544 792 q 497 874 497 839 q 534 951 497 917 q 614 986 571 986 q 672 963 649 986 q 694 906 694 939 q 693 889 694 894 q 652 822 688 851 q 579 792 617 792 z "},"ӳ":{"ha":701,"x_min":-31,"x_max":775,"o":"m 114 -292 q 10 -271 60 -292 q -31 -250 -14 -262 l 39 -132 l 53 -132 q 72 -150 63 -144 q 122 -167 93 -167 q 183 -142 154 -167 q 232 -69 211 -117 l 264 0 l 208 0 l 101 694 l 296 694 l 354 243 q 356 194 357 211 l 353 167 l 358 167 q 365 194 360 174 q 382 243 368 206 l 581 694 l 775 694 l 411 -69 q 114 -292 304 -292 m 283 764 l 383 972 l 536 972 l 374 764 l 283 764 m 499 764 l 599 972 l 751 972 l 589 764 l 499 764 z "},"ӵ":{"ha":764,"x_min":111,"x_max":754,"o":"m 479 243 q 446 232 479 243 q 344 222 407 222 q 169 269 228 222 q 111 406 111 317 q 117 465 111 438 l 157 694 l 351 694 l 311 465 q 307 432 307 447 q 331 369 307 390 q 401 347 356 347 q 475 357 446 347 q 488 362 481 360 q 501 368 494 364 l 560 694 l 754 694 l 632 0 l 438 0 l 479 243 m 325 792 q 267 815 290 792 q 243 874 243 839 q 280 951 243 917 q 360 986 317 986 q 417 963 394 986 q 440 906 440 939 q 439 889 440 894 q 398 822 433 851 q 325 792 363 792 m 596 792 q 538 815 561 792 q 514 874 514 839 q 551 951 514 917 q 631 986 588 986 q 688 963 665 986 q 711 906 711 939 q 710 889 711 894 q 669 822 704 851 q 596 792 633 792 z "},"ӷ":{"ha":597,"x_min":63,"x_max":671,"o":"m 649 569 l 357 569 l 279 125 l 369 125 l 313 -194 l 167 -194 l 174 0 l 63 0 l 185 694 l 671 694 l 649 569 z "},"ӹ":{"ha":1049,"x_min":63,"x_max":1039,"o":"m 185 694 l 379 694 l 339 472 l 388 472 q 599 428 533 472 q 664 294 664 383 q 658 236 664 264 q 555 59 638 118 q 306 0 472 0 l 63 0 l 185 694 m 722 0 l 844 694 l 1039 694 l 917 0 l 722 0 m 326 125 q 419 153 385 125 q 464 236 454 182 q 467 264 467 256 q 367 347 467 347 l 318 347 l 278 125 l 326 125 m 496 792 q 438 815 461 792 q 414 874 414 839 q 451 951 414 917 q 531 986 488 986 q 588 963 565 986 q 611 906 611 939 q 610 889 611 894 q 569 822 604 851 q 496 792 533 792 m 767 792 q 708 815 732 792 q 685 874 685 839 q 722 951 685 917 q 801 986 758 986 q 859 963 836 986 q 882 906 882 939 q 881 889 882 894 q 840 822 875 851 q 767 792 804 792 z "},"ԛ":{"ha":778,"x_min":72,"x_max":768,"o":"m 411 -222 l 456 28 q 414 7 438 15 q 310 -14 364 -14 q 135 51 197 -14 q 72 240 72 115 q 82 347 72 293 q 204 616 111 524 q 422 708 297 708 q 554 660 497 708 q 593 611 582 632 l 600 611 l 629 694 l 768 694 l 596 -278 l 457 -278 l 411 -222 m 367 111 q 446 132 407 111 q 478 153 464 142 l 538 493 q 515 535 532 514 q 435 576 482 576 q 340 522 382 576 q 276 347 297 468 q 265 244 265 283 q 367 111 265 111 z "},"ԝ":{"ha":1042,"x_min":101,"x_max":1115,"o":"m 101 694 l 296 694 l 325 313 q 326 289 326 306 q 325 264 326 272 l 322 236 l 328 236 q 336 264 329 249 q 353 313 339 275 l 511 694 l 706 694 l 728 313 q 729 289 729 306 q 728 264 729 272 l 725 236 l 731 236 q 739 264 732 249 q 756 313 742 275 l 921 694 l 1115 694 l 806 0 l 611 0 l 572 410 l 571 433 l 572 458 q 574 486 572 476 l 568 486 l 560 458 q 544 410 553 432 l 361 0 l 167 0 l 101 694 z "},"Ҥ":{"ha":1147,"x_min":83,"x_max":1268,"o":"m 1268 972 l 1247 847 l 914 847 l 913 849 l 764 0 l 569 0 l 644 431 l 353 431 l 278 0 l 83 0 l 254 972 l 449 972 l 375 556 l 667 556 l 740 972 l 1268 972 z "},"ҥ":{"ha":943,"x_min":63,"x_max":1017,"o":"m 1017 694 l 994 569 l 774 569 l 674 0 l 479 0 l 531 292 l 308 292 l 257 0 l 63 0 l 185 694 l 379 694 l 329 417 l 551 417 l 601 694 l 1017 694 z "},"Ӕ":{"ha":1174,"x_min":-69,"x_max":1275,"o":"m -69 0 l 511 972 l 1275 972 l 1253 847 l 864 847 l 815 569 l 1121 569 l 1099 444 l 793 444 l 736 125 l 1125 125 l 1104 0 l 521 0 l 567 264 l 282 264 l 125 0 l -69 0 m 360 389 l 589 389 l 669 847 l 628 847 l 360 389 z "},"ӕ":{"ha":1132,"x_min":51,"x_max":1113,"o":"m 275 -14 q 109 33 167 -14 q 51 160 51 79 q 56 201 51 181 q 160 365 74 306 q 407 424 247 424 l 504 424 l 508 444 q 513 489 513 469 q 485 561 513 539 q 401 583 458 583 q 290 556 340 583 q 246 528 265 543 l 232 528 l 189 639 q 260 674 226 661 q 436 708 353 708 q 565 685 517 708 q 644 625 613 663 q 860 708 739 708 q 1047 644 981 708 q 1113 457 1113 581 q 1104 361 1113 414 l 1099 326 l 1050 285 l 675 285 q 669 235 669 249 q 811 111 669 111 q 922 139 872 111 q 967 167 947 151 l 981 167 l 1024 56 q 951 21 982 32 q 775 -14 865 -14 q 626 15 685 -14 q 535 86 567 44 q 275 -14 425 -14 m 919 410 q 925 464 925 436 q 900 552 925 521 q 839 583 875 583 q 753 538 793 583 q 697 410 713 493 l 919 410 m 332 118 q 425 160 372 118 q 465 201 443 175 l 482 299 l 385 299 q 250 201 267 299 q 249 183 249 196 q 270 136 249 154 q 332 118 292 118 z "},"¹":{"ha":438,"x_min":101,"x_max":482,"o":"m 101 500 l 121 611 l 218 611 l 256 826 l 181 792 l 144 861 l 296 972 l 449 972 l 385 611 l 482 611 l 463 500 l 101 500 z "},"²":{"ha":493,"x_min":101,"x_max":557,"o":"m 117 583 q 153 667 125 633 q 215 720 181 700 q 300 763 249 740 q 364 794 343 781 q 388 826 385 807 q 378 862 392 849 q 335 875 365 875 q 263 854 307 875 l 228 833 l 214 833 l 181 924 q 239 954 203 938 q 382 986 317 986 q 513 951 468 986 q 557 857 557 915 q 554 826 557 846 q 502 737 546 768 q 383 676 458 706 q 313 644 336 658 q 288 611 290 631 l 517 611 l 497 500 l 101 500 l 117 583 z "},"³":{"ha":501,"x_min":110,"x_max":554,"o":"m 289 486 q 157 517 221 486 q 110 549 128 532 l 176 639 l 190 639 q 217 618 200 628 q 281 597 249 597 q 328 611 310 597 q 350 646 347 625 q 340 681 354 668 q 292 694 326 694 l 200 694 l 214 778 l 375 861 l 188 861 l 207 972 l 554 972 l 533 854 l 389 785 q 494 747 457 781 q 532 663 532 713 q 502 578 532 619 q 417 512 472 538 q 289 486 361 486 z "},"⁴":{"ha":542,"x_min":103,"x_max":581,"o":"m 318 500 l 332 583 l 103 583 l 122 694 l 407 972 l 567 972 l 518 694 l 581 694 l 561 583 l 499 583 l 485 500 l 318 500 m 351 694 l 368 785 q 375 811 368 794 l 382 826 l 376 826 q 367 811 371 815 q 346 783 354 789 l 254 694 l 351 694 z "},"⁄":{"ha":653,"x_min":-200,"x_max":832,"o":"m -200 0 l 624 972 l 832 972 l 8 0 l -200 0 z "},"½":{"ha":1118,"x_min":108,"x_max":1143,"o":"m 108 500 l 128 611 l 225 611 l 263 826 l 188 792 l 151 861 l 317 972 l 456 972 l 392 611 l 489 611 l 469 500 l 108 500 m 111 0 l 935 972 l 1143 972 l 319 0 l 111 0 m 639 83 q 675 167 647 133 q 737 219 703 200 q 822 263 771 239 q 887 294 865 281 q 911 326 908 307 q 901 362 914 349 q 857 375 888 375 q 824 369 839 375 q 786 354 808 364 l 751 333 l 738 333 l 703 424 q 761 454 725 438 q 904 486 839 486 q 1035 450 990 486 q 1081 354 1081 414 q 1034 247 1081 285 q 907 178 988 210 q 835 144 857 157 q 811 111 814 131 l 1040 111 l 1021 0 l 625 0 l 639 83 z "},"¼":{"ha":1097,"x_min":108,"x_max":1143,"o":"m 108 500 l 128 611 l 225 611 l 263 826 l 188 792 l 151 861 l 317 972 l 456 972 l 392 611 l 489 611 l 469 500 l 108 500 m 111 0 l 935 972 l 1143 972 l 319 0 l 111 0 m 785 0 l 799 83 l 569 83 l 589 194 l 874 472 l 1033 472 l 985 194 l 1047 194 l 1028 83 l 965 83 l 951 0 l 785 0 m 818 194 l 835 285 q 842 311 835 294 l 849 326 l 843 326 q 833 311 838 315 q 813 283 821 289 l 721 194 l 818 194 z "},"¾":{"ha":1078,"x_min":92,"x_max":1124,"o":"m 92 0 l 915 972 l 1124 972 l 300 0 l 92 0 m 275 486 q 143 517 207 486 q 96 549 114 532 l 163 639 l 176 639 q 203 618 186 628 q 267 597 235 597 q 315 611 296 597 q 336 646 333 625 q 326 681 340 668 q 278 694 313 694 l 186 694 l 200 778 l 361 861 l 174 861 l 193 972 l 540 972 l 519 854 l 375 785 q 481 747 443 781 q 518 663 518 713 q 488 578 518 619 q 403 512 458 538 q 275 486 347 486 m 765 0 l 779 83 l 550 83 l 569 194 l 854 472 l 1014 472 l 965 194 l 1028 194 l 1008 83 l 946 83 l 932 0 l 765 0 m 799 194 l 815 285 q 822 311 815 294 l 829 326 l 824 326 q 814 311 818 315 q 793 283 801 289 l 701 194 l 799 194 z "},"*":{"ha":611,"x_min":119,"x_max":674,"o":"m 504 972 l 478 822 l 631 903 l 674 792 l 526 715 l 647 639 l 565 528 l 440 607 l 414 458 l 289 458 l 315 607 l 163 528 l 119 639 l 265 715 l 146 792 l 228 903 l 353 822 l 379 972 l 504 972 z "},"\\":{"ha":625,"x_min":136,"x_max":590,"o":"m 590 0 l 396 0 l 136 972 l 331 972 l 590 0 z "},"·":{"ha":417,"x_min":153,"x_max":364,"o":"m 276 590 q 339 565 314 590 q 364 503 364 539 q 325 419 364 457 q 240 382 286 382 q 178 408 203 382 q 153 469 153 433 q 192 553 153 515 q 276 590 231 590 z "},"•":{"ha":597,"x_min":142,"x_max":536,"o":"m 536 465 q 503 350 536 403 q 417 267 471 297 q 304 236 364 236 q 186 281 231 236 q 142 396 142 325 q 174 511 142 458 q 260 594 207 564 q 374 625 314 625 q 492 581 447 625 q 536 465 536 536 z "},":":{"ha":306,"x_min":28,"x_max":329,"o":"m 242 708 q 304 683 279 708 q 329 621 329 657 q 290 538 329 575 q 206 500 251 500 q 143 526 168 500 q 118 588 118 551 q 157 671 118 633 q 242 708 196 708 m 151 194 q 214 169 189 194 q 239 107 239 143 q 200 24 239 61 q 115 -14 161 -14 q 53 12 78 -14 q 28 74 28 38 q 67 157 28 119 q 151 194 106 194 z "},",":{"ha":306,"x_min":4,"x_max":238,"o":"m 28 74 q 46 132 28 104 q 91 177 64 160 q 144 194 118 194 q 212 169 186 194 q 238 101 238 143 q 235 76 238 93 q 122 -131 213 -51 q 36 -187 82 -167 l 4 -132 q 56 -99 35 -115 q 115 -14 107 -58 q 53 12 78 -14 q 28 74 28 38 z "},"…":{"ha":917,"x_min":28,"x_max":850,"o":"m 151 194 q 214 169 189 194 q 239 107 239 143 q 200 24 239 61 q 115 -14 161 -14 q 53 12 78 -14 q 28 74 28 38 q 67 157 28 119 q 151 194 106 194 m 457 194 q 519 169 494 194 q 544 107 544 143 q 506 24 544 61 q 421 -14 467 -14 q 358 12 383 -14 q 333 74 333 38 q 372 157 333 119 q 457 194 411 194 m 763 194 q 825 169 800 194 q 850 107 850 143 q 811 24 850 61 q 726 -14 772 -14 q 664 12 689 -14 q 639 74 639 38 q 678 157 639 119 q 763 194 717 194 z "},"!":{"ha":403,"x_min":76,"x_max":449,"o":"m 226 972 l 449 972 l 299 278 l 132 278 l 226 972 m 200 194 q 263 169 238 194 q 288 107 288 143 q 249 24 288 61 q 164 -14 210 -14 q 101 12 126 -14 q 76 74 76 38 q 115 157 76 119 q 200 194 154 194 z "},"¡":{"ha":403,"x_min":6,"x_max":378,"o":"m 254 500 q 192 526 217 500 q 167 588 167 551 q 206 671 167 633 q 290 708 244 708 q 353 683 328 708 q 378 621 378 657 q 339 538 378 575 q 254 500 300 500 m 156 417 l 322 417 l 228 -278 l 6 -278 l 156 417 z "},"#":{"ha":926,"x_min":26,"x_max":1000,"o":"m 549 736 l 688 736 l 792 972 l 972 972 l 868 736 l 1000 736 l 978 611 l 818 611 l 711 361 l 854 361 l 832 236 l 654 236 l 551 0 l 371 0 l 474 236 l 335 236 l 232 0 l 51 0 l 154 236 l 26 236 l 49 361 l 211 361 l 318 611 l 172 611 l 194 736 l 368 736 l 472 972 l 653 972 l 549 736 m 392 361 l 531 361 l 638 611 l 499 611 l 392 361 z "},".":{"ha":306,"x_min":28,"x_max":239,"o":"m 151 194 q 214 169 189 194 q 239 107 239 143 q 200 24 239 61 q 115 -14 161 -14 q 53 12 78 -14 q 28 74 28 38 q 67 157 28 119 q 151 194 106 194 z "},"?":{"ha":681,"x_min":125,"x_max":728,"o":"m 424 986 q 652 928 576 986 q 728 772 728 871 q 724 722 728 747 q 681 610 713 657 q 613 534 650 564 q 518 467 576 504 q 422 394 454 424 q 382 319 390 364 l 375 278 l 194 278 l 201 319 q 238 422 211 378 q 299 494 265 465 q 385 560 332 522 q 486 643 450 606 q 532 736 522 681 q 533 758 533 743 q 496 833 533 806 q 388 861 458 861 q 235 829 307 861 q 182 799 204 815 l 168 799 l 125 910 q 204 947 158 931 q 424 986 300 986 m 269 194 q 332 169 307 194 q 357 107 357 143 q 318 24 357 61 q 233 -14 279 -14 q 171 12 196 -14 q 146 74 146 38 q 185 157 146 119 q 269 194 224 194 z "},"¿":{"ha":681,"x_min":4,"x_max":607,"o":"m 463 500 q 400 526 425 500 q 375 588 375 551 q 414 671 375 633 q 499 708 453 708 q 561 683 536 708 q 586 621 586 657 q 547 538 586 575 q 463 500 508 500 m 308 -292 q 80 -234 156 -292 q 4 -78 4 -176 q 8 -28 4 -53 q 51 85 19 38 q 119 162 82 132 q 214 229 156 192 q 310 300 278 269 q 350 375 342 331 l 357 417 l 538 417 l 531 375 q 494 272 521 315 q 433 199 467 228 q 347 135 400 171 q 244 50 279 86 q 200 -42 210 14 q 199 -64 199 -49 q 236 -139 199 -111 q 344 -167 274 -167 q 497 -136 428 -167 q 550 -104 529 -121 l 564 -104 l 607 -215 q 528 -254 576 -236 q 308 -292 435 -292 z "},"\"":{"ha":528,"x_min":160,"x_max":615,"o":"m 185 972 l 372 972 l 278 632 l 160 632 l 185 972 m 428 972 l 615 972 l 521 632 l 403 632 l 428 972 z "},"'":{"ha":285,"x_min":160,"x_max":372,"o":"m 185 972 l 372 972 l 278 632 l 160 632 l 185 972 z "},";":{"ha":306,"x_min":4,"x_max":329,"o":"m 242 708 q 304 683 279 708 q 329 621 329 657 q 290 538 329 575 q 206 500 251 500 q 143 526 168 500 q 118 588 118 551 q 157 671 118 633 q 242 708 196 708 m 28 74 q 46 132 28 104 q 91 177 64 160 q 144 194 118 194 q 212 169 186 194 q 238 101 238 143 q 235 76 238 93 q 122 -131 213 -51 q 36 -187 82 -167 l 4 -132 q 56 -99 35 -115 q 115 -14 107 -58 q 53 12 78 -14 q 28 74 28 38 z "},"/":{"ha":625,"x_min":-35,"x_max":761,"o":"m 567 972 l 761 972 l 160 0 l -35 0 l 567 972 z "},"_":{"ha":542,"x_min":-68,"x_max":496,"o":"m -68 -194 l -44 -56 l 496 -56 l 472 -194 l -68 -194 z "},"{":{"ha":465,"x_min":50,"x_max":594,"o":"m 235 389 q 292 361 268 383 q 332 256 332 321 q 328 208 332 236 l 286 -28 q 285 -47 285 -35 q 302 -93 285 -75 q 347 -111 319 -111 l 396 -111 l 375 -236 l 326 -236 q 147 -193 206 -236 q 88 -71 88 -150 q 92 -28 88 -51 l 133 208 q 138 256 138 236 q 117 310 138 294 q 50 326 97 326 l 72 451 q 158 477 131 451 q 197 569 185 503 l 239 806 q 332 959 256 904 q 546 1014 408 1014 l 594 1014 l 572 889 l 524 889 q 466 865 492 889 q 433 806 440 842 l 392 569 q 303 417 372 460 q 235 389 275 396 z "},"}":{"ha":465,"x_min":-61,"x_max":482,"o":"m 297 389 q 240 417 261 396 q 200 521 200 451 q 204 569 200 543 l 246 806 q 247 824 247 813 q 229 871 247 853 q 183 889 211 889 l 135 889 l 157 1014 l 206 1014 q 385 971 326 1014 q 444 849 444 928 q 440 806 444 829 l 399 569 q 393 521 393 533 q 414 467 393 483 q 482 451 435 451 l 460 326 q 374 301 401 326 q 335 208 346 275 l 293 -28 q 200 -181 276 -126 q -14 -236 124 -236 l -61 -236 l -40 -111 l 7 -111 q 65 -87 39 -111 q 99 -28 92 -64 l 140 208 q 229 361 160 313 q 297 389 261 382 z "},"[":{"ha":465,"x_min":42,"x_max":594,"o":"m 375 -236 l 42 -236 l 261 1014 l 594 1014 l 572 889 l 433 889 l 257 -111 l 396 -111 l 375 -236 z "},"]":{"ha":465,"x_min":-61,"x_max":490,"o":"m -40 -111 l 97 -111 l 274 889 l 135 889 l 157 1014 l 490 1014 l 271 -236 l -61 -236 l -40 -111 z "},"(":{"ha":444,"x_min":96,"x_max":578,"o":"m 304 389 q 283 178 283 275 q 378 -181 283 -24 l 288 -257 q 147 -42 197 -169 q 96 233 96 86 q 110 389 96 314 q 252 753 142 582 q 515 1035 363 925 l 578 958 q 403 708 471 846 q 304 389 336 571 z "},")":{"ha":444,"x_min":-65,"x_max":414,"o":"m 207 389 q 226 597 226 496 q 133 958 226 800 l 224 1035 q 364 817 314 946 q 414 539 414 689 q 401 389 414 467 q 257 24 365 194 q -4 -257 149 -147 l -65 -181 q 108 70 40 -67 q 207 389 175 207 z "},"—":{"ha":1028,"x_min":65,"x_max":1033,"o":"m 65 333 l 89 472 l 1033 472 l 1010 333 l 65 333 z "},"–":{"ha":736,"x_min":65,"x_max":742,"o":"m 65 333 l 89 472 l 742 472 l 718 333 l 65 333 z "},"-":{"ha":625,"x_min":75,"x_max":642,"o":"m 75 389 l 100 528 l 642 528 l 617 389 l 75 389 z "},"­":{"ha":639,"x_min":82,"x_max":649,"o":"m 82 389 l 107 528 l 649 528 l 624 389 l 82 389 z "},"«":{"ha":722,"x_min":40,"x_max":753,"o":"m 421 97 l 290 -7 l 40 347 l 415 701 l 508 597 l 249 347 l 421 97 m 661 639 l 753 535 l 561 347 l 688 160 l 558 56 l 353 347 l 661 639 z "},"»":{"ha":722,"x_min":21,"x_max":735,"o":"m 526 347 l 353 597 l 485 701 l 735 347 l 360 -7 l 265 97 l 526 347 m 422 347 l 114 56 l 21 160 l 214 347 l 86 535 l 217 639 l 422 347 z "},"‹":{"ha":472,"x_min":28,"x_max":551,"o":"m 343 653 l 551 653 l 236 361 l 449 69 l 240 69 l 28 361 l 343 653 z "},"›":{"ha":472,"x_min":-24,"x_max":500,"o":"m 500 361 l 185 69 l -24 69 l 292 361 l 79 653 l 288 653 l 500 361 z "},"„":{"ha":569,"x_min":4,"x_max":501,"o":"m 28 74 q 46 132 28 104 q 91 177 64 160 q 144 194 118 194 q 212 169 186 194 q 238 101 238 143 q 235 76 238 93 q 122 -131 213 -51 q 36 -187 82 -167 l 4 -132 q 56 -99 35 -115 q 115 -14 107 -58 q 53 12 78 -14 q 28 74 28 38 m 292 74 q 310 132 292 104 q 355 177 328 160 q 408 194 382 194 q 476 169 450 194 q 501 101 501 143 q 499 76 501 93 q 386 -131 476 -51 q 300 -187 346 -167 l 268 -132 q 319 -99 299 -115 q 379 -14 371 -58 q 317 12 342 -14 q 292 74 292 38 z "},"“":{"ha":569,"x_min":138,"x_max":636,"o":"m 347 725 q 330 667 347 696 q 285 622 313 639 q 231 604 257 604 q 163 630 189 604 q 138 697 138 656 q 140 722 138 706 q 254 929 164 849 q 340 986 294 965 l 372 931 q 321 897 342 914 q 261 813 268 856 q 323 788 299 813 q 347 725 347 763 m 611 725 q 594 667 611 696 q 549 622 576 639 q 494 604 521 604 q 427 630 453 604 q 401 697 401 656 q 404 722 401 706 q 518 929 428 849 q 604 986 558 965 l 636 931 q 585 897 606 914 q 525 813 532 856 q 587 788 563 813 q 611 725 611 763 z "},"”":{"ha":569,"x_min":143,"x_max":642,"o":"m 167 865 q 185 924 167 896 q 231 969 203 951 q 285 986 258 986 q 352 960 326 986 q 378 893 378 935 q 375 868 378 885 q 261 661 353 742 q 175 604 221 625 l 143 660 q 194 693 174 676 q 254 778 246 733 q 192 803 217 778 q 167 865 167 829 m 431 865 q 449 924 431 896 q 494 969 467 951 q 549 986 522 986 q 616 960 590 986 q 642 893 642 935 q 639 868 642 885 q 525 661 617 742 q 439 604 485 625 l 407 660 q 458 693 438 676 q 518 778 510 733 q 456 803 481 778 q 431 865 431 829 z "},"‘":{"ha":306,"x_min":138,"x_max":372,"o":"m 347 725 q 330 667 347 696 q 285 622 313 639 q 231 604 257 604 q 163 630 189 604 q 138 697 138 656 q 140 722 138 706 q 254 929 164 849 q 340 986 294 965 l 372 931 q 321 897 342 914 q 261 813 268 856 q 323 788 299 813 q 347 725 347 763 z "},"’":{"ha":306,"x_min":143,"x_max":378,"o":"m 167 865 q 185 924 167 896 q 231 969 203 951 q 285 986 258 986 q 352 960 326 986 q 378 893 378 935 q 375 868 378 885 q 261 661 353 742 q 175 604 221 625 l 143 660 q 194 693 174 676 q 254 778 246 733 q 192 803 217 778 q 167 865 167 829 z "},"‚":{"ha":306,"x_min":4,"x_max":238,"o":"m 28 74 q 46 132 28 104 q 91 177 64 160 q 144 194 118 194 q 212 169 186 194 q 238 101 238 143 q 235 76 238 93 q 122 -131 213 -51 q 36 -187 82 -167 l 4 -132 q 56 -99 35 -115 q 115 -14 107 -58 q 53 12 78 -14 q 28 74 28 38 z "}," ":{"ha":417,"x_min":0,"x_max":0,"o":""},"¢":{"ha":660,"x_min":71,"x_max":696,"o":"m 250 0 q 115 79 160 21 q 71 238 71 138 q 82 347 71 283 q 372 694 132 640 l 386 778 l 567 778 l 554 701 q 657 663 600 690 q 696 639 676 654 l 614 528 l 600 528 q 565 556 586 542 q 464 583 525 583 q 346 530 392 583 q 276 347 300 476 q 267 249 267 294 q 299 143 267 175 q 394 111 331 111 q 506 139 456 111 q 550 167 531 151 l 564 167 l 607 56 q 554 29 590 46 q 428 -8 496 1 l 413 -97 l 232 -97 l 250 0 z "},"¤":{"ha":833,"x_min":31,"x_max":865,"o":"m 128 215 l 31 215 l 49 319 l 146 319 l 157 382 l 60 382 l 78 486 l 175 486 l 261 972 l 539 972 q 783 908 700 972 q 865 729 865 843 q 860 667 865 696 q 731 457 838 532 q 435 382 625 382 l 351 382 l 340 319 l 674 319 l 656 215 l 322 215 l 285 0 l 90 0 l 128 215 m 453 486 q 665 667 635 486 q 669 717 669 694 q 517 847 669 847 l 433 847 l 369 486 l 453 486 z "},"$":{"ha":743,"x_min":24,"x_max":792,"o":"m 235 -7 q 72 33 142 1 q 24 63 42 49 l 107 174 l 121 174 q 165 142 138 157 q 318 111 229 111 q 447 149 399 111 q 508 250 496 186 q 510 271 510 257 q 472 351 510 319 q 357 422 435 382 q 245 488 288 458 q 173 563 203 517 q 143 672 143 608 q 147 722 143 696 q 231 879 163 811 q 407 972 300 947 l 424 1069 l 611 1069 l 596 979 q 744 939 678 971 q 792 910 776 922 l 710 799 l 696 799 q 654 829 681 814 q 513 861 593 861 q 402 823 451 861 q 344 736 353 785 q 343 717 343 729 q 363 657 343 683 q 413 612 383 631 q 497 564 442 593 q 607 500 564 529 q 680 425 650 471 q 710 315 710 379 q 706 264 710 292 q 615 94 688 163 q 424 0 543 26 l 406 -97 l 218 -97 l 235 -7 z "},"€":{"ha":785,"x_min":40,"x_max":868,"o":"m 463 -14 q 144 347 129 -14 l 40 347 l 79 451 l 156 451 l 168 521 l 78 521 l 117 625 l 193 625 q 360 899 249 811 q 625 986 472 986 q 807 947 732 986 q 868 910 844 929 l 786 799 l 772 799 q 733 829 761 811 q 617 861 678 861 q 388 625 454 861 l 679 625 l 640 521 l 363 521 l 350 451 l 628 451 l 589 347 l 339 347 q 338 310 338 335 q 379 156 338 201 q 499 111 421 111 q 626 142 563 111 q 676 174 658 158 l 690 174 l 732 63 q 657 24 701 42 q 463 -14 569 -14 z "},"ƒ":{"ha":593,"x_min":-214,"x_max":796,"o":"m -74 -278 q -175 -257 -125 -278 q -214 -236 -197 -249 l -135 -118 l -121 -118 q -103 -136 -110 -132 q -54 -153 -83 -153 q 64 -42 35 -153 l 225 569 l 149 569 l 182 694 l 258 694 l 274 750 q 391 922 303 857 q 607 986 479 986 q 743 951 674 986 q 796 917 769 938 l 704 806 l 690 806 q 663 833 678 821 q 588 861 629 861 q 515 831 549 861 q 468 750 481 801 l 453 694 l 626 694 l 593 569 l 419 569 l 258 -42 q 142 -212 231 -147 q -74 -278 53 -278 z "},"₴":{"ha":767,"x_min":40,"x_max":807,"o":"m 506 460 q 488 449 496 454 q 475 442 481 444 l 776 442 l 758 338 l 333 338 q 281 208 281 276 q 317 132 281 158 q 413 106 354 106 q 533 124 469 106 q 651 174 597 142 l 665 174 l 717 63 q 383 -14 547 -14 q 169 40 251 -14 q 86 196 86 94 q 133 338 86 275 l 40 338 l 58 442 l 251 442 q 367 511 279 460 l 71 511 l 89 615 l 538 615 q 586 678 571 644 q 601 756 601 711 q 569 834 601 807 q 467 861 538 861 q 339 842 394 861 q 251 799 283 824 l 238 799 l 188 910 q 508 986 311 986 q 713 938 643 986 q 783 785 783 889 q 719 615 783 688 l 807 615 l 789 511 l 589 511 l 506 460 z "},"₽":{"ha":819,"x_min":6,"x_max":867,"o":"m 542 972 q 788 913 710 972 q 867 735 867 854 q 858 646 867 694 q 726 400 829 481 q 426 319 622 319 l 343 319 l 333 264 l 474 264 l 451 139 l 311 139 l 288 0 l 93 0 l 118 139 l 6 139 l 28 264 l 139 264 l 149 319 l 39 319 l 61 444 l 171 444 l 264 972 l 542 972 m 664 646 q 671 717 671 690 q 634 817 671 786 q 519 847 597 847 l 436 847 l 365 444 l 449 444 q 594 491 544 444 q 664 646 644 538 z "},"£":{"ha":701,"x_min":14,"x_max":792,"o":"m 35 125 q 94 172 71 146 q 176 333 158 239 l 196 444 l 119 444 l 142 569 l 218 569 l 250 750 q 304 870 261 817 q 414 955 347 924 q 563 986 481 986 q 732 947 660 986 q 792 910 765 932 l 710 799 l 696 799 q 658 829 682 813 q 554 861 608 861 q 483 832 513 861 q 444 750 454 803 l 413 569 l 586 569 l 564 444 l 390 444 l 371 333 q 289 172 353 239 q 229 125 265 146 l 674 125 l 653 0 l 14 0 l 35 125 z "},"₸":{"ha":710,"x_min":99,"x_max":831,"o":"m 132 868 l 150 972 l 831 972 l 813 868 l 132 868 m 222 0 l 342 674 l 99 674 l 119 799 l 800 799 l 779 674 l 536 674 l 417 0 l 222 0 z "},"₮":{"ha":708,"x_min":61,"x_max":804,"o":"m 782 847 l 539 847 l 497 608 l 682 653 l 664 549 l 479 504 l 467 435 l 651 479 l 633 375 l 449 331 l 390 0 l 196 0 l 244 281 l 61 236 l 79 340 l 264 385 l 275 454 l 92 410 l 110 514 l 294 558 l 344 847 l 101 847 l 124 972 l 804 972 l 782 847 z "},"¥":{"ha":792,"x_min":110,"x_max":928,"o":"m 304 236 l 110 236 l 131 354 l 304 354 l 288 417 l 142 417 l 163 535 l 260 535 l 136 972 l 338 972 l 439 563 q 443 539 442 551 q 444 521 444 526 q 446 500 446 514 l 451 500 q 460 521 454 510 q 481 563 472 550 l 726 972 l 928 972 l 649 535 l 746 535 l 725 417 l 579 417 l 540 354 l 714 354 l 693 236 l 499 236 l 458 0 l 264 0 l 304 236 z "},"∕":{"ha":625,"x_min":-35,"x_max":761,"o":"m 567 972 l 761 972 l 160 0 l -35 0 l 567 972 z "},"+":{"ha":681,"x_min":75,"x_max":697,"o":"m 264 160 l 304 389 l 75 389 l 100 528 l 329 528 l 369 757 l 508 757 l 468 528 l 697 528 l 672 389 l 443 389 l 403 160 l 264 160 z "},"×":{"ha":611,"x_min":65,"x_max":636,"o":"m 146 201 l 65 299 l 254 458 l 122 618 l 236 715 l 368 556 l 556 715 l 636 618 l 449 458 l 579 299 l 465 201 l 333 361 l 146 201 z "},"÷":{"ha":653,"x_min":75,"x_max":669,"o":"m 396 597 q 335 622 360 597 q 310 683 310 647 q 349 768 310 731 q 433 806 388 806 q 496 780 471 806 q 521 718 521 754 q 481 635 521 672 q 396 597 442 597 m 75 389 l 100 528 l 669 528 l 644 389 l 75 389 m 311 111 q 249 137 274 111 q 224 199 224 163 q 263 282 224 244 q 347 319 301 319 q 410 294 385 319 q 435 232 435 268 q 396 149 435 186 q 311 111 357 111 z "},"=":{"ha":708,"x_min":58,"x_max":740,"o":"m 106 522 l 129 661 l 740 661 l 717 522 l 106 522 m 58 257 l 83 396 l 694 396 l 669 257 l 58 257 z "},">":{"ha":632,"x_min":14,"x_max":640,"o":"m 14 0 l 43 167 l 422 347 l 107 528 l 136 694 l 640 403 l 621 292 l 14 0 z "},"<":{"ha":632,"x_min":44,"x_max":671,"o":"m 549 0 l 44 292 l 64 403 l 671 694 l 642 528 l 263 347 l 578 167 l 549 0 z "},"±":{"ha":694,"x_min":32,"x_max":708,"o":"m 32 104 l 56 243 l 285 243 l 315 417 l 86 417 l 111 556 l 340 556 l 381 785 l 519 785 l 479 556 l 708 556 l 683 417 l 454 417 l 424 243 l 653 243 l 629 104 l 32 104 z "},"~":{"ha":692,"x_min":65,"x_max":711,"o":"m 497 313 q 421 327 450 313 q 360 369 392 342 q 318 401 333 392 q 279 410 303 410 q 229 391 254 410 q 185 349 204 372 q 168 326 165 326 l 156 326 l 65 417 q 160 528 97 479 q 281 576 222 576 q 357 562 328 576 q 418 519 386 547 q 460 488 444 497 q 499 479 475 479 q 549 498 524 479 q 593 540 574 517 q 610 563 613 563 l 622 563 l 711 472 q 618 361 679 410 q 497 313 557 313 z "},"¬":{"ha":694,"x_min":92,"x_max":714,"o":"m 514 319 l 536 444 l 92 444 l 117 583 l 714 583 l 667 319 l 514 319 z "},"µ":{"ha":806,"x_min":13,"x_max":796,"o":"m 185 694 l 379 694 l 300 250 q 296 210 296 228 q 318 141 296 164 q 381 118 340 118 q 476 160 429 118 q 514 201 497 179 l 601 694 l 796 694 l 674 0 l 535 0 l 535 83 l 528 83 q 481 35 504 53 q 351 -14 422 -14 q 285 7 314 -14 q 261 28 272 14 l 217 -222 l 151 -278 l 13 -278 l 185 694 z "},"%":{"ha":1181,"x_min":118,"x_max":1163,"o":"m 321 486 q 174 542 229 486 q 118 686 118 597 q 122 736 118 710 q 176 864 135 807 q 279 953 218 921 q 410 986 340 986 q 557 931 501 986 q 613 786 613 875 q 608 736 613 764 q 553 608 596 665 q 450 519 511 551 q 321 486 389 486 m 125 0 l 949 972 l 1157 972 l 333 0 l 125 0 m 340 597 q 401 631 374 597 q 442 736 429 664 q 447 792 447 765 q 432 855 447 835 q 390 875 417 875 q 289 736 313 875 q 283 678 283 707 q 340 597 283 597 m 872 -14 q 724 42 781 -14 q 668 186 668 97 q 672 236 668 211 q 727 364 685 307 q 831 453 769 421 q 960 486 892 486 q 1107 431 1051 486 q 1163 286 1163 375 q 1158 236 1163 264 q 1104 108 1146 165 q 1001 19 1063 51 q 872 -14 940 -14 m 892 97 q 992 236 968 97 q 997 294 997 265 q 940 375 997 375 q 839 236 867 375 q 833 179 833 207 q 892 97 833 97 z "},"‰":{"ha":1667,"x_min":118,"x_max":1649,"o":"m 321 486 q 174 542 229 486 q 118 686 118 597 q 122 736 118 710 q 176 864 135 807 q 279 953 218 921 q 410 986 340 986 q 557 931 501 986 q 613 786 613 875 q 608 736 613 764 q 553 608 596 665 q 450 519 511 551 q 321 486 389 486 m 125 0 l 949 972 l 1157 972 l 333 0 l 125 0 m 340 597 q 401 631 374 597 q 442 736 429 664 q 447 792 447 765 q 432 855 447 835 q 390 875 417 875 q 289 736 313 875 q 283 678 283 707 q 340 597 283 597 m 844 -14 q 697 42 753 -14 q 640 186 640 97 q 644 236 640 211 q 699 364 657 307 q 803 453 742 421 q 932 486 864 486 q 1079 431 1024 486 q 1135 286 1135 375 q 1131 236 1135 264 q 1076 108 1118 165 q 974 19 1035 51 q 844 -14 913 -14 m 1358 -14 q 1210 42 1267 -14 q 1154 186 1154 97 q 1158 236 1154 211 q 1213 364 1171 307 q 1317 453 1256 421 q 1446 486 1378 486 q 1593 431 1538 486 q 1649 286 1649 375 q 1644 236 1649 264 q 1590 108 1632 165 q 1488 19 1549 51 q 1358 -14 1426 -14 m 864 97 q 964 236 940 97 q 969 294 969 265 q 913 375 969 375 q 811 236 839 375 q 806 179 806 207 q 864 97 806 97 m 1378 97 q 1478 236 1454 97 q 1483 294 1483 265 q 1426 375 1483 375 q 1325 236 1353 375 q 1319 179 1319 207 q 1378 97 1319 97 z "},"":{"ha":1757,"x_min":42,"x_max":1811,"o":"m 42 361 l 311 590 l 271 361 l 42 361 m 429 354 q 359 384 388 354 q 331 456 331 414 q 351 520 331 489 q 405 571 372 551 q 471 590 438 590 q 541 561 513 590 q 569 490 569 532 q 549 425 569 457 q 495 374 528 393 q 429 354 463 354 m 736 361 l 901 590 l 986 361 l 736 361 m 672 354 l 589 583 l 839 583 l 672 354 m 1235 389 l 1075 583 l 1269 583 l 1235 389 m 1507 389 l 1347 583 l 1542 583 l 1507 389 m 1644 354 l 1561 583 l 1811 583 l 1644 354 m 1007 361 l 1042 556 l 1201 361 l 1007 361 m 1279 361 l 1314 556 l 1474 361 l 1279 361 z "}}}
